<?xml version="1.0" standalone="no"?>
<!DOCTYPE svg PUBLIC "-//W3C//DTD SVG 1.1//EN" "http://www.w3.org/Graphics/SVG/1.1/DTD/svg11.dtd" >
<svg xmlns="http://www.w3.org/2000/svg">
<metadata>
Created by FontPrep 20130207 at Tue Dec  1 12:14:52 2015
 By Greg Greenhaw
(c) 2014 Apple Inc. All rights reserved.
</metadata>
<defs>
<font id="50873b88e3c5cd80262f7378225fbd5f" horiz-adv-x='1024' >
  <font-face 
    font-family=".HelveticaNeueDeskInterface-Regular"
    font-weight="400"
    font-stretch="normal"
    units-per-em="2048"
    panose-1="0 0 5 0 0 0 0 0 0 0"
    ascent="1638"
    descent="-410"
    x-height="1078"
    cap-height="1443"
    bbox="-545 -908 2564 2125"
    underline-thickness="50"
    underline-position="-25"
    unicode-range="U+0020-FB02"
  />
<missing-glyph horiz-adv-x="1293" 
d="M632 1018q56 0 88.5 -29.5t32.5 -73.5t-21 -73t-86 -75t-91.5 -96.5t-21.5 -139.5h166v15q0 47 19 75t71 66q89 64 119.5 113.5t30.5 111.5q0 119 -81.5 187t-219.5 68t-220.5 -76t-78.5 -203h169q1 60 34.5 95t89.5 35zM501 313q0 -48 33 -77.5t88 -29.5t88 30t33 78
t-33 77.5t-88 29.5t-88 -30t-33 -78zM120 1365h1053v-1365h-1053v1365z" />
    <glyph glyph-name=".notdef" horiz-adv-x="1293" 
d="M632 1018q56 0 88.5 -29.5t32.5 -73.5t-21 -73t-86 -75t-91.5 -96.5t-21.5 -139.5h166v15q0 47 19 75t71 66q89 64 119.5 113.5t30.5 111.5q0 119 -81.5 187t-219.5 68t-220.5 -76t-78.5 -203h169q1 60 34.5 95t89.5 35zM501 313q0 -48 33 -77.5t88 -29.5t88 30t33 78
t-33 77.5t-88 29.5t-88 -30t-33 -78zM120 1365h1053v-1365h-1053v1365z" />
    <glyph glyph-name=".null" 
 />
    <glyph glyph-name="nonmarkingreturn" 
 />
    <glyph glyph-name="space" unicode=" " horiz-adv-x="490" 
 />
    <glyph glyph-name="exclam" unicode="!" horiz-adv-x="546" 
d="M273 -10q-24 0 -45 9t-36 24t-24 36t-9 56.5t32 69t82 33.5q49 0 81.5 -33t32.5 -69t-8.5 -57t-24 -36t-36.5 -24t-45 -9zM363 1443l-12 -964h-156l-12 964h180z" />
    <glyph glyph-name="quotedbl" unicode="&#x22;" horiz-adv-x="807" 
d="M512 934v509h160v-509h-160zM135 934v509h160v-509h-160z" />
    <glyph glyph-name="numbersign" unicode="#" horiz-adv-x="1206" 
d="M423 554h310l71 349h-310zM946 901l-71 -344h219l-28 -144h-220l-84 -413h-143l84 413h-308l-84 -413h-142l83 413h-216l28 144h219l69 344h-205l29 143h205l83 399h142l-80 -399h306l83 399h143l-82 -399h231l-28 -143h-233z" />
    <glyph glyph-name="dollar" unicode="$" horiz-adv-x="1239" 
d="M312 1077q0 -180 242 -231v460q-105 -6 -173.5 -70.5t-68.5 -158.5zM961 388q0 104 -65.5 165.5t-207.5 91.5v-496q131 7 202 71t71 168zM554 -137v134q-203 14 -326 123.5t-123 274.5h171q8 -101 81 -164.5t197 -78.5v520l-80 22q-161 42 -247.5 137.5t-86.5 246.5
t111.5 257.5t302.5 124.5v140h134v-139q187 -16 301 -122.5t120 -269.5h-170q-6 145 -101 187.5t-150 49.5v-489l85 -21q184 -49 272.5 -142.5t88.5 -258.5t-117 -272t-329 -125v-135h-134z" />
    <glyph glyph-name="percent" unicode="%" horiz-adv-x="1508" 
d="M457.5 928.5q37.5 64.5 37.5 175.5q0 110 -37 172t-104 62t-105.5 -63.5t-38.5 -145.5t10 -126t38.5 -91.5t95 -47.5t104 64.5zM655 1102q0 -163 -82.5 -261.5t-219.5 -98.5t-220 98t-83 262t83 261.5t220 97.5t219.5 -98t82.5 -261zM1260.5 170.5q37.5 64.5 37.5 175.5
q0 110 -37 172t-104 62t-105.5 -63.5t-38.5 -145.5t10 -126t38.5 -91.5t95 -47.5t104 64.5zM1458 344q0 -163 -82.5 -261.5t-219.5 -98.5t-220 98t-83 262t83 261.5t220 97.5t219.5 -98t82.5 -261zM137 0l1056 1443h172l-1054 -1443h-174z" />
    <glyph glyph-name="ampersand" unicode="&#x26;" horiz-adv-x="1370" 
d="M802 1140q0 83 -55 134.5t-140 51.5q-86 0 -141 -53t-55 -138t56 -151t98 -108q129 66 170.5 111.5t54 79t12.5 73.5zM260 396q0 -120 88.5 -195t235.5 -75t228 51.5t110 82.5l-406 445q-256 -128 -256 -309zM82 384q0 251 283 400q22 11 35.5 18.5t19.5 9.5
q-97 103 -138 180.5t-41 150.5q0 142 104.5 233t261.5 91q156 0 259.5 -90.5t103.5 -241.5t-113.5 -234t-195.5 -126l357 -385q69 130 69 384v43h166v-44q0 -318 -119 -504l253 -269h-226l-134 145q-192 -169 -461 -169q-214 0 -349 114t-135 294z" />
    <glyph glyph-name="quotesingle" unicode="'" horiz-adv-x="430" 
d="M135 934v509h160v-509h-160z" />
    <glyph glyph-name="parenleft" unicode="(" horiz-adv-x="636" 
d="M175 600q0 310 75.5 494t204.5 348h146q-154 -178 -201.5 -423.5t-47.5 -480.5t69.5 -433t176.5 -382h-153q-178 220 -224 461.5t-46 415.5z" />
    <glyph glyph-name="parenright" unicode=")" horiz-adv-x="636" 
d="M461 599q0 -540 -271 -876h-153q34 60 77 140t80.5 187t63 243t25.5 374.5t-79 454t-169 320.5h146q127 -162 203.5 -348.5t76.5 -494.5z" />
    <glyph glyph-name="asterisk" unicode="*" horiz-adv-x="988" 
d="M545 1045l16 -291h-134l16 292l-245 -161l-65 116l259 132l-259 131l65 118l245 -163l-16 294h134l-16 -294l245 163l65 -118l-258 -131l258 -132l-65 -116z" />
    <glyph glyph-name="plus" unicode="+" horiz-adv-x="1238" 
d="M700 30h-162v458h-427v162h427v447h162v-447h427v-162h-427v-458z" />
    <glyph glyph-name="comma" unicode="," horiz-adv-x="538" 
d="M99 -257l100 459h185l-150 -459h-135z" />
    <glyph glyph-name="hyphen" unicode="-" horiz-adv-x="878" 
d="M111 488v162h656v-162h-656z" />
    <glyph glyph-name="period" unicode="." horiz-adv-x="520" 
d="M260 -10q-24 0 -45 9t-36 24t-24 36t-9 56.5t32 69t82 33.5q49 0 81.5 -33t32.5 -69t-8.5 -57t-24 -36t-36.5 -24t-45 -9z" />
    <glyph glyph-name="slash" unicode="/" horiz-adv-x="590" 
d="M0 -329l441 1773h149l-444 -1773h-146z" />
    <glyph glyph-name="zero" unicode="0" horiz-adv-x="1242" 
d="M880 291q91 158 91 431q0 416 -132.5 501.5t-257 85.5t-217.5 -159t-93 -430q0 -270 91.5 -428.5t259.5 -158.5q167 0 258 158zM90 720q0 345 142 546t390.5 201t389 -200t140.5 -545q0 -344 -140 -545t-390 -201t-391 199.5t-141 544.5z" />
    <glyph glyph-name="one" unicode="1" horiz-adv-x="908" 
d="M485 1252h-4l-382 -275v190l384 276h176v-1443h-174v1252z" />
    <glyph glyph-name="two" unicode="2" horiz-adv-x="1159" 
d="M108 1027q0 190 136.5 315t334.5 125t332 -115.5t134 -280.5q0 -121 -66.5 -232t-247.5 -298l-365 -377v-4h703v-160h-952v124l508 535q143 149 181.5 213t48.5 104t10 88q0 100 -83 173t-206 73t-208.5 -81t-85.5 -202v-1h-174v1z" />
    <glyph glyph-name="three" unicode="3" horiz-adv-x="1212" 
d="M411 818h173q123 0 202.5 71t79.5 182q0 169 -105 204.5t-171 35.5q-129 0 -206.5 -66t-89.5 -180h-173q14 183 142.5 292.5t326.5 109.5t327.5 -105t129.5 -253t-79.5 -240.5t-216.5 -116.5v-4q164 -10 261 -105t97 -246q0 -184 -147 -302.5t-366 -118.5t-356.5 112
t-147.5 294h173q12 -113 100 -181.5t233 -68.5q144 0 236 73t92 194t-90 194t-244 73h-181v152z" />
    <glyph glyph-name="four" unicode="4" horiz-adv-x="1239" 
d="M256 458h547v835h-3q-377 -539 -544 -831v-4zM977 1443v-985h204v-158h-204v-300h-174v300h-725v163q179 331 633 980h266z" />
    <glyph glyph-name="five" unicode="5" horiz-adv-x="1198" 
d="M854.5 226.5q92.5 92.5 92.5 237.5t-92.5 239t-236.5 94q-102 0 -183 -43t-126 -119h-169l79 808h826v-160h-678l-44 -470h4q49 66 134 102.5t241 36.5t290.5 -136.5t134.5 -349.5t-143.5 -351.5t-365.5 -138.5q-213 0 -350.5 116.5t-149.5 301.5h177q12 -114 100.5 -187
t227.5 -73t231.5 92.5z" />
    <glyph glyph-name="six" unicode="6" horiz-adv-x="1226" 
d="M870.5 229.5q96.5 94.5 96.5 234.5t-91.5 231.5t-235 91.5t-238 -91t-94.5 -229t95 -235t233 -97t234.5 94.5zM947 1094q-66 215 -316 215q-72 0 -216 -80.5t-150 -517.5h3q47 104 157 169t229 65q224 0 360 -136t136 -346t-145 -349t-366 -139q-163 0 -286.5 84.5
t-192.5 244.5t-69 368q0 390 148 593t412 203q184 0 314.5 -102t164.5 -272h-183z" />
    <glyph glyph-name="seven" unicode="7" horiz-adv-x="1120" 
d="M853 1283h-777v160h955v-167l-642 -1276h-189l653 1279v4z" />
    <glyph glyph-name="eight" unicode="8" horiz-adv-x="1227" 
d="M613 832q63 0 115.5 17.5t91 49.5t59.5 75.5t21 96.5t-21 97.5t-59 76.5t-91 49.5t-116 17.5t-116 -18t-91 -50t-59 -76t-21 -97t21 -96.5t59 -75.5t91 -49.5t116 -17.5zM858.5 209.5q94.5 76.5 94.5 194.5t-95 194t-244 76q-150 0 -245.5 -76.5t-95.5 -194t95.5 -194
t245.5 -76.5t244.5 76.5zM90 390q0 134 85 236.5t225 134.5v4q-116 35 -184.5 121.5t-68.5 185.5q0 98 35 167.5t97.5 120t147.5 79t236.5 28.5t283 -107t131.5 -276t-96.5 -234.5t-155.5 -84.5v-4q143 -35 227 -136.5t84 -234.5q0 -181 -146.5 -297.5t-376.5 -116.5
q-228 0 -376 117t-148 297z" />
    <glyph glyph-name="nine" unicode="9" horiz-adv-x="1226" 
d="M823.5 1210.5q-95.5 95.5 -233.5 95.5t-235 -94.5t-97 -233.5t93.5 -230.5t236.5 -91.5t237 91t94 229.5t-95.5 234zM538 498q-86 0 -174 36t-188 135t-100 310t145 350t379 139t384.5 -188t150.5 -543t-147.5 -558t-411.5 -203q-185 0 -316 102.5t-163 271.5h183
q28 -97 109.5 -157t180.5 -60q189 0 288 157.5t103 443.5h-3q-70 -165 -202 -200.5t-218 -35.5z" />
    <glyph glyph-name="colon" unicode=":" horiz-adv-x="520" 
d="M260 726q-24 0 -45 9t-36 24t-24 36t-9 56.5t32 69t82 33.5q49 0 81.5 -33t32.5 -69t-8.5 -57t-24 -36t-36.5 -24t-45 -9zM260 -10q-24 0 -45 9t-36 24t-24 36t-9 56.5t32 69t82 33.5q49 0 81.5 -33t32.5 -69t-8.5 -57t-24 -36t-36.5 -24t-45 -9z" />
    <glyph glyph-name="semicolon" unicode=";" horiz-adv-x="520" 
d="M62 -257l98 459h187l-150 -459h-135zM260 726q-24 0 -45 9t-36 24t-24 36t-9 56.5t32 69t82 33.5q49 0 81.5 -33t32.5 -69t-8.5 -57t-24 -36t-36.5 -24t-45 -9z" />
    <glyph glyph-name="less" unicode="&#x3c;" horiz-adv-x="1239" 
d="M352 580v-9l707 -378v-186l-879 491v142l879 526v-186z" />
    <glyph glyph-name="equal" unicode="=" horiz-adv-x="1239" 
d="M131 684v154h977v-154h-977zM131 301v154h977v-154h-977z" />
    <glyph glyph-name="greater" unicode="&#x3e;" horiz-adv-x="1239" 
d="M180 1167l879 -526v-142l-879 -491v186l707 378v9l-707 400v186z" />
    <glyph glyph-name="question" unicode="?" horiz-adv-x="1002" 
d="M457 -10q-24 0 -45 9t-36 24t-24 36t-9 56.5t32 69t82 33.5q49 0 81.5 -33t32.5 -69t-8.5 -57t-24 -36t-36.5 -24t-45 -9zM798 1351q118 -103 118 -259q0 -220 -209 -345q-135 -79 -149 -138t-14 -98v-65h-175v92q0 146 74.5 209.5t121.5 92.5q95 58 130 111t35 115
q0 110 -67 171t-178 61q-173 0 -213.5 -89t-44.5 -143h-171q8 170 121 279t308 109t313 -103z" />
    <glyph glyph-name="at" unicode="@" horiz-adv-x="1791" 
d="M98 591q0 384 230 614t589 230t524 -149.5t225 -285.5t60 -278q0 -265 -101.5 -410.5t-274.5 -145.5q-135 0 -177.5 65t-46.5 103h-8q-32 -76 -98 -117.5t-150 -41.5q-161 0 -257.5 117t-96.5 304t97 302t237 115q139 0 190.5 -54.5t65.5 -86.5h8v122h151v-587
q0 -49 27.5 -80t79.5 -31q97 0 155 107t58 271q0 299 -187.5 467t-482.5 168t-485.5 -201t-190.5 -522q0 -322 197 -507.5t507 -185.5q230 0 335 48v-126q-141 -49 -330 -49q-382 0 -616 220.5t-234 604.5zM676 596q0 -132 56 -206t155 -74q159 0 192 108t33 204.5
t-61 171.5t-162 75t-157 -73.5t-56 -205.5z" />
    <glyph glyph-name="A" unicode="A" horiz-adv-x="1292" 
d="M412 566h468l-231 658h-6zM933 413h-574l-145 -413h-189l532 1443h178l532 -1443h-189z" />
    <glyph glyph-name="B" unicode="B" horiz-adv-x="1256" 
d="M676 159q331 0 331 253.5t-348 253.5h-339v-507h356zM320 821h288q161 0 245 61.5t84 174.5t-70.5 170t-202.5 57h-344v-463zM140 0v1443h565q185 0 299.5 -99t114.5 -261q0 -113 -72.5 -205t-176.5 -110v-8q145 -18 233.5 -114.5t88.5 -240.5q0 -192 -129.5 -298.5
t-359.5 -106.5h-563z" />
    <glyph glyph-name="C" unicode="C" horiz-adv-x="1405" 
d="M734 -24q-299 0 -474.5 201.5t-175.5 542.5t177 544t473 203q234 0 399.5 -131t199.5 -348h-182q-34 141 -148.5 227t-268.5 86q-213 0 -339 -158.5t-126 -422.5t126.5 -421t353.5 -157t304.5 106t97.5 172h182q-50 -215 -204 -329.5t-395 -114.5z" />
    <glyph glyph-name="D" unicode="D" horiz-adv-x="1399" 
d="M320 162h303q244 0 376.5 144.5t132.5 413.5q0 411 -193 486t-316 75h-303v-1119zM635 1443q320 0 500.5 -190t180.5 -531q0 -342 -180 -532t-501 -190h-495v1443h495z" />
    <glyph glyph-name="E" unicode="E" horiz-adv-x="1131" 
d="M1034 0h-894v1443h894v-162h-714v-463h677v-160h-677v-496h714v-162z" />
    <glyph glyph-name="F" unicode="F" horiz-adv-x="1081" 
d="M140 0v1443h876v-162h-696v-496h639v-160h-639v-625h-180z" />
    <glyph glyph-name="G" unicode="G" horiz-adv-x="1447" 
d="M1159 995q-95 306 -431 306q-94 0 -182.5 -39t-182.5 -151.5t-94 -382.5t127.5 -428t334.5 -158t326.5 113.5t119.5 294.5v26h-407v158h587v-137q0 -292 -161 -456.5t-457 -164.5t-475.5 204.5t-179.5 545.5t179 541t482 200q233 0 398 -128.5t205 -343.5h-189z" />
    <glyph glyph-name="H" unicode="H" horiz-adv-x="1432" 
d="M1112 0v657h-792v-657h-180v1443h180v-624h792v624h180v-1443h-180z" />
    <glyph glyph-name="I" unicode="I" horiz-adv-x="460" 
d="M140 0v1443h180v-1443h-180z" />
    <glyph glyph-name="J" unicode="J" horiz-adv-x="1014" 
d="M694 403v1040h180v-1041q0 -205 -112 -320.5t-302 -115.5t-304 104.5t-114 268.5h179q2 -91 65.5 -149t172.5 -58q110 0 172.5 69t62.5 202z" />
    <glyph glyph-name="K" unicode="K" horiz-adv-x="1260" 
d="M140 0v1443h180v-704h10l637 704h227l-593 -639l646 -804h-230l-541 676l-156 -172v-504h-180z" />
    <glyph glyph-name="L" unicode="L" horiz-adv-x="1074" 
d="M1016 0h-876v1443h180v-1281h696v-162z" />
    <glyph glyph-name="M" unicode="M" horiz-adv-x="1702" 
d="M1562 0h-168v1112h-7l-460 -1102h-152l-460 1102h-7v-1112h-168v1443h209l498 -1204h8l498 1204h209v-1443z" />
    <glyph glyph-name="N" unicode="N" horiz-adv-x="1432" 
d="M140 0v1443h175l790 -1133h9v1133h178v-1443h-175l-790 1129h-9v-1129h-178z" />
    <glyph glyph-name="O" unicode="O" horiz-adv-x="1498" 
d="M749 1301q-111 0 -199.5 -40.5t-151 -116t-96 -183t-33.5 -240.5t33.5 -240t96 -182.5t151 -116t199.5 -40.5t199.5 40.5t151 116t96 182.5t33.5 240t-33.5 240.5t-96 183t-151 116t-199.5 40.5zM749 1467q153 0 276.5 -52t209.5 -149t132.5 -235t46.5 -310t-46.5 -310
t-132.5 -234.5t-209.5 -148.5t-276.5 -52t-276.5 52t-209.5 148.5t-132.5 234.5t-46.5 310t46.5 310t132.5 235t209.5 149t276.5 52z" />
    <glyph glyph-name="P" unicode="P" horiz-adv-x="1213" 
d="M320 675h318q235 0 279.5 116.5t44.5 188.5q0 144 -84 223.5t-240 79.5h-318v-608zM685 1443q202 0 332 -128.5t130 -334.5q0 -205 -130 -335t-334 -130h-363v-515h-180v1443h545z" />
    <glyph glyph-name="Q" unicode="Q" horiz-adv-x="1498" 
d="M1229 721q0 267 -129.5 423.5t-350.5 156.5t-350.5 -156.5t-129.5 -423t129.5 -423t350.5 -156.5q81 0 153 23l-180 248h202l123 -168q182 153 182 476zM1414 721q0 -423 -262 -621l191 -263h-202l-134 184q-115 -45 -263 -45t-271.5 52t-209.5 148.5t-132.5 234.5
t-46.5 310t46.5 310t132.5 235t209.5 149t354 52t409 -201.5t178.5 -544.5z" />
    <glyph glyph-name="R" unicode="R" horiz-adv-x="1237" 
d="M320 0h-180v1443h551q209 0 334.5 -118t125.5 -312q0 -229 -111 -311t-179 -103l334 -599h-211l-309 571h-355v-571zM320 730h355q140 0 215 71.5t75 205.5q0 197 -114 236.5t-184 39.5h-347v-553z" />
    <glyph glyph-name="S" unicode="S" horiz-adv-x="1216" 
d="M960 375q0 99 -67 158t-212 97l-185 48q-295 74 -339.5 190.5t-44.5 198.5t37.5 157t142.5 159t325 84t361 -115t147 -297h-180q-18 177 -138.5 213.5t-225.5 36.5t-193.5 -66.5t-88.5 -159.5q0 -94 65.5 -147t210.5 -90l151 -40q329 -82 374.5 -201t45.5 -207
t-37.5 -167.5t-146 -165t-347.5 -85.5t-385.5 115.5t-158.5 305.5h181q12 -116 114 -187.5t255 -71.5q148 0 243.5 69t95.5 168z" />
    <glyph glyph-name="T" unicode="T" horiz-adv-x="1210" 
d="M515 0v1281h-465v162h1110v-162h-465v-1281h-180z" />
    <glyph glyph-name="U" unicode="U" horiz-adv-x="1426" 
d="M320 518q0 -169 105 -272.5t288.5 -103.5t288 104.5t104.5 271.5v925h180v-937q0 -236 -154.5 -383t-418.5 -147t-418.5 147t-154.5 383v937h180v-925z" />
    <glyph glyph-name="V" unicode="V" horiz-adv-x="1292" 
d="M557 0l-532 1443h189l429 -1224h6l429 1224h189l-532 -1443h-178z" />
    <glyph glyph-name="W" unicode="W" horiz-adv-x="1892" 
d="M608 0h-170l-393 1443h188l289 -1178h8l325 1178h182l325 -1178h8l289 1178h188l-393 -1443h-170l-333 1145h-10z" />
    <glyph glyph-name="X" unicode="X" horiz-adv-x="1300" 
d="M536 723v7l-485 713h217l385 -580h7l390 580h205l-498 -722v-6l487 -715h-216l-383 575h-7l-389 -575h-204z" />
    <glyph glyph-name="Y" unicode="Y" horiz-adv-x="1254" 
d="M537 0v621l-512 822h205l394 -648h6l394 648h205l-512 -822v-621h-180z" />
    <glyph glyph-name="Z" unicode="Z" horiz-adv-x="1263" 
d="M921 1281h-795v162h1022v-128l-819 -1146v-7h836v-162h-1067v128l823 1146v7z" />
    <glyph glyph-name="bracketleft" unicode="[" horiz-adv-x="664" 
d="M657 1444v-136h-284v-1413h296v-135h-464v1684h452z" />
    <glyph glyph-name="backslash" unicode="\" horiz-adv-x="590" 
d="M0 1444h149l441 -1773h-146z" />
    <glyph glyph-name="bracketright" unicode="]" horiz-adv-x="664" 
d="M459 -240h-464v135h297v1413h-284v136h451v-1684z" />
    <glyph glyph-name="asciicircum" unicode="^" horiz-adv-x="896" 
d="M222 816h-167l298 627h190l298 -627h-167l-218 475h-16z" />
    <glyph glyph-name="underscore" unicode="_" horiz-adv-x="828" 
d="M-54 -235v128h936v-128h-936z" />
    <glyph glyph-name="grave" unicode="`" horiz-adv-x="1005" 
d="M557 1250l-261 300h198l211 -300h-148z" />
    <glyph glyph-name="a" unicode="a" horiz-adv-x="1062" 
d="M420 -10q-151 0 -251 86.5t-100 228.5t103 221t301 91l302 18v90q0 101 -63.5 154.5t-196.5 53.5t-175.5 -64t-50.5 -102h-167q4 138 121.5 229.5t297.5 91.5t294 -94.5t114 -253.5v-740h-165v187h-4q-71 -139 -180.5 -168t-179.5 -29zM775 410v87l-282 -18
q-246 -16 -246 -173q0 -75 60.5 -120t144.5 -45q151 0 237 76.5t86 192.5z" />
    <glyph glyph-name="b" unicode="b" horiz-adv-x="1173" 
d="M301 538q0 -175 87 -284t228.5 -109t227.5 107t86 286t-86 287t-227 108t-228.5 -110t-87.5 -285zM293 182v-182h-165v1506h174v-603h4q51 89 141.5 137t198.5 48q211 0 336.5 -151t125.5 -398t-126.5 -398t-333.5 -151q-243 0 -351 192h-4z" />
    <glyph glyph-name="c" unicode="c" horiz-adv-x="1060" 
d="M553 933q-137 0 -224 -108t-87 -288t87 -286t216 -106q248 0 295 200h171q-22 -158 -145.5 -256.5t-306.5 -98.5q-224 0 -359 148.5t-135 398.5t135 400.5t341 150.5t328.5 -105.5t139.5 -255.5h-171q-26 142 -122.5 174t-162.5 32z" />
    <glyph glyph-name="d" unicode="d" horiz-adv-x="1173" 
d="M558 933q-141 0 -228 -107.5t-87 -286.5t86.5 -286.5t228.5 -107.5q141 0 227.5 109.5t86.5 284.5t-86 284.5t-228 109.5zM527 -10q-204 0 -333 151.5t-129 397t127.5 397.5t330.5 152q116 0 205 -48t139 -137h4v603h174v-1506h-166v182h-3q-108 -192 -349 -192z" />
    <glyph glyph-name="e" unicode="e" horiz-adv-x="1084" 
d="M197.5 936.5q132.5 151.5 350.5 151.5t344.5 -142t126.5 -387v-68h-774v-10q0 -155 87.5 -246.5t237.5 -91.5t201 63.5t63 101.5h172q-22 -138 -148 -228t-313 -90q-100 0 -191 38t-190 147t-99 359.5t132.5 402zM336.5 850q-83.5 -85 -91.5 -220h593q-4 138 -83.5 221.5
t-206.5 83.5q-128 0 -211.5 -85z" />
    <glyph glyph-name="f" unicode="f" horiz-adv-x="629" 
d="M467 1321q-117 0 -118 -143v-100h210v-144h-210v-934h-174v934h-150v144h150v100q0 149 68.5 218.5t218.5 69.5q52 0 97 -9v-144q-35 8 -92 8z" />
    <glyph glyph-name="g" unicode="g" horiz-adv-x="1163" 
d="M576 -234q131 0 213 67.5t82 182.5v169h-4q-51 -88 -141.5 -136.5t-198.5 -48.5q-210 0 -336 149t-126 395t126 395t334 149q115 0 206 -48t145 -137h3v175h166v-1048q0 -194 -130 -304.5t-347 -110.5q-195 0 -317 81.5t-140 215.5h181q31 -104 126.5 -125t157.5 -21z
M554 155q71 0 129.5 28t100 79t64.5 122.5t23 158.5t-23 159t-64.5 123t-100 79.5t-129.5 28.5t-128 -28t-98 -79t-63 -123t-22 -160t22 -159.5t63 -122.5t98 -78.5t128 -27.5z" />
    <glyph glyph-name="h" unicode="h" horiz-adv-x="1166" 
d="M128 1506h174v-603h4q102 185 352 185q177 0 286 -110.5t109 -289.5v-688h-174v657q0 197 -104.5 236.5t-170.5 39.5q-134 0 -218 -86t-84 -227v-620h-174v1506z" />
    <glyph glyph-name="i" unicode="i" horiz-adv-x="430" 
d="M215 1252q-23 0 -43 8.5t-35 23.5t-23.5 35t-8.5 43t8.5 43t23.5 35t35 23.5t43 8.5t43 -8.5t35 -23.5t23.5 -35t8.5 -43t-8.5 -43t-23.5 -35t-35 -23.5t-43 -8.5zM128 1078h174v-1078h-174v1078z" />
    <glyph glyph-name="j" unicode="j" horiz-adv-x="430" 
d="M215 1252q-23 0 -43 8.5t-35 23.5t-23.5 35t-8.5 43t8.5 43t23.5 35t35 23.5t43 8.5t43 -8.5t35 -23.5t23.5 -35t8.5 -43t-8.5 -43t-23.5 -35t-35 -23.5t-43 -8.5zM302 -81q0 -164 -79.5 -240.5t-251.5 -76.5h-31v147h27q89 0 125 38t36 129v1162h174v-1159z" />
    <glyph glyph-name="k" unicode="k" horiz-adv-x="1026" 
d="M302 0h-174v1506h174v-910l483 482h212l-471 -466l485 -612h-202l-405 505l-102 -96v-409z" />
    <glyph glyph-name="l" unicode="l" horiz-adv-x="430" 
d="M128 1506h174v-1506h-174v1506z" />
    <glyph glyph-name="m" unicode="m" horiz-adv-x="1701" 
d="M118 1078h164v-175h4q59 133 156 159t150 26q110 0 188.5 -53t113.5 -151h4q46 97 135.5 150.5t186.5 53.5q178 0 273 -96.5t95 -255.5v-736h-174v696q0 112 -59 174.5t-168 62.5t-178 -72.5t-69 -182.5v-678h-174v717q0 97 -61.5 156.5t-166.5 59.5t-175.5 -76
t-70.5 -188v-669h-174v1078z" />
    <glyph glyph-name="n" unicode="n" horiz-adv-x="1135" 
d="M118 1078h164v-175h4q103 185 352 185q178 0 281 -106.5t103 -290.5v-691h-174v661q0 133 -67 202.5t-197 69.5t-211 -84t-81 -223v-626h-174v1078z" />
    <glyph glyph-name="o" unicode="o" horiz-adv-x="1124" 
d="M562 145q75 0 134.5 27t101 77.5t63 123.5t21.5 166t-21.5 166t-63 124t-101 77.5t-134.5 26.5t-134.5 -27t-101 -77.5t-63 -123.5t-21.5 -166t22 -166t63 -123.5t100.5 -77.5t134.5 -27zM65 540q0 252 135 400t362 148t362 -148t135 -400t-135.5 -401t-361.5 -149
t-361.5 149t-135.5 401z" />
    <glyph glyph-name="p" unicode="p" horiz-adv-x="1163" 
d="M920 539q0 179 -86.5 286.5t-227.5 107.5t-228 -108.5t-87 -285.5t86.5 -285.5t226.5 -108.5q142 0 229 107.5t87 286.5zM660 1088q80 0 164.5 -39.5t145.5 -111.5t94.5 -173.5t33.5 -286t-126.5 -336t-331.5 -151.5q-115 0 -204 48t-140 137h-4v-535h-174v1438h165v-175
h4q106 185 373 185z" />
    <glyph glyph-name="q" unicode="q" horiz-adv-x="1163" 
d="M783.5 253.5q87.5 108.5 87.5 284.5t-88.5 285.5t-228.5 109.5t-225.5 -107t-85.5 -287.5t85.5 -287t225.5 -106.5q142 0 229.5 108.5zM525 1088q244 0 351 -185h3v175h166v-1438h-174v535h-4q-51 -89 -141 -137t-198 -48q-211 0 -337 151t-126 398t126.5 398t333.5 151z
" />
    <glyph glyph-name="r" unicode="r" horiz-adv-x="649" 
d="M292 667v-667h-174v1078h164v-175h4q37 131 125.5 158t132.5 27t70 -7v-172q-26 12 -85 12q-109 0 -173 -69.5t-64 -184.5z" />
    <glyph glyph-name="s" unicode="s" horiz-adv-x="984" 
d="M499 134q171 0 205 61t34 107t-38 80t-130 58l-189 49q-281 73 -281 288q0 136 112 223t282 87t280.5 -87.5t116.5 -220.5h-167q-8 76 -70 120t-136 44q-124 0 -185.5 -43.5t-61.5 -105.5q0 -63 44 -100.5t138 -60.5l164 -41q164 -42 230 -106t66 -192t-119 -216
t-300 -88t-296.5 87t-127.5 226h175q29 -169 254 -169z" />
    <glyph glyph-name="t" unicode="t" horiz-adv-x="634" 
d="M448 -8q-147 0 -210 66.5t-63 221.5v654h-150v144h150v243h174v-243h210v-144h-210v-647q0 -75 32.5 -109.5t101.5 -34.5q8 0 35 1t40 4v-147q-36 -9 -110 -9z" />
    <glyph glyph-name="u" unicode="u" horiz-adv-x="1135" 
d="M496 -10q-177 0 -280 106.5t-103 290.5v691h174v-661q0 -134 67 -203t197 -69t211 84t81 223v626h174v-1078h-164v178h-4q-102 -188 -353 -188z" />
    <glyph glyph-name="v" unicode="v" horiz-adv-x="1022" 
d="M599 0h-176l-398 1078h182l302 -890h4l303 890h181z" />
    <glyph glyph-name="w" unicode="w" horiz-adv-x="1512" 
d="M1180 0h-176l-246 838h-4l-246 -838h-176l-302 1078h172l219 -881h4l247 881h168l247 -881h4l219 881h172z" />
    <glyph glyph-name="x" unicode="x" horiz-adv-x="991" 
d="M492 413l-263 -413h-194l369 539l-363 539h194l263 -407h4l260 407h194l-365 -532l360 -546h-194l-261 413h-4z" />
    <glyph glyph-name="y" unicode="y" horiz-adv-x="1026" 
d="M323.5 -204q44.5 39 79.5 139l21 64l-399 1079h185l302 -901h4l302 901h183l-422 -1144q-70 -188 -147.5 -256.5t-221.5 -68.5q-39 0 -76 7v147q30 -6 88 -6q57 0 101.5 39z" />
    <glyph glyph-name="z" unicode="z" horiz-adv-x="990" 
d="M696 934h-600v144h796v-129l-597 -802v-3h600v-144h-800v126l601 805v3z" />
    <glyph glyph-name="braceleft" unicode="{" horiz-adv-x="734" 
d="M490 365v-334q0 -173 86 -198.5t148 -25.5h45v-141h-60q-195 0 -289 86.5t-94 266.5v289q0 119 -39.5 165t-138.5 46v191q99 0 138.5 46t39.5 167v255q0 176 93.5 260t289.5 84h60v-141h-45q-184 0 -209 -82.5t-25 -142.5v-296q0 -216 -179 -234v-25q179 -17 179 -236z
" />
    <glyph glyph-name="bar" unicode="|" horiz-adv-x="446" 
d="M150 -326v1769h146v-1769h-146z" />
    <glyph glyph-name="braceright" unicode="}" horiz-adv-x="734" 
d="M244 860v296q0 176 -85.5 200.5t-148.5 24.5h-45v141h60q196 0 289.5 -84t93.5 -260v-255q0 -121 39.5 -167t138.5 -46v-191q-99 0 -138.5 -46t-39.5 -165v-289q0 -180 -94 -266.5t-289 -86.5h-60v141h45q182 0 208 82.5t26 141.5v334q0 219 179 236v25q-179 18 -179 234
z" />
    <glyph glyph-name="asciitilde" unicode="~" horiz-adv-x="1239" 
d="M114 558q0 245 117 294.5t185 49.5q126 0 250 -125q95 -100 158 -100q131 0 142 179h159q0 -245 -116.5 -294.5t-184.5 -49.5q-126 0 -237 112q-112 112 -172 113q-130 0 -141 -179h-160z" />
    <glyph glyph-name="nonbreakingspace" unicode="&#xa0;" horiz-adv-x="490" 
 />
    <glyph glyph-name="exclamdown" unicode="&#xa1;" horiz-adv-x="546" 
d="M273 885q-24 0 -45 9t-36 24t-24 36t-9 56.5t32 69t82 33.5q49 0 81.5 -32.5t32.5 -68.5t-8.5 -57.5t-24 -36.5t-36.5 -24t-45 -9zM195 622h156l12 -964h-180z" />
    <glyph glyph-name="cent" unicode="&#xa2;" horiz-adv-x="1239" 
d="M636 319q274 0 315 219h174q-18 -149 -129.5 -250t-276.5 -119v-169h-172v171q-199 30 -316 180.5t-117 372.5q0 221 117.5 369.5t315.5 178.5v171h172v-169q165 -18 280.5 -124.5t125.5 -249.5h-174q-34 160 -143.5 192t-178.5 32q-145 0 -241 -111.5t-96 -288.5
t96.5 -291t247.5 -114z" />
    <glyph glyph-name="sterling" unicode="&#xa3;" horiz-adv-x="1239" 
d="M1088 1264q-93 54 -309 54q-142 0 -233 -67.5t-91 -174.5t60 -279h471v-144h-424q21 -85 21 -147q0 -118 -60 -206.5t-149 -141.5v-4h786v-154h-1062v152q132 30 220 129t88 220q0 69 -24 152h-284v144h234q-23 66 -42 131.5t-19 147.5t35.5 159.5t137.5 159.5t344 82
q185 0 300 -53v-160z" />
    <glyph glyph-name="currency" unicode="&#xa4;" horiz-adv-x="1239" 
d="M1011 656.5q0 -119.5 -68 -219.5l169 -169l-106 -106l-169 169q-97 -66 -216 -66t-219 67l-169 -170l-106 106l170 170q-67 100 -67 218.5t67 216.5l-170 170l106 106l169 -169q100 67 219 67t217 -67l168 169l106 -106l-168 -169q67 -98 67 -217.5zM357 656
q0 -54 21 -102t57 -84t84 -57t102 -21t102 21t84 57t56.5 84t20.5 102t-20.5 102t-56.5 84t-84 57t-102 21t-102 -21t-84 -57t-57 -84t-21 -102z" />
    <glyph glyph-name="yen" unicode="&#xa5;" horiz-adv-x="1239" 
d="M710 269v-269h-180v269h-277v136h277v166h-277v136h223l-458 736h205l394 -647h6l393 647h205l-457 -736h223v-136h-277v-166h277v-136h-277z" />
    <glyph glyph-name="brokenbar" unicode="&#xa6;" horiz-adv-x="448" 
d="M151 -326v669h146v-669h-146zM151 774v669h146v-669h-146z" />
    <glyph glyph-name="section" unicode="&#xa7;" horiz-adv-x="988" 
d="M509 -111q101 0 164.5 44t63.5 107q0 64 -47 101.5t-151 65.5l-141 38q-164 44 -240.5 113.5t-76.5 169.5t58.5 169t164.5 98v16q-219 85 -219 273q0 140 111.5 226.5t289.5 86.5q256 0 322.5 -111t75.5 -178h-173q-11 66 -73 104.5t-134 38.5q-122 0 -184 -43t-62 -107
t46 -102t149 -66l141 -38q162 -44 237.5 -111.5t75.5 -169.5t-70.5 -181t-183.5 -101v-16q254 -57 254 -257q0 -138 -114 -227t-292 -89q-174 0 -287.5 83t-123.5 216h176q15 -106 104 -129.5t139 -23.5zM730 584q0 52 -43.5 95t-126.5 61l-83 18q-90 0 -154.5 -55.5
t-64.5 -126.5q0 -138 171 -176l83 -18q94 0 156 55.5t62 146.5z" />
    <glyph glyph-name="dieresis" unicode="&#xa8;" horiz-adv-x="1004" 
d="M699 1261q-23 0 -43.5 9t-35.5 24t-24 35.5t-9 43.5t9 43.5t24 35.5t35.5 24t43.5 9t43.5 -9t35.5 -24t24 -35.5t9 -43.5t-9 -43.5t-24 -35.5t-35.5 -24t-43.5 -9zM305 1261q-23 0 -43.5 9t-35.5 24t-24 35.5t-9 43.5t9 43.5t24 35.5t35.5 24t43.5 9t43.5 -9t35.5 -24
t24 -35.5t9 -43.5t-9 -43.5t-24 -35.5t-35.5 -24t-43.5 -9z" />
    <glyph glyph-name="copyright" unicode="&#xa9;" horiz-adv-x="1706" 
d="M864 924q-110 0 -178.5 -79t-68.5 -218q0 -138 69 -218.5t170 -80.5q198 0 236 151h139q-18 -122 -113.5 -198.5t-261.5 -76.5t-273.5 114t-107.5 308t107.5 308t272.5 114t261 -79.5t115 -200.5h-139q-26 105 -101 130.5t-127 25.5zM830 -28q114 0 198.5 22.5t157 64
t131.5 100.5t100.5 131.5t64.5 157t23 178.5t-23 179t-86 195.5t-213 195t-308 84.5q-297 0 -485.5 -186.5t-188.5 -466.5t138.5 -418t257.5 -187.5t233 -49.5zM882 -168q-140 0 -242 27.5t-190 78t-160 122t-123 159.5t-79 191t-28 216t28 216t105 237t260 237.5t401 103.5
q219 0 401 -103.5t286.5 -285t104.5 -405.5q0 -170 -61 -315t-168 -251.5t-251 -167t-284 -60.5z" />
    <glyph glyph-name="ordfeminine" unicode="&#xaa;" horiz-adv-x="886" 
d="M372 609q-117 0 -191 70t-74 181t78 174.5t227 73.5l218 14v69q0 66 -45.5 102t-127.5 36q-144 0 -167 -98h-152q10 104 98 167t225 63q227 0 272.5 -105.5t45.5 -169.5v-556h-143v107h-11q-88 -128 -253 -128zM262 866q0 -60 42.5 -95.5t101.5 -35.5q105 0 166 55.5
t61 136.5v84l-202 -15q-169 -12 -169 -130z" />
    <glyph glyph-name="guillemotleft" unicode="&#xab;" horiz-adv-x="1303" 
d="M338 558l351 -413h-204l-350 416v8l350 416h204l-351 -413v-14zM816 558l351 -413h-204l-350 416v8l350 416h204l-351 -413v-14z" />
    <glyph glyph-name="logicalnot" unicode="&#xac;" horiz-adv-x="1239" 
d="M1093 126h-148v380h-799v148h947v-528z" />
    <glyph glyph-name="registered" unicode="&#xae;" horiz-adv-x="1070" 
d="M450 1145h97q32 0 50 16.5t18 45.5q0 56 -65 56h-100v-118zM364 927v408h200q62 0 103 -35t41 -86q0 -52 -25.5 -84t-70.5 -39l116 -164h-108l-99 151h-71v-151h-86zM535 782q70 0 131.5 26t106.5 71.5t71 106.5t26 131t-26 131.5t-71 106.5t-106.5 71t-131.5 26
t-131 -26t-106.5 -71t-71.5 -106.5t-26 -131.5t26 -131t71.5 -106.5t106.5 -71.5t131 -26zM100 1117q0 178 126.5 302.5t309 124.5t308.5 -124.5t126 -302.5t-126 -302.5t-308.5 -124.5t-309 124.5t-126.5 302.5z" />
    <glyph glyph-name="macron" unicode="&#xaf;" horiz-adv-x="1000" 
d="M817 1320h-634v106h634v-106z" />
    <glyph glyph-name="degree" unicode="&#xb0;" horiz-adv-x="733" 
d="M524 1132q0 80 -46 126t-110 46t-111.5 -46t-47.5 -110t47.5 -110.5t94.5 -46.5q81 0 127 46.5t46 94.5zM82 1147q0 119 83 202t201 83t201.5 -83.5t83.5 -201.5t-83.5 -201.5t-201.5 -83.5t-201 83t-83 202z" />
    <glyph glyph-name="plusminus" unicode="&#xb1;" horiz-adv-x="1239" 
d="M693 371h-147v291h-435v136h435v291h147v-291h435v-136h-435v-291zM111 112v148h1017v-148h-1017z" />
    <glyph glyph-name="two.sups" unicode="&#xb2;" horiz-adv-x="617" 
d="M45 1601q0 101 73 163t188 62q174 0 213 -78t39 -114q0 -62 -28.5 -110.5t-98.5 -114.5l-165 -155v-3h301v-126h-513v108l264 247q46 46 64.5 76t18.5 64t-28.5 58.5t-62.5 24.5q-55 0 -85.5 -29t-30.5 -73v-3h-149v3z" />
    <glyph glyph-name="three.sups" unicode="&#xb3;" horiz-adv-x="643" 
d="M230 1532h84q46 0 73.5 24t27.5 64t-27.5 62t-75.5 22t-76.5 -25.5t-30.5 -67.5h-147q2 98 74 156.5t187 58.5q173 0 210.5 -71t37.5 -123t-38.5 -95t-103.5 -54v-4q78 -7 123 -51t45 -102q0 -104 -76 -160.5t-198 -56.5t-196 58.5t-78 158.5h154q3 -42 35 -65.5
t82 -23.5t81 24.5t31 66.5t-30 66.5t-84 24.5h-84v113z" />
    <glyph glyph-name="acute" unicode="&#xb4;" horiz-adv-x="1005" 
d="M299 1250l211 300h198l-261 -300h-148z" />
    <glyph glyph-name="paragraph" unicode="&#xb6;" horiz-adv-x="1201" 
d="M921 1443h180v-1663h-180v1663zM594 -220v795h-20q-203 0 -338.5 122t-135.5 309t136.5 312t338.5 125h199v-1663h-180z" />
    <glyph glyph-name="periodcentered" unicode="&#xb7;" horiz-adv-x="520" 
d="M260 491q-24 0 -45 9t-36 24t-24 36t-9 56.5t32 69t82 33.5q49 0 81.5 -32.5t32.5 -68.5t-8.5 -57.5t-24 -36.5t-36.5 -24t-45 -9z" />
    <glyph glyph-name="cedilla" unicode="&#xb8;" horiz-adv-x="1005" 
d="M444 -369q120 0 120 73q0 35 -35 50.5t-115 15.5h-55v74l63 164l109 -8l-52 -142q209 0 209 -150q0 -76 -62 -126.5t-151 -51.5t-153 18v98q35 -15 122 -15z" />
    <glyph glyph-name="one.sups" unicode="&#xb9;" horiz-adv-x="497" 
d="M251 1670h-3l-178 -122v142l176 120h158v-685h-153v545z" />
    <glyph glyph-name="ordmasculine" unicode="&#xba;" horiz-adv-x="949" 
d="M195.5 718q-102.5 114 -102.5 311.5t102.5 312t279.5 114.5t279 -114t102 -312t-102 -312t-279 -114t-279.5 114zM253 1029q0 -141 57.5 -217t164.5 -76t164.5 76t57.5 218t-57.5 217t-164.5 75t-164.5 -76t-57.5 -217z" />
    <glyph glyph-name="guillemotright" unicode="&#xbb;" horiz-adv-x="1302" 
d="M613 985h204l350 -416v-8l-350 -416h-204l351 413v14zM135 985h204l350 -416v-8l-350 -416h-204l351 413v14z" />
    <glyph glyph-name="onequarter" unicode="&#xbc;" horiz-adv-x="1462" 
d="M261 1303h-3l-178 -122v142l176 120h158v-685h-153v545zM989 238h204v335h-3q-143 -220 -201 -332v-3zM1343 685v-442h87v-128h-87v-115h-154v115h-339v137q76 148 267 433h226zM91 0l1056 1443h172l-1054 -1443h-174z" />
    <glyph glyph-name="onehalf" unicode="&#xbd;" horiz-adv-x="1462" 
d="M908 476q0 101 73 163t188 62q174 0 213 -78t39 -114q0 -62 -28.5 -110.5t-98.5 -114.5l-165 -155v-3h301v-126h-513v108l264 247q46 46 64.5 75.5t18.5 63.5t-28.5 59t-62.5 25q-55 0 -85.5 -29t-30.5 -73v-3h-149v3zM261 1303h-3l-178 -122v142l176 120h158v-685h-153
v545zM91 0l1056 1443h172l-1054 -1443h-174z" />
    <glyph glyph-name="threequarters" unicode="&#xbe;" horiz-adv-x="1572" 
d="M230 1165h84q46 0 73.5 23.5t27.5 63.5t-27.5 62.5t-75.5 22.5t-76.5 -25.5t-30.5 -67.5h-147q2 98 74 156.5t187 58.5q173 0 210.5 -71t37.5 -123t-38.5 -95t-103.5 -54v-4q78 -7 123 -51t45 -102q0 -104 -76 -160.5t-198 -56.5t-196 58.5t-78 158.5h154q3 -42 35 -65.5
t82 -23.5t81 25t31 67t-30 66t-84 24h-84v113zM1099 238h204v335h-3q-143 -220 -201 -332v-3zM1453 685v-442h87v-128h-87v-115h-154v115h-339v137q76 148 267 433h226zM201 0l1056 1443h172l-1054 -1443h-174z" />
    <glyph glyph-name="questiondown" unicode="&#xbf;" horiz-adv-x="1002" 
d="M532 885q-24 0 -45 9t-36 24t-24 36t-9 56.5t32 69t82 33.5q49 0 81.5 -32.5t32.5 -68.5t-8.5 -57.5t-24 -36.5t-36.5 -24t-45 -9zM86 7q0 217 209 343q134 78 148 137.5t14 98.5v65h175v-92q4 -183 -199 -304q-89 -56 -125 -108.5t-36 -115.5q0 -62 17.5 -102t49.5 -69
t77.5 -45t130 -16t152.5 62.5t76 170.5h171q-8 -171 -121 -280t-309 -109q-193 0 -311.5 103.5t-118.5 260.5z" />
    <glyph glyph-name="Agrave" unicode="&#xc0;" horiz-adv-x="1292" 
d="M291 1849h198l231 -299h-148zM412 566h468l-231 658h-6zM933 413h-574l-145 -413h-189l532 1443h178l532 -1443h-189z" />
    <glyph glyph-name="Aacute" unicode="&#xc1;" horiz-adv-x="1292" 
d="M575 1550l231 299h198l-281 -299h-148zM412 566h468l-231 658h-6zM933 413h-574l-145 -413h-189l532 1443h178l532 -1443h-189z" />
    <glyph glyph-name="Acircumflex" unicode="&#xc2;" horiz-adv-x="1292" 
d="M717 1849l292 -299h-168l-194 201h-2l-194 -201h-168l292 299h142zM412 566h468l-231 658h-6zM933 413h-574l-145 -413h-189l532 1443h178l532 -1443h-189z" />
    <glyph glyph-name="Atilde" unicode="&#xc3;" horiz-adv-x="1292" 
d="M525 1687q-69 0 -69 -137h-114q0 118 46.5 184t130.5 66t152 -76t103 -76q62 0 62 138h114q0 -178 -68 -214.5t-104 -36.5t-61.5 11.5t-46.5 28t-39 36.5t-47 48t-59 28zM412 566h468l-231 658h-6zM933 413h-574l-145 -413h-189l532 1443h178l532 -1443h-189z" />
    <glyph glyph-name="Adieresis" unicode="&#xc4;" horiz-adv-x="1292" 
d="M843 1585q-23 0 -43.5 9t-35.5 24t-24 35.5t-9 43.5t9 43.5t24 35.5t35.5 24t43.5 9t43.5 -9t35.5 -24t24 -35.5t9 -43.5t-9 -43.5t-24 -35.5t-35.5 -24t-43.5 -9zM449 1585q-23 0 -43.5 9t-35.5 24t-24 35.5t-9 43.5t9 43.5t24 35.5t35.5 24t43.5 9t43.5 -9t35.5 -24
t24 -35.5t9 -43.5t-9 -43.5t-24 -35.5t-35.5 -24t-43.5 -9zM412 566h468l-231 658h-6zM933 413h-574l-145 -413h-189l532 1443h178l532 -1443h-189z" />
    <glyph glyph-name="Aring" unicode="&#xc5;" horiz-adv-x="1292" 
d="M646 1590q24 0 45 9t37 25t25 37t9 45t-9 45t-25 37t-37 25t-45 9t-45 -9t-37 -25t-25 -37t-9 -45t9 -45t25 -37t37 -25t45 -9zM646 1507q-41 0 -77 16t-63 43t-43 63t-16 77t16 77t43 63t63 43t77 16t77 -16t63 -43t43 -63t16 -77t-16 -77t-43 -63t-63 -43t-77 -16z
M412 566h468l-231 658h-6zM933 413h-574l-145 -413h-189l532 1443h178l532 -1443h-189z" />
    <glyph glyph-name="AE" unicode="&#xc6;" horiz-adv-x="1973" 
d="M962 459h-555l-217 -459h-185l687 1443h1144v-162h-694v-473h657v-160h-657v-486h694v-162h-874v459zM962 612v680h-160l-322 -680h482z" />
    <glyph glyph-name="Ccedilla" unicode="&#xc7;" horiz-adv-x="1405" 
d="M715 -369q120 0 120 73q0 35 -35 50.5t-115 15.5h-55v74l51 134q-276 18 -436.5 217t-160.5 533t177 536.5t473 202.5q234 0 399.5 -131t199.5 -348h-182q-34 141 -148.5 227t-268.5 86q-213 0 -339 -158.5t-126 -422.5t126.5 -421t353.5 -157t304.5 106t97.5 172h182
q-47 -201 -185 -314.5t-354 -127.5l-44 -120q209 0 209 -150q0 -76 -62 -126.5t-151 -51.5t-153 18v98q35 -15 122 -15z" />
    <glyph glyph-name="Egrave" unicode="&#xc8;" horiz-adv-x="1131" 
d="M232 1849h198l231 -299h-148zM1034 0h-894v1443h894v-162h-714v-463h677v-160h-677v-496h714v-162z" />
    <glyph glyph-name="Eacute" unicode="&#xc9;" horiz-adv-x="1131" 
d="M516 1550l231 299h198l-281 -299h-148zM1034 0h-894v1443h894v-162h-714v-463h677v-160h-677v-496h714v-162z" />
    <glyph glyph-name="Ecircumflex" unicode="&#xca;" horiz-adv-x="1131" 
d="M658 1849l292 -299h-168l-194 201h-2l-194 -201h-168l292 299h142zM1034 0h-894v1443h894v-162h-714v-463h677v-160h-677v-496h714v-162z" />
    <glyph glyph-name="Edieresis" unicode="&#xcb;" horiz-adv-x="1131" 
d="M784 1585q-23 0 -43.5 9t-35.5 24t-24 35.5t-9 43.5t9 43.5t24 35.5t35.5 24t43.5 9t43.5 -9t35.5 -24t24 -35.5t9 -43.5t-9 -43.5t-24 -35.5t-35.5 -24t-43.5 -9zM390 1585q-23 0 -43.5 9t-35.5 24t-24 35.5t-9 43.5t9 43.5t24 35.5t35.5 24t43.5 9t43.5 -9t35.5 -24
t24 -35.5t9 -43.5t-9 -43.5t-24 -35.5t-35.5 -24t-43.5 -9zM1034 0h-894v1443h894v-162h-714v-463h677v-160h-677v-496h714v-162z" />
    <glyph glyph-name="Igrave" unicode="&#xcc;" horiz-adv-x="460" 
d="M-125 1849h198l231 -299h-148zM140 0v1443h180v-1443h-180z" />
    <glyph glyph-name="Iacute" unicode="&#xcd;" horiz-adv-x="460" 
d="M159 1550l231 299h198l-281 -299h-148zM140 0v1443h180v-1443h-180z" />
    <glyph glyph-name="Icircumflex" unicode="&#xce;" horiz-adv-x="460" 
d="M301 1849l292 -299h-168l-194 201h-2l-194 -201h-168l292 299h142zM140 0v1443h180v-1443h-180z" />
    <glyph glyph-name="Idieresis" unicode="&#xcf;" horiz-adv-x="460" 
d="M427 1585q-23 0 -43.5 9t-35.5 24t-24 35.5t-9 43.5t9 43.5t24 35.5t35.5 24t43.5 9t43.5 -9t35.5 -24t24 -35.5t9 -43.5t-9 -43.5t-24 -35.5t-35.5 -24t-43.5 -9zM33 1585q-23 0 -43.5 9t-35.5 24t-24 35.5t-9 43.5t9 43.5t24 35.5t35.5 24t43.5 9t43.5 -9t35.5 -24
t24 -35.5t9 -43.5t-9 -43.5t-24 -35.5t-35.5 -24t-43.5 -9zM140 0v1443h180v-1443h-180z" />
    <glyph glyph-name="Eth" unicode="&#xd0;" horiz-adv-x="1452" 
d="M635 1443q320 0 500.5 -190t180.5 -531q0 -342 -180 -532t-501 -190h-495v663h-129v163h129v617h495zM623 162q244 0 376.5 144.5t132.5 413.5q0 411 -193 486t-316 75h-303v-455h277v-163h-277v-501h303z" />
    <glyph glyph-name="Ntilde" unicode="&#xd1;" horiz-adv-x="1432" 
d="M595 1687q-69 0 -69 -137h-114q0 118 46.5 184t130.5 66t152 -76t103 -76q62 0 62 138h114q0 -178 -68 -214.5t-104 -36.5t-61.5 11.5t-46.5 28t-39 36.5t-47 48t-59 28zM140 0v1443h175l790 -1133h9v1133h178v-1443h-175l-790 1129h-9v-1129h-178z" />
    <glyph glyph-name="Ograve" unicode="&#xd2;" horiz-adv-x="1498" 
d="M394 1849h198l231 -299h-148zM749 1301q-111 0 -199.5 -40.5t-151 -116t-96 -183t-33.5 -240.5t33.5 -240t96 -182.5t151 -116t199.5 -40.5t199.5 40.5t151 116t96 182.5t33.5 240t-33.5 240.5t-96 183t-151 116t-199.5 40.5zM749 1467q153 0 276.5 -52t209.5 -149
t132.5 -235t46.5 -310t-46.5 -310t-132.5 -234.5t-209.5 -148.5t-276.5 -52t-276.5 52t-209.5 148.5t-132.5 234.5t-46.5 310t46.5 310t132.5 235t209.5 149t276.5 52z" />
    <glyph glyph-name="Oacute" unicode="&#xd3;" horiz-adv-x="1498" 
d="M678 1550l231 299h198l-281 -299h-148zM749 1301q-111 0 -199.5 -40.5t-151 -116t-96 -183t-33.5 -240.5t33.5 -240t96 -182.5t151 -116t199.5 -40.5t199.5 40.5t151 116t96 182.5t33.5 240t-33.5 240.5t-96 183t-151 116t-199.5 40.5zM749 1467q153 0 276.5 -52
t209.5 -149t132.5 -235t46.5 -310t-46.5 -310t-132.5 -234.5t-209.5 -148.5t-276.5 -52t-276.5 52t-209.5 148.5t-132.5 234.5t-46.5 310t46.5 310t132.5 235t209.5 149t276.5 52z" />
    <glyph glyph-name="Ocircumflex" unicode="&#xd4;" horiz-adv-x="1498" 
d="M820 1849l292 -299h-168l-194 201h-2l-194 -201h-168l292 299h142zM749 1301q-111 0 -199.5 -40.5t-151 -116t-96 -183t-33.5 -240.5t33.5 -240t96 -182.5t151 -116t199.5 -40.5t199.5 40.5t151 116t96 182.5t33.5 240t-33.5 240.5t-96 183t-151 116t-199.5 40.5z
M749 1467q153 0 276.5 -52t209.5 -149t132.5 -235t46.5 -310t-46.5 -310t-132.5 -234.5t-209.5 -148.5t-276.5 -52t-276.5 52t-209.5 148.5t-132.5 234.5t-46.5 310t46.5 310t132.5 235t209.5 149t276.5 52z" />
    <glyph glyph-name="Otilde" unicode="&#xd5;" horiz-adv-x="1498" 
d="M628 1687q-69 0 -69 -137h-114q0 118 46.5 184t130.5 66t152 -76t103 -76q62 0 62 138h114q0 -178 -68 -214.5t-104 -36.5t-61.5 11.5t-46.5 28t-39 36.5t-47 48t-59 28zM749 1301q-111 0 -199.5 -40.5t-151 -116t-96 -183t-33.5 -240.5t33.5 -240t96 -182.5t151 -116
t199.5 -40.5t199.5 40.5t151 116t96 182.5t33.5 240t-33.5 240.5t-96 183t-151 116t-199.5 40.5zM749 1467q153 0 276.5 -52t209.5 -149t132.5 -235t46.5 -310t-46.5 -310t-132.5 -234.5t-209.5 -148.5t-276.5 -52t-276.5 52t-209.5 148.5t-132.5 234.5t-46.5 310t46.5 310
t132.5 235t209.5 149t276.5 52z" />
    <glyph glyph-name="Odieresis" unicode="&#xd6;" horiz-adv-x="1498" 
d="M946 1585q-23 0 -43.5 9t-35.5 24t-24 35.5t-9 43.5t9 43.5t24 35.5t35.5 24t43.5 9t43.5 -9t35.5 -24t24 -35.5t9 -43.5t-9 -43.5t-24 -35.5t-35.5 -24t-43.5 -9zM552 1585q-23 0 -43.5 9t-35.5 24t-24 35.5t-9 43.5t9 43.5t24 35.5t35.5 24t43.5 9t43.5 -9t35.5 -24
t24 -35.5t9 -43.5t-9 -43.5t-24 -35.5t-35.5 -24t-43.5 -9zM749 1301q-111 0 -199.5 -40.5t-151 -116t-96 -183t-33.5 -240.5t33.5 -240t96 -182.5t151 -116t199.5 -40.5t199.5 40.5t151 116t96 182.5t33.5 240t-33.5 240.5t-96 183t-151 116t-199.5 40.5zM749 1467
q153 0 276.5 -52t209.5 -149t132.5 -235t46.5 -310t-46.5 -310t-132.5 -234.5t-209.5 -148.5t-276.5 -52t-276.5 52t-209.5 148.5t-132.5 234.5t-46.5 310t46.5 310t132.5 235t209.5 149t276.5 52z" />
    <glyph glyph-name="multiply" unicode="&#xd7;" horiz-adv-x="1239" 
d="M312 168l-104 104l307 308l-307 308l104 104l308 -307l307 307l104 -104l-306 -308l306 -308l-104 -104l-307 307z" />
    <glyph glyph-name="Oslash" unicode="&#xd8;" horiz-adv-x="1498" 
d="M1250 1247q164 -199 164 -534t-179 -536t-486 -201q-227 0 -387 113l-104 -136l-100 76l110 142q-184 203 -184 548t178.5 546.5t486.5 201.5q251 0 415 -134l120 155l98 -69zM749 1301q-221 0 -350.5 -156.5t-129.5 -413.5t113 -412l673 872q-122 110 -306 110z
M1099.5 298.5q129.5 156.5 129.5 403.5t-94 394l-665 -866q117 -88 279 -88q221 0 350.5 156.5z" />
    <glyph glyph-name="Ugrave" unicode="&#xd9;" horiz-adv-x="1426" 
d="M358 1849h198l231 -299h-148zM320 518q0 -169 105 -272.5t288.5 -103.5t288 104.5t104.5 271.5v925h180v-937q0 -236 -154.5 -383t-418.5 -147t-418.5 147t-154.5 383v937h180v-925z" />
    <glyph glyph-name="Uacute" unicode="&#xda;" horiz-adv-x="1426" 
d="M642 1550l231 299h198l-281 -299h-148zM320 518q0 -169 105 -272.5t288.5 -103.5t288 104.5t104.5 271.5v925h180v-937q0 -236 -154.5 -383t-418.5 -147t-418.5 147t-154.5 383v937h180v-925z" />
    <glyph glyph-name="Ucircumflex" unicode="&#xdb;" horiz-adv-x="1426" 
d="M784 1849l292 -299h-168l-194 201h-2l-194 -201h-168l292 299h142zM320 518q0 -169 105 -272.5t288.5 -103.5t288 104.5t104.5 271.5v925h180v-937q0 -236 -154.5 -383t-418.5 -147t-418.5 147t-154.5 383v937h180v-925z" />
    <glyph glyph-name="Udieresis" unicode="&#xdc;" horiz-adv-x="1426" 
d="M910 1585q-23 0 -43.5 9t-35.5 24t-24 35.5t-9 43.5t9 43.5t24 35.5t35.5 24t43.5 9t43.5 -9t35.5 -24t24 -35.5t9 -43.5t-9 -43.5t-24 -35.5t-35.5 -24t-43.5 -9zM516 1585q-23 0 -43.5 9t-35.5 24t-24 35.5t-9 43.5t9 43.5t24 35.5t35.5 24t43.5 9t43.5 -9t35.5 -24
t24 -35.5t9 -43.5t-9 -43.5t-24 -35.5t-35.5 -24t-43.5 -9zM320 518q0 -169 105 -272.5t288.5 -103.5t288 104.5t104.5 271.5v925h180v-937q0 -236 -154.5 -383t-418.5 -147t-418.5 147t-154.5 383v937h180v-925z" />
    <glyph glyph-name="Yacute" unicode="&#xdd;" horiz-adv-x="1254" 
d="M556 1550l231 299h198l-281 -299h-148zM537 0v621l-512 822h205l394 -648h6l394 648h205l-512 -822v-621h-180z" />
    <glyph glyph-name="Thorn" unicode="&#xde;" horiz-adv-x="1232" 
d="M340 505h322q202 0 245 96.5t43 160.5q0 125 -78.5 190t-209.5 65h-322v-512zM340 1443v-266h373q175 0 298.5 -113t123.5 -302t-124.5 -303t-299.5 -114h-371v-345h-180v1443h180z" />
    <glyph glyph-name="germandbls" unicode="&#xdf;" horiz-adv-x="1238" 
d="M952 408q0 125 -89 197.5t-251 72.5h-61v170h51q116 0 180.5 69.5t64.5 184.5t-68 178.5t-181 63.5q-112 0 -178.5 -68.5t-66.5 -191.5v-1084h-171v1101q0 179 114 287t301 108t303 -105t116 -285t-88 -247.5t-141 -83.5v-4q244 -34 290 -164t46 -215q0 -178 -124 -292
t-331 -114q-83 0 -144 13v153q52 -14 126 -14q141 0 221.5 72.5t80.5 197.5z" />
    <glyph glyph-name="agrave" unicode="&#xe0;" horiz-adv-x="1062" 
d="M443 1250l-261 300h198l211 -300h-148zM420 -10q-151 0 -251 86.5t-100 228.5t103 221t301 91l302 18v90q0 101 -63.5 154.5t-196.5 53.5t-175.5 -64t-50.5 -102h-167q4 138 121.5 229.5t297.5 91.5t294 -94.5t114 -253.5v-740h-165v187h-4q-71 -139 -180.5 -168
t-179.5 -29zM775 410v87l-282 -18q-246 -16 -246 -173q0 -75 60.5 -120t144.5 -45q151 0 237 76.5t86 192.5z" />
    <glyph glyph-name="aacute" unicode="&#xe1;" horiz-adv-x="1062" 
d="M452 1250l211 300h198l-261 -300h-148zM420 -10q-151 0 -251 86.5t-100 228.5t103 221t301 91l302 18v90q0 101 -63.5 154.5t-196.5 53.5t-175.5 -64t-50.5 -102h-167q4 138 121.5 229.5t297.5 91.5t294 -94.5t114 -253.5v-740h-165v187h-4q-71 -139 -180.5 -168
t-179.5 -29zM775 410v87l-282 -18q-246 -16 -246 -173q0 -75 60.5 -120t144.5 -45q151 0 237 76.5t86 192.5z" />
    <glyph glyph-name="acircumflex" unicode="&#xe2;" horiz-adv-x="1062" 
d="M865 1250h-163l-173 197h-6l-173 -197h-163l277 300h124zM420 -10q-151 0 -251 86.5t-100 228.5t103 221t301 91l302 18v90q0 101 -63.5 154.5t-196.5 53.5t-175.5 -64t-50.5 -102h-167q4 138 121.5 229.5t297.5 91.5t294 -94.5t114 -253.5v-740h-165v187h-4
q-71 -139 -180.5 -168t-179.5 -29zM775 410v87l-282 -18q-246 -16 -246 -173q0 -75 60.5 -120t144.5 -45q151 0 237 76.5t86 192.5z" />
    <glyph glyph-name="atilde" unicode="&#xe3;" horiz-adv-x="1062" 
d="M340 1273h-114q0 118 46.5 184t130.5 66t152 -76t103 -76q62 0 62 138h114q0 -178 -68 -214.5t-104 -36.5t-61.5 11.5t-46.5 28t-39 36.5t-47 48t-59 28q-69 0 -69 -137zM420 -10q-151 0 -251 86.5t-100 228.5t103 221t301 91l302 18v90q0 101 -63.5 154.5t-196.5 53.5
t-175.5 -64t-50.5 -102h-167q4 138 121.5 229.5t297.5 91.5t294 -94.5t114 -253.5v-740h-165v187h-4q-71 -139 -180.5 -168t-179.5 -29zM775 410v87l-282 -18q-246 -16 -246 -173q0 -75 60.5 -120t144.5 -45q151 0 237 76.5t86 192.5z" />
    <glyph glyph-name="adieresis" unicode="&#xe4;" horiz-adv-x="1062" 
d="M723 1261q-23 0 -43.5 9t-35.5 24t-24 35.5t-9 43.5t9 43.5t24 35.5t35.5 24t43.5 9t43.5 -9t35.5 -24t24 -35.5t9 -43.5t-9 -43.5t-24 -35.5t-35.5 -24t-43.5 -9zM329 1261q-23 0 -43.5 9t-35.5 24t-24 35.5t-9 43.5t9 43.5t24 35.5t35.5 24t43.5 9t43.5 -9t35.5 -24
t24 -35.5t9 -43.5t-9 -43.5t-24 -35.5t-35.5 -24t-43.5 -9zM420 -10q-151 0 -251 86.5t-100 228.5t103 221t301 91l302 18v90q0 101 -63.5 154.5t-196.5 53.5t-175.5 -64t-50.5 -102h-167q4 138 121.5 229.5t297.5 91.5t294 -94.5t114 -253.5v-740h-165v187h-4
q-71 -139 -180.5 -168t-179.5 -29zM775 410v87l-282 -18q-246 -16 -246 -173q0 -75 60.5 -120t144.5 -45q151 0 237 76.5t86 192.5z" />
    <glyph glyph-name="aring" unicode="&#xe5;" horiz-adv-x="1062" 
d="M526 1267q24 0 45 9t37 25t25 37t9 45t-9 45t-25 37t-37 25t-45 9t-45 -9t-37 -25t-25 -37t-9 -45t9 -45t25 -37t37 -25t45 -9zM526 1184q-41 0 -77 16t-63 43t-43 63t-16 77t16 77t43 63t63 43t77 16t77 -16t63 -43t43 -63t16 -77t-16 -77t-43 -63t-63 -43t-77 -16z
M420 -10q-151 0 -251 86.5t-100 228.5t103 221t301 91l302 18v90q0 101 -63.5 154.5t-196.5 53.5t-175.5 -64t-50.5 -102h-167q4 138 121.5 229.5t297.5 91.5t294 -94.5t114 -253.5v-740h-165v187h-4q-71 -139 -180.5 -168t-179.5 -29zM775 410v87l-282 -18
q-246 -16 -246 -173q0 -75 60.5 -120t144.5 -45q151 0 237 76.5t86 192.5z" />
    <glyph glyph-name="ae" unicode="&#xe6;" horiz-adv-x="1769" 
d="M470 141q124 0 214 77.5t90 191.5v81l-285 -15q-118 -6 -180 -49.5t-62 -120.5q0 -117 82.5 -141t140.5 -24zM1248 935q-126 0 -209 -84t-91 -221h575q-6 218 -109.5 261.5t-165.5 43.5zM1704 559v-67h-756v-11q0 -155 86 -246.5t229 -91.5q98 0 165 43.5t91 121.5h172
q-24 -142 -143 -230t-271 -88q-293 0 -404 223h-10q-134 -223 -406 -223q-178 0 -283 85.5t-105 226.5t103.5 221.5t298.5 90.5l303 15v77q0 101 -70.5 164t-179.5 63t-172 -44.5t-70 -121.5h-171q8 140 119.5 230.5t302.5 90.5t262.5 -81t91.5 -132h9q112 213 366 213
q204 0 323 -143t119 -386z" />
    <glyph glyph-name="ccedilla" unicode="&#xe7;" horiz-adv-x="1060" 
d="M540 -369q120 0 120 73q0 35 -35 50.5t-115 15.5h-55v74l57 148q-205 16 -326 162t-121 389t135 394t341 151t328.5 -105.5t139.5 -255.5h-171q-26 142 -122.5 174t-162.5 32q-137 0 -224 -108t-87 -288t87 -286t216 -106q248 0 295 200h171q-31 -222 -169 -282t-217 -69
l-50 -136q209 0 209 -150q0 -76 -62 -126.5t-151 -51.5t-153 18v98q35 -15 122 -15z" />
    <glyph glyph-name="egrave" unicode="&#xe8;" horiz-adv-x="1084" 
d="M468 1250l-261 300h198l211 -300h-148zM197.5 936.5q132.5 151.5 350.5 151.5t344.5 -142t126.5 -387v-68h-774v-10q0 -155 87.5 -246.5t237.5 -91.5t201 63.5t63 101.5h172q-22 -138 -148 -228t-313 -90q-100 0 -191 38t-190 147t-99 359.5t132.5 402zM336.5 850
q-83.5 -85 -91.5 -220h593q-4 138 -83.5 221.5t-206.5 83.5q-128 0 -211.5 -85z" />
    <glyph glyph-name="eacute" unicode="&#xe9;" horiz-adv-x="1084" 
d="M477 1250l211 300h198l-261 -300h-148zM197.5 936.5q132.5 151.5 350.5 151.5t344.5 -142t126.5 -387v-68h-774v-10q0 -155 87.5 -246.5t237.5 -91.5t201 63.5t63 101.5h172q-22 -138 -148 -228t-313 -90q-100 0 -191 38t-190 147t-99 359.5t132.5 402zM336.5 850
q-83.5 -85 -91.5 -220h593q-4 138 -83.5 221.5t-206.5 83.5q-128 0 -211.5 -85z" />
    <glyph glyph-name="ecircumflex" unicode="&#xea;" horiz-adv-x="1084" 
d="M890 1250h-163l-173 197h-6l-173 -197h-163l277 300h124zM197.5 936.5q132.5 151.5 350.5 151.5t344.5 -142t126.5 -387v-68h-774v-10q0 -155 87.5 -246.5t237.5 -91.5t201 63.5t63 101.5h172q-22 -138 -148 -228t-313 -90q-100 0 -191 38t-190 147t-99 359.5t132.5 402z
M336.5 850q-83.5 -85 -91.5 -220h593q-4 138 -83.5 221.5t-206.5 83.5q-128 0 -211.5 -85z" />
    <glyph glyph-name="edieresis" unicode="&#xeb;" horiz-adv-x="1084" 
d="M748 1261q-23 0 -43.5 9t-35.5 24t-24 35.5t-9 43.5t9 43.5t24 35.5t35.5 24t43.5 9t43.5 -9t35.5 -24t24 -35.5t9 -43.5t-9 -43.5t-24 -35.5t-35.5 -24t-43.5 -9zM354 1261q-23 0 -43.5 9t-35.5 24t-24 35.5t-9 43.5t9 43.5t24 35.5t35.5 24t43.5 9t43.5 -9t35.5 -24
t24 -35.5t9 -43.5t-9 -43.5t-24 -35.5t-35.5 -24t-43.5 -9zM197.5 936.5q132.5 151.5 350.5 151.5t344.5 -142t126.5 -387v-68h-774v-10q0 -155 87.5 -246.5t237.5 -91.5t201 63.5t63 101.5h172q-22 -138 -148 -228t-313 -90q-100 0 -191 38t-190 147t-99 359.5t132.5 402z
M336.5 850q-83.5 -85 -91.5 -220h593q-4 138 -83.5 221.5t-206.5 83.5q-128 0 -211.5 -85z" />
    <glyph glyph-name="igrave" unicode="&#xec;" horiz-adv-x="430" 
d="M132 1250l-261 300h198l211 -300h-148zM128 1078h174v-1078h-174v1078z" />
    <glyph glyph-name="iacute" unicode="&#xed;" horiz-adv-x="430" 
d="M141 1250l211 300h198l-261 -300h-148zM128 1078h174v-1078h-174v1078z" />
    <glyph glyph-name="icircumflex" unicode="&#xee;" horiz-adv-x="430" 
d="M554 1250h-163l-173 197h-6l-173 -197h-163l277 300h124zM128 1078h174v-1078h-174v1078z" />
    <glyph glyph-name="idieresis" unicode="&#xef;" horiz-adv-x="430" 
d="M412 1261q-23 0 -43.5 9t-35.5 24t-24 35.5t-9 43.5t9 43.5t24 35.5t35.5 24t43.5 9t43.5 -9t35.5 -24t24 -35.5t9 -43.5t-9 -43.5t-24 -35.5t-35.5 -24t-43.5 -9zM18 1261q-23 0 -43.5 9t-35.5 24t-24 35.5t-9 43.5t9 43.5t24 35.5t35.5 24t43.5 9t43.5 -9t35.5 -24
t24 -35.5t9 -43.5t-9 -43.5t-24 -35.5t-35.5 -24t-43.5 -9zM128 1078h174v-1078h-174v1078z" />
    <glyph glyph-name="eth" unicode="&#xf0;" horiz-adv-x="1140" 
d="M577 902q-72 0 -130 -27t-99.5 -77t-63.5 -121t-22 -158t22 -158t63.5 -121t99.5 -77t130 -27t131 27t100 77t63.5 121t22.5 158t-22.5 157.5t-64 120.5t-100 77.5t-130.5 27.5zM1060 571q0 -273 -129.5 -431.5t-356.5 -158.5t-358.5 144t-131.5 391t128 394t343 147
q143 0 213 -66.5t87 -102.5h15q-46 182 -182 351l-278 -90l-35 112l231 75q-59 71 -200 190h206q81 -68 145 -141l250 81l35 -112l-203 -64q221 -308 221 -719z" />
    <glyph glyph-name="ntilde" unicode="&#xf1;" horiz-adv-x="1135" 
d="M453 1410q-69 0 -69 -137h-114q0 118 46.5 184t130.5 66t152 -76t103 -76q62 0 62 138h114q0 -178 -68 -214.5t-104 -36.5t-61.5 11.5t-46.5 28t-39 36.5t-47 48t-59 28zM118 1078h164v-175h4q103 185 352 185q178 0 281 -106.5t103 -290.5v-691h-174v661
q0 133 -67 202.5t-197 69.5t-211 -84t-81 -223v-626h-174v1078z" />
    <glyph glyph-name="ograve" unicode="&#xf2;" horiz-adv-x="1124" 
d="M479 1250l-261 300h198l211 -300h-148zM562 145q75 0 134.5 27t101 77.5t63 123.5t21.5 166t-21.5 166t-63 124t-101 77.5t-134.5 26.5t-134.5 -27t-101 -77.5t-63 -123.5t-21.5 -166t22 -166t63 -123.5t100.5 -77.5t134.5 -27zM65 540q0 252 135 400t362 148t362 -148
t135 -400t-135.5 -401t-361.5 -149t-361.5 149t-135.5 401z" />
    <glyph glyph-name="oacute" unicode="&#xf3;" horiz-adv-x="1124" 
d="M488 1250l211 300h198l-261 -300h-148zM562 145q75 0 134.5 27t101 77.5t63 123.5t21.5 166t-21.5 166t-63 124t-101 77.5t-134.5 26.5t-134.5 -27t-101 -77.5t-63 -123.5t-21.5 -166t22 -166t63 -123.5t100.5 -77.5t134.5 -27zM65 540q0 252 135 400t362 148t362 -148
t135 -400t-135.5 -401t-361.5 -149t-361.5 149t-135.5 401z" />
    <glyph glyph-name="ocircumflex" unicode="&#xf4;" horiz-adv-x="1124" 
d="M901 1250h-163l-173 197h-6l-173 -197h-163l277 300h124zM562 145q75 0 134.5 27t101 77.5t63 123.5t21.5 166t-21.5 166t-63 124t-101 77.5t-134.5 26.5t-134.5 -27t-101 -77.5t-63 -123.5t-21.5 -166t22 -166t63 -123.5t100.5 -77.5t134.5 -27zM65 540q0 252 135 400
t362 148t362 -148t135 -400t-135.5 -401t-361.5 -149t-361.5 149t-135.5 401z" />
    <glyph glyph-name="otilde" unicode="&#xf5;" horiz-adv-x="1124" 
d="M445 1410q-69 0 -69 -137h-114q0 118 46.5 184t130.5 66t152 -76t103 -76q62 0 62 138h114q0 -178 -68 -214.5t-104 -36.5t-61.5 11.5t-46.5 28t-39 36.5t-47 48t-59 28zM562 145q75 0 134.5 27t101 77.5t63 123.5t21.5 166t-21.5 166t-63 124t-101 77.5t-134.5 26.5
t-134.5 -27t-101 -77.5t-63 -123.5t-21.5 -166t22 -166t63 -123.5t100.5 -77.5t134.5 -27zM65 540q0 252 135 400t362 148t362 -148t135 -400t-135.5 -401t-361.5 -149t-361.5 149t-135.5 401z" />
    <glyph glyph-name="odieresis" unicode="&#xf6;" horiz-adv-x="1124" 
d="M759 1261q-23 0 -43.5 9t-35.5 24t-24 35.5t-9 43.5t9 43.5t24 35.5t35.5 24t43.5 9t43.5 -9t35.5 -24t24 -35.5t9 -43.5t-9 -43.5t-24 -35.5t-35.5 -24t-43.5 -9zM365 1261q-23 0 -43.5 9t-35.5 24t-24 35.5t-9 43.5t9 43.5t24 35.5t35.5 24t43.5 9t43.5 -9t35.5 -24
t24 -35.5t9 -43.5t-9 -43.5t-24 -35.5t-35.5 -24t-43.5 -9zM562 145q75 0 134.5 27t101 77.5t63 123.5t21.5 166t-21.5 166t-63 124t-101 77.5t-134.5 26.5t-134.5 -27t-101 -77.5t-63 -123.5t-21.5 -166t22 -166t63 -123.5t100.5 -77.5t134.5 -27zM65 540q0 252 135 400
t362 148t362 -148t135 -400t-135.5 -401t-361.5 -149t-361.5 149t-135.5 401z" />
    <glyph glyph-name="divide" unicode="&#xf7;" horiz-adv-x="1239" 
d="M111 496v148h1017v-148h-1017zM620 88q-27 0 -50 9.5t-39.5 26t-26 39.5t-9.5 50t9.5 50t26 39.5t39.5 26t50 9.5t49.5 -9.5t39.5 -26t26.5 -39.5t9.5 -50t-9.5 -50t-26.5 -39.5t-39.5 -26t-49.5 -9.5zM620 802q-27 0 -50 9.5t-39.5 26t-26 39.5t-9.5 50t9.5 50t26 39.5
t39.5 26t50 9.5t49.5 -9.5t39.5 -26t26.5 -39.5t9.5 -50t-9.5 -50t-26.5 -39.5t-39.5 -26t-49.5 -9.5z" />
    <glyph glyph-name="oslash" unicode="&#xf8;" horiz-adv-x="1124" 
d="M916 948q143 -149 143 -405q0 -255 -135.5 -404t-361.5 -149q-141 0 -253 62l-61 -89l-104 69l66 96q-145 149 -145 406t135 405.5t362 148.5q147 0 260 -66l66 96l100 -64zM574 933q-161 0 -246.5 -103.5t-85.5 -276.5t67 -280l422 615q-71 45 -157 45zM552 145
q159 0 244.5 103.5t85.5 277.5t-65 276l-417 -616q68 -41 152 -41z" />
    <glyph glyph-name="ugrave" unicode="&#xf9;" horiz-adv-x="1135" 
d="M482 1250l-261 300h198l211 -300h-148zM496 -10q-177 0 -280 106.5t-103 290.5v691h174v-661q0 -134 67 -203t197 -69t211 84t81 223v626h174v-1078h-164v178h-4q-102 -188 -353 -188z" />
    <glyph glyph-name="uacute" unicode="&#xfa;" horiz-adv-x="1135" 
d="M491 1250l211 300h198l-261 -300h-148zM496 -10q-177 0 -280 106.5t-103 290.5v691h174v-661q0 -134 67 -203t197 -69t211 84t81 223v626h174v-1078h-164v178h-4q-102 -188 -353 -188z" />
    <glyph glyph-name="ucircumflex" unicode="&#xfb;" horiz-adv-x="1135" 
d="M904 1250h-163l-173 197h-6l-173 -197h-163l277 300h124zM496 -10q-177 0 -280 106.5t-103 290.5v691h174v-661q0 -134 67 -203t197 -69t211 84t81 223v626h174v-1078h-164v178h-4q-102 -188 -353 -188z" />
    <glyph glyph-name="udieresis" unicode="&#xfc;" horiz-adv-x="1135" 
d="M762 1261q-23 0 -43.5 9t-35.5 24t-24 35.5t-9 43.5t9 43.5t24 35.5t35.5 24t43.5 9t43.5 -9t35.5 -24t24 -35.5t9 -43.5t-9 -43.5t-24 -35.5t-35.5 -24t-43.5 -9zM368 1261q-23 0 -43.5 9t-35.5 24t-24 35.5t-9 43.5t9 43.5t24 35.5t35.5 24t43.5 9t43.5 -9t35.5 -24
t24 -35.5t9 -43.5t-9 -43.5t-24 -35.5t-35.5 -24t-43.5 -9zM496 -10q-177 0 -280 106.5t-103 290.5v691h174v-661q0 -134 67 -203t197 -69t211 84t81 223v626h174v-1078h-164v178h-4q-102 -188 -353 -188z" />
    <glyph glyph-name="yacute" unicode="&#xfd;" horiz-adv-x="1026" 
d="M440 1250l211 300h198l-261 -300h-148zM323.5 -204q44.5 39 79.5 139l21 64l-399 1079h185l302 -901h4l302 901h183l-422 -1144q-70 -188 -147.5 -256.5t-221.5 -68.5q-39 0 -76 7v147q30 -6 88 -6q57 0 101.5 39z" />
    <glyph glyph-name="thorn" unicode="&#xfe;" horiz-adv-x="1171" 
d="M928 539q0 189 -83.5 296t-231.5 107t-233 -109.5t-85 -294.5t85.5 -293.5t231.5 -108.5q149 0 232.5 107t83.5 296zM649 1097q210 0 333.5 -152t123.5 -405t-124 -406t-329 -153q-116 0 -205 47.5t-133 133.5h-15v-522h-172v1866h164v-608h16q52 94 143 146.5t198 52.5z
" />
    <glyph glyph-name="ydieresis" unicode="&#xff;" horiz-adv-x="1026" 
d="M711 1261q-23 0 -43.5 9t-35.5 24t-24 35.5t-9 43.5t9 43.5t24 35.5t35.5 24t43.5 9t43.5 -9t35.5 -24t24 -35.5t9 -43.5t-9 -43.5t-24 -35.5t-35.5 -24t-43.5 -9zM317 1261q-23 0 -43.5 9t-35.5 24t-24 35.5t-9 43.5t9 43.5t24 35.5t35.5 24t43.5 9t43.5 -9t35.5 -24
t24 -35.5t9 -43.5t-9 -43.5t-24 -35.5t-35.5 -24t-43.5 -9zM323.5 -204q44.5 39 79.5 139l21 64l-399 1079h185l302 -901h4l302 901h183l-422 -1144q-70 -188 -147.5 -256.5t-221.5 -68.5q-39 0 -76 7v147q30 -6 88 -6q57 0 101.5 39z" />
    <glyph glyph-name="Amacron" unicode="&#x100;" horiz-adv-x="1292" 
d="M963 1642h-634v106h634v-106zM412 566h468l-231 658h-6zM933 413h-574l-145 -413h-189l532 1443h178l532 -1443h-189z" />
    <glyph glyph-name="amacron" unicode="&#x101;" horiz-adv-x="1062" 
d="M843 1320h-634v106h634v-106zM420 -10q-151 0 -251 86.5t-100 228.5t103 221t301 91l302 18v90q0 101 -63.5 154.5t-196.5 53.5t-175.5 -64t-50.5 -102h-167q4 138 121.5 229.5t297.5 91.5t294 -94.5t114 -253.5v-740h-165v187h-4q-71 -139 -180.5 -168t-179.5 -29z
M775 410v87l-282 -18q-246 -16 -246 -173q0 -75 60.5 -120t144.5 -45q151 0 237 76.5t86 192.5z" />
    <glyph glyph-name="Abreve" unicode="&#x102;" horiz-adv-x="1292" 
d="M455 1849q0 -83 55 -139.5t136 -56.5t136 56.5t55 139.5h119q0 -133 -86.5 -216t-223.5 -83t-223.5 83t-86.5 216h119zM412 566h468l-231 658h-6zM933 413h-574l-145 -413h-189l532 1443h178l532 -1443h-189z" />
    <glyph glyph-name="abreve" unicode="&#x103;" horiz-adv-x="1062" 
d="M326 1550q0 -85 57 -144t142 -59t142 59t57 144h123q0 -138 -89.5 -224t-232.5 -86t-232.5 86t-89.5 224h123zM420 -10q-151 0 -251 86.5t-100 228.5t103 221t301 91l302 18v90q0 101 -63.5 154.5t-196.5 53.5t-175.5 -64t-50.5 -102h-167q4 138 121.5 229.5t297.5 91.5
t294 -94.5t114 -253.5v-740h-165v187h-4q-71 -139 -180.5 -168t-179.5 -29zM775 410v87l-282 -18q-246 -16 -246 -173q0 -75 60.5 -120t144.5 -45q151 0 237 76.5t86 192.5z" />
    <glyph glyph-name="Aogonek" unicode="&#x104;" horiz-adv-x="1292" 
d="M412 566h468l-226 644h-16zM1174 -432q-107 0 -172.5 63.5t-65.5 161.5q0 135 135 229l-138 391h-574l-145 -413h-189l532 1443h178l527 -1429q-164 -72 -164 -194q0 -53 33 -85.5t75 -32.5t61 3v-126q-39 -11 -93 -11z" />
    <glyph glyph-name="aogonek" unicode="&#x105;" horiz-adv-x="1062" 
d="M775 410v87l-282 -18q-246 -16 -246 -173q0 -75 60.5 -120t144.5 -45q151 0 237 76.5t86 192.5zM860 -432q-102 0 -166 58.5t-64 156.5q0 146 154 240v164h-4q-71 -139 -180.5 -168t-179.5 -29q-151 0 -251 86.5t-100 228.5t103 221t301 91l302 18v90q0 101 -63.5 154.5
t-196.5 53.5t-175.5 -64t-50.5 -102h-167q4 138 121.5 229.5t297.5 91.5t294 -94.5t114 -253.5v-721q-78 -35 -120 -87t-42 -109t32 -89t72 -32t58 3v-126q-39 -11 -89 -11z" />
    <glyph glyph-name="Cacute" unicode="&#x106;" horiz-adv-x="1405" 
d="M663 1552l231 299h198l-281 -299h-148zM734 -24q-299 0 -474.5 201.5t-175.5 542.5t177 544t473 203q234 0 399.5 -131t199.5 -348h-182q-34 141 -148.5 227t-268.5 86q-213 0 -339 -158.5t-126 -422.5t126.5 -421t353.5 -157t304.5 106t97.5 172h182
q-50 -215 -204 -329.5t-395 -114.5z" />
    <glyph glyph-name="cacute" unicode="&#x107;" horiz-adv-x="1060" 
d="M483 1250l211 300h198l-261 -300h-148zM553 933q-137 0 -224 -108t-87 -288t87 -286t216 -106q248 0 295 200h171q-22 -158 -145.5 -256.5t-306.5 -98.5q-224 0 -359 148.5t-135 398.5t135 400.5t341 150.5t328.5 -105.5t139.5 -255.5h-171q-26 142 -122.5 174t-162.5 32
z" />
    <glyph glyph-name="Ccircumflex" unicode="&#x108;" horiz-adv-x="1405" 
d="M805 1851l292 -299h-168l-194 201h-2l-194 -201h-168l292 299h142zM734 -24q-299 0 -474.5 201.5t-175.5 542.5t177 544t473 203q234 0 399.5 -131t199.5 -348h-182q-34 141 -148.5 227t-268.5 86q-213 0 -339 -158.5t-126 -422.5t126.5 -421t353.5 -157t304.5 106
t97.5 172h182q-50 -215 -204 -329.5t-395 -114.5z" />
    <glyph glyph-name="ccircumflex" unicode="&#x109;" horiz-adv-x="1060" 
d="M896 1250h-163l-173 197h-6l-173 -197h-163l277 300h124zM553 933q-137 0 -224 -108t-87 -288t87 -286t216 -106q248 0 295 200h171q-22 -158 -145.5 -256.5t-306.5 -98.5q-224 0 -359 148.5t-135 398.5t135 400.5t341 150.5t328.5 -105.5t139.5 -255.5h-171
q-26 142 -122.5 174t-162.5 32z" />
    <glyph glyph-name="Cdotaccent" unicode="&#x10a;" horiz-adv-x="1405" 
d="M734 1587q-25 0 -47 9.5t-38.5 26t-26 38.5t-9.5 47t9.5 47t26 38.5t38.5 26t47 9.5t47 -9.5t38.5 -26t26 -38.5t9.5 -47t-9.5 -47t-26 -38.5t-38.5 -26t-47 -9.5zM734 -24q-299 0 -474.5 201.5t-175.5 542.5t177 544t473 203q234 0 399.5 -131t199.5 -348h-182
q-34 141 -148.5 227t-268.5 86q-213 0 -339 -158.5t-126 -422.5t126.5 -421t353.5 -157t304.5 106t97.5 172h182q-50 -215 -204 -329.5t-395 -114.5z" />
    <glyph glyph-name="cdotaccent" unicode="&#x10b;" horiz-adv-x="1060" 
d="M469.5 1297.5q-36.5 36.5 -36.5 74.5q0 64 36.5 100.5t74.5 36.5q64 0 100.5 -36.5t36.5 -74.5t-10 -61t-36.5 -49.5t-77.5 -26.5t-87.5 36.5zM553 933q-137 0 -224 -108t-87 -288t87 -286t216 -106q248 0 295 200h171q-22 -158 -145.5 -256.5t-306.5 -98.5
q-224 0 -359 148.5t-135 398.5t135 400.5t341 150.5t328.5 -105.5t139.5 -255.5h-171q-26 142 -122.5 174t-162.5 32z" />
    <glyph glyph-name="Ccaron" unicode="&#x10c;" horiz-adv-x="1405" 
d="M371 1851h168l194 -201h2l194 201h168l-292 -299h-142zM734 -24q-299 0 -474.5 201.5t-175.5 542.5t177 544t473 203q234 0 399.5 -131t199.5 -348h-182q-34 141 -148.5 227t-268.5 86q-213 0 -339 -158.5t-126 -422.5t126.5 -421t353.5 -157t304.5 106t97.5 172h182
q-50 -215 -204 -329.5t-395 -114.5z" />
    <glyph glyph-name="ccaron" unicode="&#x10d;" horiz-adv-x="1060" 
d="M495 1250l-277 300h163l173 -197h6l173 197h163l-277 -300h-124zM553 933q-137 0 -224 -108t-87 -288t87 -286t216 -106q248 0 295 200h171q-22 -158 -145.5 -256.5t-306.5 -98.5q-224 0 -359 148.5t-135 398.5t135 400.5t341 150.5t328.5 -105.5t139.5 -255.5h-171
q-26 142 -122.5 174t-162.5 32z" />
    <glyph glyph-name="Dcaron" unicode="&#x10e;" horiz-adv-x="1399" 
d="M187 1849h168l194 -201h2l194 201h168l-292 -299h-142zM320 162h303q244 0 376.5 144.5t132.5 413.5q0 411 -193 486t-316 75h-303v-1119zM635 1443q320 0 500.5 -190t180.5 -531q0 -342 -180 -532t-501 -190h-495v1443h495z" />
    <glyph glyph-name="dcaron" unicode="&#x10f;" horiz-adv-x="1307" 
d="M558 933q-141 0 -228 -107.5t-87 -286.5t86.5 -286.5t228.5 -107.5q141 0 227.5 109.5t86.5 284.5t-86 284.5t-228 109.5zM527 -10q-204 0 -333 151.5t-129 397t127.5 397.5t330.5 152q116 0 205 -48t139 -137h4v603h174v-1506h-166v182h-3q-108 -192 -349 -192z
M1196 1018v488h140l-30 -488h-110z" />
    <glyph glyph-name="Dcroat" unicode="&#x110;" horiz-adv-x="1531" 
d="M714 1443q320 0 500.5 -190t180.5 -531q0 -342 -180 -532t-501 -190h-495v663h-129v163h129v617h495zM702 162q244 0 376.5 144.5t132.5 413.5q0 411 -193 486t-316 75h-303v-455h277v-163h-277v-501h303z" />
    <glyph glyph-name="dcroat" unicode="&#x111;" horiz-adv-x="1210" 
d="M1186 1287h-124v-1287h-164v172h-16q-51 -89 -140.5 -140t-199.5 -51t-193 39.5t-142 112.5t-91 176t-32 293.5t123.5 342.5t329.5 152q173 0 244 -73t94 -116h15v379h-260v124h260v153h172v-153h124v-124zM576 136q74 0 133 28t100 80t63 127t22 214.5t-85.5 248
t-231.5 108.5t-230.5 -107t-84.5 -296q0 -289 120 -346t194 -57z" />
    <glyph glyph-name="Emacron" unicode="&#x112;" horiz-adv-x="1131" 
d="M904 1642h-634v106h634v-106zM1034 0h-894v1443h894v-162h-714v-463h677v-160h-677v-496h714v-162z" />
    <glyph glyph-name="emacron" unicode="&#x113;" horiz-adv-x="1084" 
d="M868 1320h-634v106h634v-106zM197.5 936.5q132.5 151.5 350.5 151.5t344.5 -142t126.5 -387v-68h-774v-10q0 -155 87.5 -246.5t237.5 -91.5t201 63.5t63 101.5h172q-22 -138 -148 -228t-313 -90q-100 0 -191 38t-190 147t-99 359.5t132.5 402zM336.5 850
q-83.5 -85 -91.5 -220h593q-4 138 -83.5 221.5t-206.5 83.5q-128 0 -211.5 -85z" />
    <glyph glyph-name="Ebreve" unicode="&#x114;" horiz-adv-x="1131" 
d="M396 1849q0 -83 55 -139.5t136 -56.5t136 56.5t55 139.5h119q0 -133 -86.5 -216t-223.5 -83t-223.5 83t-86.5 216h119zM1034 0h-894v1443h894v-162h-714v-463h677v-160h-677v-496h714v-162z" />
    <glyph glyph-name="ebreve" unicode="&#x115;" horiz-adv-x="1084" 
d="M351 1550q0 -85 57 -144t142 -59t142 59t57 144h123q0 -138 -89.5 -224t-232.5 -86t-232.5 86t-89.5 224h123zM197.5 936.5q132.5 151.5 350.5 151.5t344.5 -142t126.5 -387v-68h-774v-10q0 -155 87.5 -246.5t237.5 -91.5t201 63.5t63 101.5h172q-22 -138 -148 -228
t-313 -90q-100 0 -191 38t-190 147t-99 359.5t132.5 402zM336.5 850q-83.5 -85 -91.5 -220h593q-4 138 -83.5 221.5t-206.5 83.5q-128 0 -211.5 -85z" />
    <glyph glyph-name="Edotaccent" unicode="&#x116;" horiz-adv-x="1131" 
d="M587 1585q-25 0 -47 9.5t-38.5 26t-26 38.5t-9.5 47t9.5 47t26 38.5t38.5 26t47 9.5t47 -9.5t38.5 -26t26 -38.5t9.5 -47t-9.5 -47t-26 -38.5t-38.5 -26t-47 -9.5zM1034 0h-894v1443h894v-162h-714v-463h677v-160h-677v-496h714v-162z" />
    <glyph glyph-name="edotaccent" unicode="&#x117;" horiz-adv-x="1084" 
d="M463.5 1297.5q-36.5 36.5 -36.5 74.5q0 64 36.5 100.5t74.5 36.5q64 0 100.5 -36.5t36.5 -74.5t-10 -61t-36.5 -49.5t-77.5 -26.5t-87.5 36.5zM197.5 936.5q132.5 151.5 350.5 151.5t344.5 -142t126.5 -387v-68h-774v-10q0 -155 87.5 -246.5t237.5 -91.5t201 63.5
t63 101.5h172q-22 -138 -148 -228t-313 -90q-100 0 -191 38t-190 147t-99 359.5t132.5 402zM336.5 850q-83.5 -85 -91.5 -220h593q-4 138 -83.5 221.5t-206.5 83.5q-128 0 -211.5 -85z" />
    <glyph glyph-name="Eogonek" unicode="&#x118;" horiz-adv-x="1131" 
d="M672 -218q0 123 122 218h-654v1443h894v-162h-714v-463h677v-160h-677v-496h714v-124q-197 -89 -197 -224q0 -51 33.5 -81.5t86.5 -30.5t77 9v-123q-33 -20 -105 -20q-125 0 -191 58.5t-66 155.5z" />
    <glyph glyph-name="eogonek" unicode="&#x119;" horiz-adv-x="1084" 
d="M336.5 850q-83.5 -85 -91.5 -220h593q-4 138 -83.5 221.5t-206.5 83.5q-128 0 -211.5 -85zM776 -432q-118 0 -182 62t-64 161q0 100 100 200v3q-28 -4 -71 -4q-227 0 -360.5 147t-133.5 397.5t132.5 402t350.5 151.5t344.5 -142t126.5 -387v-68h-774v-10
q0 -155 87.5 -246.5t237.5 -91.5t201 63.5t63 101.5h172q-19 -127 -180 -267q-139 -122 -139 -220q0 -51 32 -81t82 -30t76 9v-131q-32 -20 -101 -20z" />
    <glyph glyph-name="Ecaron" unicode="&#x11a;" horiz-adv-x="1131" 
d="M224 1849h168l194 -201h2l194 201h168l-292 -299h-142zM1034 0h-894v1443h894v-162h-714v-463h677v-160h-677v-496h714v-162z" />
    <glyph glyph-name="ecaron" unicode="&#x11b;" horiz-adv-x="1084" 
d="M489 1250l-277 300h163l173 -197h6l173 197h163l-277 -300h-124zM197.5 936.5q132.5 151.5 350.5 151.5t344.5 -142t126.5 -387v-68h-774v-10q0 -155 87.5 -246.5t237.5 -91.5t201 63.5t63 101.5h172q-22 -138 -148 -228t-313 -90q-100 0 -191 38t-190 147t-99 359.5
t132.5 402zM336.5 850q-83.5 -85 -91.5 -220h593q-4 138 -83.5 221.5t-206.5 83.5q-128 0 -211.5 -85z" />
    <glyph glyph-name="Gcircumflex" unicode="&#x11c;" horiz-adv-x="1447" 
d="M816 1849l292 -299h-168l-194 201h-2l-194 -201h-168l292 299h142zM1159 995q-95 306 -431 306q-94 0 -182.5 -39t-182.5 -151.5t-94 -382.5t127.5 -428t334.5 -158t326.5 113.5t119.5 294.5v26h-407v158h587v-137q0 -292 -161 -456.5t-457 -164.5t-475.5 204.5
t-179.5 545.5t179 541t482 200q233 0 398 -128.5t205 -343.5h-189z" />
    <glyph glyph-name="gcircumflex" unicode="&#x11d;" horiz-adv-x="1163" 
d="M894 1250h-163l-173 197h-6l-173 -197h-163l277 300h124zM576 -234q131 0 213 67.5t82 182.5v169h-4q-51 -88 -141.5 -136.5t-198.5 -48.5q-210 0 -336 149t-126 395t126 395t334 149q115 0 206 -48t145 -137h3v175h166v-1048q0 -194 -130 -304.5t-347 -110.5
q-195 0 -317 81.5t-140 215.5h181q31 -104 126.5 -125t157.5 -21zM554 155q71 0 129.5 28t100 79t64.5 122.5t23 158.5t-23 159t-64.5 123t-100 79.5t-129.5 28.5t-128 -28t-98 -79t-63 -123t-22 -160t22 -159.5t63 -122.5t98 -78.5t128 -27.5z" />
    <glyph glyph-name="Gbreve" unicode="&#x11e;" horiz-adv-x="1447" 
d="M554 1849q0 -83 55 -139.5t136 -56.5t136 56.5t55 139.5h119q0 -133 -86.5 -216t-223.5 -83t-223.5 83t-86.5 216h119zM1159 995q-95 306 -431 306q-94 0 -182.5 -39t-182.5 -151.5t-94 -382.5t127.5 -428t334.5 -158t326.5 113.5t119.5 294.5v26h-407v158h587v-137
q0 -292 -161 -456.5t-457 -164.5t-475.5 204.5t-179.5 545.5t179 541t482 200q233 0 398 -128.5t205 -343.5h-189z" />
    <glyph glyph-name="gbreve" unicode="&#x11f;" horiz-adv-x="1163" 
d="M355 1550q0 -85 57 -144t142 -59t142 59t57 144h123q0 -138 -89.5 -224t-232.5 -86t-232.5 86t-89.5 224h123zM576 -234q131 0 213 67.5t82 182.5v169h-4q-51 -88 -141.5 -136.5t-198.5 -48.5q-210 0 -336 149t-126 395t126 395t334 149q115 0 206 -48t145 -137h3v175
h166v-1048q0 -194 -130 -304.5t-347 -110.5q-195 0 -317 81.5t-140 215.5h181q31 -104 126.5 -125t157.5 -21zM554 155q71 0 129.5 28t100 79t64.5 122.5t23 158.5t-23 159t-64.5 123t-100 79.5t-129.5 28.5t-128 -28t-98 -79t-63 -123t-22 -160t22 -159.5t63 -122.5
t98 -78.5t128 -27.5z" />
    <glyph glyph-name="Gdotaccent" unicode="&#x120;" horiz-adv-x="1447" 
d="M745 1585q-25 0 -47 9.5t-38.5 26t-26 38.5t-9.5 47t9.5 47t26 38.5t38.5 26t47 9.5t47 -9.5t38.5 -26t26 -38.5t9.5 -47t-9.5 -47t-26 -38.5t-38.5 -26t-47 -9.5zM1159 995q-95 306 -431 306q-94 0 -182.5 -39t-182.5 -151.5t-94 -382.5t127.5 -428t334.5 -158
t326.5 113.5t119.5 294.5v26h-407v158h587v-137q0 -292 -161 -456.5t-457 -164.5t-475.5 204.5t-179.5 545.5t179 541t482 200q233 0 398 -128.5t205 -343.5h-189z" />
    <glyph glyph-name="gdotaccent" unicode="&#x121;" horiz-adv-x="1163" 
d="M467.5 1297.5q-36.5 36.5 -36.5 74.5q0 64 36.5 100.5t74.5 36.5q64 0 100.5 -36.5t36.5 -74.5t-10 -61t-36.5 -49.5t-77.5 -26.5t-87.5 36.5zM576 -234q131 0 213 67.5t82 182.5v169h-4q-51 -88 -141.5 -136.5t-198.5 -48.5q-210 0 -336 149t-126 395t126 395t334 149
q115 0 206 -48t145 -137h3v175h166v-1048q0 -194 -130 -304.5t-347 -110.5q-195 0 -317 81.5t-140 215.5h181q31 -104 126.5 -125t157.5 -21zM554 155q71 0 129.5 28t100 79t64.5 122.5t23 158.5t-23 159t-64.5 123t-100 79.5t-129.5 28.5t-128 -28t-98 -79t-63 -123
t-22 -160t22 -159.5t63 -122.5t98 -78.5t128 -27.5z" />
    <glyph glyph-name="Gcommaaccent" unicode="&#x122;" horiz-adv-x="1447" 
d="M604 -541l91 369h153l-118 -369h-126zM1159 995q-95 306 -431 306q-94 0 -182.5 -39t-182.5 -151.5t-94 -382.5t127.5 -428t334.5 -158t326.5 113.5t119.5 294.5v26h-407v158h587v-137q0 -292 -161 -456.5t-457 -164.5t-475.5 204.5t-179.5 545.5t179 541t482 200
q233 0 398 -128.5t205 -343.5h-189z" />
    <glyph glyph-name="gcommaaccent" unicode="&#x123;" horiz-adv-x="1163" 
d="M416 -908l91 369h153l-118 -369h-126zM576 -234q131 0 213 67.5t82 182.5v169h-4q-51 -88 -141.5 -136.5t-198.5 -48.5q-210 0 -336 149t-126 395t126 395t334 149q115 0 206 -48t145 -137h3v175h166v-1048q0 -194 -130 -304.5t-347 -110.5q-195 0 -317 81.5t-140 215.5
h181q31 -104 126.5 -125t157.5 -21zM554 155q71 0 129.5 28t100 79t64.5 122.5t23 158.5t-23 159t-64.5 123t-100 79.5t-129.5 28.5t-128 -28t-98 -79t-63 -123t-22 -160t22 -159.5t63 -122.5t98 -78.5t128 -27.5z" />
    <glyph glyph-name="Hcircumflex" unicode="&#x124;" horiz-adv-x="1432" 
d="M787 1849l292 -299h-168l-194 201h-2l-194 -201h-168l292 299h142zM1112 0v657h-792v-657h-180v1443h180v-624h792v624h180v-1443h-180z" />
    <glyph glyph-name="hcircumflex" unicode="&#x125;" horiz-adv-x="1166" 
d="M287 1912l292 -299h-168l-194 201h-2l-194 -201h-168l292 299h142zM128 1506h174v-603h4q102 185 352 185q177 0 286 -110.5t109 -289.5v-688h-174v657q0 197 -104.5 236.5t-170.5 39.5q-134 0 -218 -86t-84 -227v-620h-174v1506z" />
    <glyph glyph-name="Hbar" unicode="&#x126;" horiz-adv-x="1433" 
d="M1428 1075h-136v-1075h-180v657h-792v-657h-180v1075h-135v143h135v225h180v-225h792v225h180v-225h136v-143zM1112 1075h-792v-256h792v256z" />
    <glyph glyph-name="hbar" unicode="&#x127;" horiz-adv-x="1204" 
d="M676 1088q177 0 286 -110.5t109 -289.5v-688h-174v657q0 197 -104.5 236.5t-170.5 39.5q-134 0 -218 -86t-84 -227v-620h-174v1247h-122v124h122v185h174v-185h260v-124h-260v-344h4q102 185 352 185z" />
    <glyph glyph-name="Itilde" unicode="&#x128;" horiz-adv-x="460" 
d="M109 1687q-69 0 -69 -137h-114q0 118 46.5 184t130.5 66t152 -76t103 -76q62 0 62 138h114q0 -178 -68 -214.5t-104 -36.5t-61.5 11.5t-46.5 28t-39 36.5t-47 48t-59 28zM140 0v1443h180v-1443h-180z" />
    <glyph glyph-name="itilde" unicode="&#x129;" horiz-adv-x="430" 
d="M98 1410q-69 0 -69 -137h-114q0 118 46.5 184t130.5 66t152 -76t103 -76q62 0 62 138h114q0 -178 -68 -214.5t-104 -36.5t-61.5 11.5t-46.5 28t-39 36.5t-47 48t-59 28zM128 1078h174v-1078h-174v1078z" />
    <glyph glyph-name="Imacron" unicode="&#x12a;" horiz-adv-x="460" 
d="M547 1642h-634v106h634v-106zM140 0v1443h180v-1443h-180z" />
    <glyph glyph-name="imacron" unicode="&#x12b;" horiz-adv-x="430" 
d="M532 1320h-634v106h634v-106zM128 1078h174v-1078h-174v1078z" />
    <glyph glyph-name="Ibreve" unicode="&#x12c;" horiz-adv-x="460" 
d="M39 1849q0 -83 55 -139.5t136 -56.5t136 56.5t55 139.5h119q0 -133 -86.5 -216t-223.5 -83t-223.5 83t-86.5 216h119zM140 0v1443h180v-1443h-180z" />
    <glyph glyph-name="ibreve" unicode="&#x12d;" horiz-adv-x="430" 
d="M15 1550q0 -85 57 -144t142 -59t142 59t57 144h123q0 -138 -89.5 -224t-232.5 -86t-232.5 86t-89.5 224h123zM128 1078h174v-1078h-174v1078z" />
    <glyph glyph-name="Iogonek" unicode="&#x12e;" horiz-adv-x="460" 
d="M154 -180q0 -54 32 -86t72 -32t58 3v-126q-42 -11 -91 -11q-100 0 -164 58.5t-64 145.5q0 86 33.5 142.5t109.5 108.5v1420h180v-1430q-166 -74 -166 -193z" />
    <glyph glyph-name="iogonek" unicode="&#x12f;" horiz-adv-x="430" 
d="M210 -432q-101 0 -164.5 58.5t-63.5 156.5q0 152 146 240v1055h174v-1059q-78 -35 -120.5 -87t-42.5 -109t32 -89t72 -32t58 3v-126q-41 -11 -91 -11zM215 1252q-23 0 -43 8.5t-35 23.5t-23.5 35t-8.5 43t8.5 43t23.5 35t35 23.5t43 8.5t43 -8.5t35 -23.5t23.5 -35
t8.5 -43t-8.5 -43t-23.5 -35t-35 -23.5t-43 -8.5z" />
    <glyph glyph-name="Idotaccent" unicode="&#x130;" horiz-adv-x="460" 
d="M230 1585q-25 0 -47 9.5t-38.5 26t-26 38.5t-9.5 47t9.5 47t26 38.5t38.5 26t47 9.5t47 -9.5t38.5 -26t26 -38.5t9.5 -47t-9.5 -47t-26 -38.5t-38.5 -26t-47 -9.5zM140 0v1443h180v-1443h-180z" />
    <glyph glyph-name="dotlessi" unicode="&#x131;" horiz-adv-x="430" 
d="M128 1078h174v-1078h-174v1078z" />
    <glyph glyph-name="u0132" unicode="&#x132;" horiz-adv-x="1474" 
d="M1154 403v1040h180v-1041q0 -205 -112 -320.5t-302 -115.5t-304 104.5t-114 268.5h179q2 -91 65.5 -149t172.5 -58q110 0 172.5 69t62.5 202zM140 0v1443h180v-1443h-180z" />
    <glyph glyph-name="u0133" unicode="&#x133;" horiz-adv-x="860" 
d="M645 1252q-23 0 -43 8.5t-35 23.5t-23.5 35t-8.5 43t8.5 43t23.5 35t35 23.5t43 8.5t43 -8.5t35 -23.5t23.5 -35t8.5 -43t-8.5 -43t-23.5 -35t-35 -23.5t-43 -8.5zM732 -81q0 -164 -79.5 -240.5t-251.5 -76.5h-31v147h27q89 0 125 38t36 129v1162h174v-1159zM215 1252
q-23 0 -43 8.5t-35 23.5t-23.5 35t-8.5 43t8.5 43t23.5 35t35 23.5t43 8.5t43 -8.5t35 -23.5t23.5 -35t8.5 -43t-8.5 -43t-23.5 -35t-35 -23.5t-43 -8.5zM128 1078h174v-1078h-174v1078z" />
    <glyph glyph-name="Jcircumflex" unicode="&#x134;" horiz-adv-x="1014" 
d="M855 1849l292 -299h-168l-194 201h-2l-194 -201h-168l292 299h142zM694 403v1040h180v-1041q0 -205 -112 -320.5t-302 -115.5t-304 104.5t-114 268.5h179q2 -91 65.5 -149t172.5 -58q110 0 172.5 69t62.5 202z" />
    <glyph glyph-name="jcircumflex" unicode="&#x135;" horiz-adv-x="428" 
d="M553 1250h-163l-173 197h-6l-173 -197h-163l277 300h124zM300 -81q0 -165 -79 -241t-251 -76h-30v147h26q129 0 145.5 60.5t16.5 106.5v1162h172v-1159z" />
    <glyph glyph-name="Kcommaaccent" unicode="&#x136;" horiz-adv-x="1260" 
d="M468 -541l91 369h153l-118 -369h-126zM140 0v1443h180v-704h10l637 704h227l-593 -639l646 -804h-230l-541 676l-156 -172v-504h-180z" />
    <glyph glyph-name="kcommaaccent" unicode="&#x137;" horiz-adv-x="1026" 
d="M415 -541l91 369h153l-118 -369h-126zM302 0h-174v1506h174v-910l483 482h212l-471 -466l485 -612h-202l-405 505l-102 -96v-409z" />
    <glyph glyph-name="Lacute" unicode="&#x139;" horiz-adv-x="1074" 
d="M159 1550l231 299h198l-281 -299h-148zM1016 0h-876v1443h180v-1281h696v-162z" />
    <glyph glyph-name="lacute" unicode="&#x13a;" horiz-adv-x="430" 
d="M144 1613l231 299h198l-281 -299h-148zM128 1506h174v-1506h-174v1506z" />
    <glyph glyph-name="Lcommaaccent" unicode="&#x13b;" horiz-adv-x="1074" 
d="M437 -541l91 369h153l-118 -369h-126zM1016 0h-876v1443h180v-1281h696v-162z" />
    <glyph glyph-name="lcommaaccent" unicode="&#x13c;" horiz-adv-x="430" 
d="M74 -541l91 369h153l-118 -369h-126zM128 1506h174v-1506h-174v1506z" />
    <glyph glyph-name="Lcaron" unicode="&#x13d;" horiz-adv-x="1074" 
d="M1016 0h-876v1443h180v-1281h696v-162zM589 955v488h170l-50 -488h-120z" />
    <glyph glyph-name="lcaron" unicode="&#x13e;" horiz-adv-x="565" 
d="M128 1506h174v-1506h-174v1506zM453 1018v488h140l-30 -488h-110z" />
    <glyph glyph-name="Lslash" unicode="&#x141;" horiz-adv-x="1074" 
d="M1016 162v-162h-876v699l-122 -56v143l122 56v601h180v-519l336 153v-143l-336 -153v-619h696z" />
    <glyph glyph-name="lslash" unicode="&#x142;" horiz-adv-x="468" 
d="M302 0h-174v700l-112 -54v143l112 54v663h174v-580l142 68v-143l-142 -68v-783z" />
    <glyph glyph-name="Nacute" unicode="&#x143;" horiz-adv-x="1432" 
d="M645 1550l231 299h198l-281 -299h-148zM140 0v1443h175l790 -1133h9v1133h178v-1443h-175l-790 1129h-9v-1129h-178z" />
    <glyph glyph-name="nacute" unicode="&#x144;" horiz-adv-x="1135" 
d="M496 1250l211 300h198l-261 -300h-148zM118 1078h164v-175h4q103 185 352 185q178 0 281 -106.5t103 -290.5v-691h-174v661q0 133 -67 202.5t-197 69.5t-211 -84t-81 -223v-626h-174v1078z" />
    <glyph glyph-name="Ncommaaccent" unicode="&#x145;" horiz-adv-x="1432" 
d="M575 -541l91 369h153l-118 -369h-126zM140 0v1443h175l790 -1133h9v1133h178v-1443h-175l-790 1129h-9v-1129h-178z" />
    <glyph glyph-name="ncommaaccent" unicode="&#x146;" horiz-adv-x="1135" 
d="M429 -541l91 369h153l-118 -369h-126zM118 1078h164v-175h4q103 185 352 185q178 0 281 -106.5t103 -290.5v-691h-174v661q0 133 -67 202.5t-197 69.5t-211 -84t-81 -223v-626h-174v1078z" />
    <glyph glyph-name="Ncaron" unicode="&#x147;" horiz-adv-x="1432" 
d="M353 1849h168l194 -201h2l194 201h168l-292 -299h-142zM140 0v1443h175l790 -1133h9v1133h178v-1443h-175l-790 1129h-9v-1129h-178z" />
    <glyph glyph-name="ncaron" unicode="&#x148;" horiz-adv-x="1135" 
d="M508 1250l-277 300h163l173 -197h6l173 197h163l-277 -300h-124zM118 1078h164v-175h4q103 185 352 185q178 0 281 -106.5t103 -290.5v-691h-174v661q0 133 -67 202.5t-197 69.5t-211 -84t-81 -223v-626h-174v1078z" />
    <glyph glyph-name="Omacron" unicode="&#x14c;" horiz-adv-x="1498" 
d="M1066 1642h-634v106h634v-106zM749 1301q-111 0 -199.5 -40.5t-151 -116t-96 -183t-33.5 -240.5t33.5 -240t96 -182.5t151 -116t199.5 -40.5t199.5 40.5t151 116t96 182.5t33.5 240t-33.5 240.5t-96 183t-151 116t-199.5 40.5zM749 1467q153 0 276.5 -52t209.5 -149
t132.5 -235t46.5 -310t-46.5 -310t-132.5 -234.5t-209.5 -148.5t-276.5 -52t-276.5 52t-209.5 148.5t-132.5 234.5t-46.5 310t46.5 310t132.5 235t209.5 149t276.5 52z" />
    <glyph glyph-name="omacron" unicode="&#x14d;" horiz-adv-x="1124" 
d="M879 1320h-634v106h634v-106zM562 145q75 0 134.5 27t101 77.5t63 123.5t21.5 166t-21.5 166t-63 124t-101 77.5t-134.5 26.5t-134.5 -27t-101 -77.5t-63 -123.5t-21.5 -166t22 -166t63 -123.5t100.5 -77.5t134.5 -27zM65 540q0 252 135 400t362 148t362 -148t135 -400
t-135.5 -401t-361.5 -149t-361.5 149t-135.5 401z" />
    <glyph glyph-name="Obreve" unicode="&#x14e;" horiz-adv-x="1498" 
d="M558 1849q0 -83 55 -139.5t136 -56.5t136 56.5t55 139.5h119q0 -133 -86.5 -216t-223.5 -83t-223.5 83t-86.5 216h119zM749 1301q-111 0 -199.5 -40.5t-151 -116t-96 -183t-33.5 -240.5t33.5 -240t96 -182.5t151 -116t199.5 -40.5t199.5 40.5t151 116t96 182.5t33.5 240
t-33.5 240.5t-96 183t-151 116t-199.5 40.5zM749 1467q153 0 276.5 -52t209.5 -149t132.5 -235t46.5 -310t-46.5 -310t-132.5 -234.5t-209.5 -148.5t-276.5 -52t-276.5 52t-209.5 148.5t-132.5 234.5t-46.5 310t46.5 310t132.5 235t209.5 149t276.5 52z" />
    <glyph glyph-name="obreve" unicode="&#x14f;" horiz-adv-x="1124" 
d="M362 1550q0 -85 57 -144t142 -59t142 59t57 144h123q0 -138 -89.5 -224t-232.5 -86t-232.5 86t-89.5 224h123zM562 145q75 0 134.5 27t101 77.5t63 123.5t21.5 166t-21.5 166t-63 124t-101 77.5t-134.5 26.5t-134.5 -27t-101 -77.5t-63 -123.5t-21.5 -166t22 -166
t63 -123.5t100.5 -77.5t134.5 -27zM65 540q0 252 135 400t362 148t362 -148t135 -400t-135.5 -401t-361.5 -149t-361.5 149t-135.5 401z" />
    <glyph glyph-name="Ohungarumlaut" unicode="&#x150;" horiz-adv-x="1498" 
d="M525 1550l231 299h188l-281 -299h-138zM835 1550l231 299h188l-281 -299h-138zM749 1301q-111 0 -199.5 -40.5t-151 -116t-96 -183t-33.5 -240.5t33.5 -240t96 -182.5t151 -116t199.5 -40.5t199.5 40.5t151 116t96 182.5t33.5 240t-33.5 240.5t-96 183t-151 116
t-199.5 40.5zM749 1467q153 0 276.5 -52t209.5 -149t132.5 -235t46.5 -310t-46.5 -310t-132.5 -234.5t-209.5 -148.5t-276.5 -52t-276.5 52t-209.5 148.5t-132.5 234.5t-46.5 310t46.5 310t132.5 235t209.5 149t276.5 52z" />
    <glyph glyph-name="ohungarumlaut" unicode="&#x151;" horiz-adv-x="1124" 
d="M532 1550h195l-255 -300h-136zM848 1550h195l-255 -300h-136zM562 145q75 0 134.5 27t101 77.5t63 123.5t21.5 166t-21.5 166t-63 124t-101 77.5t-134.5 26.5t-134.5 -27t-101 -77.5t-63 -123.5t-21.5 -166t22 -166t63 -123.5t100.5 -77.5t134.5 -27zM65 540
q0 252 135 400t362 148t362 -148t135 -400t-135.5 -401t-361.5 -149t-361.5 149t-135.5 401z" />
    <glyph glyph-name="OE" unicode="&#x152;" horiz-adv-x="2216" 
d="M756 -24q-310 0 -491 200.5t-181 544t180.5 545t491.5 201.5q162 0 288 -64t201 -184v224h874v-162h-694v-463h656v-160h-656v-496h694v-162h-874v228q-116 -183 -263 -217.5t-226 -34.5zM756 1301q-112 0 -202 -40.5t-153.5 -116t-97.5 -183t-34 -240.5t34 -240
t97.5 -182.5t153.5 -116t202 -40.5t202 40.5t153 116t97 182.5t34 240t-34 240.5t-97.5 183t-153 116t-201.5 40.5z" />
    <glyph glyph-name="oe" unicode="&#x153;" horiz-adv-x="1901" 
d="M242 539q0 -93 22 -166t63 -123.5t100.5 -77.5t134.5 -27t134.5 27t101 77.5t63 123.5t21.5 166t-21.5 166t-63 124t-101 77.5t-134.5 26.5t-134.5 -27t-101 -77.5t-63 -123.5t-21.5 -166zM1153.5 850q-83.5 -85 -91.5 -220h593q-4 138 -83.5 221.5t-206.5 83.5
q-128 0 -211.5 -85zM964 203q-136 -213 -390 -213q-238 0 -373.5 149t-135.5 401t135 400t362 148q136 0 233.5 -52t168.5 -164h8q127 216 418 216q86 0 172.5 -37t180 -142t93.5 -350v-68h-774v-10q0 -155 87.5 -246.5t237.5 -91.5t201 63.5t63 101.5h172
q-22 -138 -148 -228t-289 -90q-141 0 -248 56t-166 157h-8z" />
    <glyph glyph-name="Racute" unicode="&#x154;" horiz-adv-x="1237" 
d="M464 1550l231 299h198l-281 -299h-148zM320 0h-180v1443h551q209 0 334.5 -118t125.5 -312q0 -229 -111 -311t-179 -103l334 -599h-211l-309 571h-355v-571zM320 730h355q140 0 215 71.5t75 205.5q0 197 -114 236.5t-184 39.5h-347v-553z" />
    <glyph glyph-name="racute" unicode="&#x155;" horiz-adv-x="649" 
d="M292 1250l211 300h198l-261 -300h-148zM292 667v-667h-174v1078h164v-175h4q37 131 125.5 158t132.5 27t70 -7v-172q-26 12 -85 12q-109 0 -173 -69.5t-64 -184.5z" />
    <glyph glyph-name="Rcommaaccent" unicode="&#x156;" horiz-adv-x="1237" 
d="M394 -541l91 369h153l-118 -369h-126zM320 0h-180v1443h551q209 0 334.5 -118t125.5 -312q0 -229 -111 -311t-179 -103l334 -599h-211l-309 571h-355v-571zM320 730h355q140 0 215 71.5t75 205.5q0 197 -114 236.5t-184 39.5h-347v-553z" />
    <glyph glyph-name="rcommaaccent" unicode="&#x157;" horiz-adv-x="649" 
d="M64 -541l91 369h153l-118 -369h-126zM292 667v-667h-174v1078h164v-175h4q37 131 125.5 158t132.5 27t70 -7v-172q-26 12 -85 12q-109 0 -173 -69.5t-64 -184.5z" />
    <glyph glyph-name="Rcaron" unicode="&#x158;" horiz-adv-x="1237" 
d="M172 1849h168l194 -201h2l194 201h168l-292 -299h-142zM320 0h-180v1443h551q209 0 334.5 -118t125.5 -312q0 -229 -111 -311t-179 -103l334 -599h-211l-309 571h-355v-571zM320 730h355q140 0 215 71.5t75 205.5q0 197 -114 236.5t-184 39.5h-347v-553z" />
    <glyph glyph-name="rcaron" unicode="&#x159;" horiz-adv-x="649" 
d="M304 1250l-277 300h163l173 -197h6l173 197h163l-277 -300h-124zM292 667v-667h-174v1078h164v-175h4q37 131 125.5 158t132.5 27t70 -7v-172q-26 12 -85 12q-109 0 -173 -69.5t-64 -184.5z" />
    <glyph glyph-name="Sacute" unicode="&#x15a;" horiz-adv-x="1216" 
d="M551 1550l231 299h198l-281 -299h-148zM960 375q0 99 -67 158t-212 97l-185 48q-295 74 -339.5 190.5t-44.5 198.5t37.5 157t142.5 159t325 84t361 -115t147 -297h-180q-18 177 -138.5 213.5t-225.5 36.5t-193.5 -66.5t-88.5 -159.5q0 -94 65.5 -147t210.5 -90l151 -40
q329 -82 374.5 -201t45.5 -207t-37.5 -167.5t-146 -165t-347.5 -85.5t-385.5 115.5t-158.5 305.5h181q12 -116 114 -187.5t255 -71.5q148 0 243.5 69t95.5 168z" />
    <glyph glyph-name="sacute" unicode="&#x15b;" horiz-adv-x="984" 
d="M425 1250l211 300h198l-261 -300h-148zM499 134q171 0 205 61t34 107t-38 80t-130 58l-189 49q-281 73 -281 288q0 136 112 223t282 87t280.5 -87.5t116.5 -220.5h-167q-8 76 -70 120t-136 44q-124 0 -185.5 -43.5t-61.5 -105.5q0 -63 44 -100.5t138 -60.5l164 -41
q164 -42 230 -106t66 -192t-119 -216t-300 -88t-296.5 87t-127.5 226h175q29 -169 254 -169z" />
    <glyph glyph-name="Scircumflex" unicode="&#x15c;" horiz-adv-x="1216" 
d="M693 1849l292 -299h-168l-194 201h-2l-194 -201h-168l292 299h142zM960 375q0 99 -67 158t-212 97l-185 48q-295 74 -339.5 190.5t-44.5 198.5t37.5 157t142.5 159t325 84t361 -115t147 -297h-180q-18 177 -138.5 213.5t-225.5 36.5t-193.5 -66.5t-88.5 -159.5
q0 -94 65.5 -147t210.5 -90l151 -40q329 -82 374.5 -201t45.5 -207t-37.5 -167.5t-146 -165t-347.5 -85.5t-385.5 115.5t-158.5 305.5h181q12 -116 114 -187.5t255 -71.5q148 0 243.5 69t95.5 168z" />
    <glyph glyph-name="scircumflex" unicode="&#x15d;" horiz-adv-x="984" 
d="M838 1250h-163l-173 197h-6l-173 -197h-163l277 300h124zM499 134q171 0 205 61t34 107t-38 80t-130 58l-189 49q-281 73 -281 288q0 136 112 223t282 87t280.5 -87.5t116.5 -220.5h-167q-8 76 -70 120t-136 44q-124 0 -185.5 -43.5t-61.5 -105.5q0 -63 44 -100.5
t138 -60.5l164 -41q164 -42 230 -106t66 -192t-119 -216t-300 -88t-296.5 87t-127.5 226h175q29 -169 254 -169z" />
    <glyph glyph-name="Scedilla" unicode="&#x15e;" horiz-adv-x="1216" 
d="M587 -369q120 0 120 73q0 35 -35 50.5t-115 15.5h-55v74l51 134q-209 14 -339.5 127t-142.5 292h181q12 -116 114 -187.5t252 -71.5t246 69t96 168t-67 158t-212 97l-185 48q-295 74 -339.5 190.5t-44.5 198.5t37.5 157t142.5 159t325 84t361 -115t147 -297h-180
q-18 177 -138.5 213.5t-225.5 36.5t-193.5 -66.5t-88.5 -159.5q0 -94 65.5 -147t210.5 -90l151 -40q329 -82 374.5 -200t45.5 -204q0 -178 -129 -292t-351 -128l-44 -120q209 0 209 -150q0 -76 -62 -126.5t-151 -51.5t-153 18v98q35 -15 122 -15z" />
    <glyph glyph-name="scedilla" unicode="&#x15f;" horiz-adv-x="984" 
d="M499 134q171 0 205 61t34 107t-38 80t-130 58l-189 49q-281 73 -281 288q0 136 112 223t282 87t280.5 -87.5t116.5 -220.5h-167q-8 76 -70 120t-136 44q-124 0 -185.5 -43.5t-61.5 -105.5q0 -63 44 -100.5t138 -60.5l164 -41q164 -42 230 -106t66 -185t-99.5 -206.5
t-261.5 -101.5l-49 -135q209 0 209 -150q0 -76 -62 -126.5t-151 -51.5t-153 18v98q35 -15 122 -15q120 0 120 73q0 35 -35 50.5t-115 15.5h-55v74l57 148q-157 12 -257.5 97t-112.5 214h175q29 -169 254 -169z" />
    <glyph glyph-name="Scaron" unicode="&#x160;" horiz-adv-x="1216" 
d="M259 1849h168l194 -201h2l194 201h168l-292 -299h-142zM960 375q0 99 -67 158t-212 97l-185 48q-295 74 -339.5 190.5t-44.5 198.5t37.5 157t142.5 159t325 84t361 -115t147 -297h-180q-18 177 -138.5 213.5t-225.5 36.5t-193.5 -66.5t-88.5 -159.5q0 -94 65.5 -147
t210.5 -90l151 -40q329 -82 374.5 -201t45.5 -207t-37.5 -167.5t-146 -165t-347.5 -85.5t-385.5 115.5t-158.5 305.5h181q12 -116 114 -187.5t255 -71.5q148 0 243.5 69t95.5 168z" />
    <glyph glyph-name="scaron" unicode="&#x161;" horiz-adv-x="984" 
d="M437 1250l-277 300h163l173 -197h6l173 197h163l-277 -300h-124zM499 134q171 0 205 61t34 107t-38 80t-130 58l-189 49q-281 73 -281 288q0 136 112 223t282 87t280.5 -87.5t116.5 -220.5h-167q-8 76 -70 120t-136 44q-124 0 -185.5 -43.5t-61.5 -105.5q0 -63 44 -100.5
t138 -60.5l164 -41q164 -42 230 -106t66 -192t-119 -216t-300 -88t-296.5 87t-127.5 226h175q29 -169 254 -169z" />
    <glyph glyph-name="Tcedilla" unicode="&#x162;" horiz-adv-x="1210" 
d="M586 -369q120 0 120 73q0 35 -35 50.5t-115 15.5h-55v74l60 156h-46v1281h-465v162h1110v-162h-465v-1281h-22l-52 -142q209 0 209 -150q0 -76 -62 -126.5t-151 -51.5t-153 18v98q35 -15 122 -15z" />
    <glyph glyph-name="tcedilla" unicode="&#x163;" horiz-adv-x="634" 
d="M446 -8h-14l-49 -134q209 0 209 -150q0 -76 -62 -126.5t-151 -51.5t-153 18v98q35 -15 122 -15q120 0 120 73q0 35 -35 50.5t-115 15.5h-55v74l62 163q-80 23 -115 89t-35 184v654h-150v144h150v243h174v-243h210v-144h-210v-647q0 -75 32.5 -109.5t101.5 -34.5q8 0 35 1
t40 4v-147q-36 -9 -112 -9z" />
    <glyph glyph-name="Tcaron" unicode="&#x164;" horiz-adv-x="1210" 
d="M242 1849h168l194 -201h2l194 201h168l-292 -299h-142zM515 0v1281h-465v162h1110v-162h-465v-1281h-180z" />
    <glyph glyph-name="tcaron" unicode="&#x165;" horiz-adv-x="723" 
d="M448 -8q-147 0 -210 66.5t-63 221.5v654h-150v144h150v243h174v-243h210v-144h-210v-647q0 -75 32.5 -109.5t101.5 -34.5q8 0 35 1t40 4v-147q-36 -9 -110 -9zM500 1232v488h140l-30 -488h-110z" />
    <glyph glyph-name="Tbar" unicode="&#x166;" horiz-adv-x="1250" 
d="M695 1281v-488h325v-143h-325v-650h-180v650h-285v143h285v488h-465v162h1110v-162h-465z" />
    <glyph glyph-name="tbar" unicode="&#x167;" horiz-adv-x="636" 
d="M448 -8q-147 0 -210 66.5t-63 221.5v215h-150v144h150v295h-150v144h150v243h174v-243h210v-144h-210v-295h212v-144h-212v-208q0 -75 32.5 -109.5t101.5 -34.5q8 0 35 1t40 4v-147q-36 -9 -110 -9z" />
    <glyph glyph-name="Utilde" unicode="&#x168;" horiz-adv-x="1426" 
d="M592 1687q-69 0 -69 -137h-114q0 118 46.5 184t130.5 66t152 -76t103 -76q62 0 62 138h114q0 -178 -68 -214.5t-104 -36.5t-61.5 11.5t-46.5 28t-39 36.5t-47 48t-59 28zM320 518q0 -169 105 -272.5t288.5 -103.5t288 104.5t104.5 271.5v925h180v-937q0 -236 -154.5 -383
t-418.5 -147t-418.5 147t-154.5 383v937h180v-925z" />
    <glyph glyph-name="utilde" unicode="&#x169;" horiz-adv-x="1135" 
d="M448 1410q-69 0 -69 -137h-114q0 118 46.5 184t130.5 66t152 -76t103 -76q62 0 62 138h114q0 -178 -68 -214.5t-104 -36.5t-61.5 11.5t-46.5 28t-39 36.5t-47 48t-59 28zM496 -10q-177 0 -280 106.5t-103 290.5v691h174v-661q0 -134 67 -203t197 -69t211 84t81 223v626
h174v-1078h-164v178h-4q-102 -188 -353 -188z" />
    <glyph glyph-name="Umacron" unicode="&#x16a;" horiz-adv-x="1426" 
d="M1030 1642h-634v106h634v-106zM320 518q0 -169 105 -272.5t288.5 -103.5t288 104.5t104.5 271.5v925h180v-937q0 -236 -154.5 -383t-418.5 -147t-418.5 147t-154.5 383v937h180v-925z" />
    <glyph glyph-name="umacron" unicode="&#x16b;" horiz-adv-x="1135" 
d="M882 1320h-634v106h634v-106zM496 -10q-177 0 -280 106.5t-103 290.5v691h174v-661q0 -134 67 -203t197 -69t211 84t81 223v626h174v-1078h-164v178h-4q-102 -188 -353 -188z" />
    <glyph glyph-name="Ubreve" unicode="&#x16c;" horiz-adv-x="1426" 
d="M522 1849q0 -83 55 -139.5t136 -56.5t136 56.5t55 139.5h119q0 -133 -86.5 -216t-223.5 -83t-223.5 83t-86.5 216h119zM320 518q0 -169 105 -272.5t288.5 -103.5t288 104.5t104.5 271.5v925h180v-937q0 -236 -154.5 -383t-418.5 -147t-418.5 147t-154.5 383v937h180v-925
z" />
    <glyph glyph-name="ubreve" unicode="&#x16d;" horiz-adv-x="1135" 
d="M365 1550q0 -85 57 -144t142 -59t142 59t57 144h123q0 -138 -89.5 -224t-232.5 -86t-232.5 86t-89.5 224h123zM496 -10q-177 0 -280 106.5t-103 290.5v691h174v-661q0 -134 67 -203t197 -69t211 84t81 223v626h174v-1078h-164v178h-4q-102 -188 -353 -188z" />
    <glyph glyph-name="Uring" unicode="&#x16e;" horiz-adv-x="1426" 
d="M713 1590q24 0 45 9t37 25t25 37t9 45t-9 45t-25 37t-37 25t-45 9t-45 -9t-37 -25t-25 -37t-9 -45t9 -45t25 -37t37 -25t45 -9zM713 1507q-41 0 -77 16t-63 43t-43 63t-16 77t16 77t43 63t63 43t77 16t77 -16t63 -43t43 -63t16 -77t-16 -77t-43 -63t-63 -43t-77 -16z
M320 518q0 -169 105 -272.5t288.5 -103.5t288 104.5t104.5 271.5v925h180v-937q0 -236 -154.5 -383t-418.5 -147t-418.5 147t-154.5 383v937h180v-925z" />
    <glyph glyph-name="uring" unicode="&#x16f;" horiz-adv-x="1135" 
d="M565 1267q24 0 45 9t37 25t25 37t9 45t-9 45t-25 37t-37 25t-45 9t-45 -9t-37 -25t-25 -37t-9 -45t9 -45t25 -37t37 -25t45 -9zM565 1184q-41 0 -77 16t-63 43t-43 63t-16 77t16 77t43 63t63 43t77 16t77 -16t63 -43t43 -63t16 -77t-16 -77t-43 -63t-63 -43t-77 -16z
M496 -10q-177 0 -280 106.5t-103 290.5v691h174v-661q0 -134 67 -203t197 -69t211 84t81 223v626h174v-1078h-164v178h-4q-102 -188 -353 -188z" />
    <glyph glyph-name="Uhungarumlaut" unicode="&#x170;" horiz-adv-x="1426" 
d="M489 1550l231 299h188l-281 -299h-138zM799 1550l231 299h188l-281 -299h-138zM320 518q0 -169 105 -272.5t288.5 -103.5t288 104.5t104.5 271.5v925h180v-937q0 -236 -154.5 -383t-418.5 -147t-418.5 147t-154.5 383v937h180v-925z" />
    <glyph glyph-name="uhungarumlaut" unicode="&#x171;" horiz-adv-x="1135" 
d="M535 1550h195l-255 -300h-136zM851 1550h195l-255 -300h-136zM496 -10q-177 0 -280 106.5t-103 290.5v691h174v-661q0 -134 67 -203t197 -69t211 84t81 223v626h174v-1078h-164v178h-4q-102 -188 -353 -188z" />
    <glyph glyph-name="Uogonek" unicode="&#x172;" horiz-adv-x="1426" 
d="M979 -432q-109 0 -176 59t-67 164q0 106 98 202v4q-62 -21 -156 -21t-200 38t-222 144.5t-116 347.5v937h180v-925q0 -171 106.5 -273.5t286.5 -102.5t286.5 102.5t106.5 273.5v925h180v-937q0 -209 -87 -308.5t-152 -154.5t-109.5 -104.5t-44.5 -109.5q0 -61 36 -93.5
t78 -32.5q43 0 76 6v-124q-45 -17 -104 -17z" />
    <glyph glyph-name="uogonek" unicode="&#x173;" horiz-adv-x="1135" 
d="M496 -10q-177 0 -280 106.5t-103 290.5v691h174v-661q0 -134 67 -203t197 -69t211 84t81 223v626h174v-1059q-78 -35 -120 -87t-42 -109t32 -89t72 -32t58 3v-126q-41 -11 -91 -11q-101 0 -164.5 58.5t-63.5 156.5q0 146 155 240v155h-4q-102 -188 -353 -188z" />
    <glyph glyph-name="Wcircumflex" unicode="&#x174;" horiz-adv-x="1892" 
d="M1017 1849l292 -299h-168l-194 201h-2l-194 -201h-168l292 299h142zM608 0h-170l-393 1443h188l289 -1178h8l325 1178h182l325 -1178h8l289 1178h188l-393 -1443h-170l-333 1145h-10z" />
    <glyph glyph-name="wcircumflex" unicode="&#x175;" horiz-adv-x="1512" 
d="M1095 1250h-163l-173 197h-6l-173 -197h-163l277 300h124zM1180 0h-176l-246 838h-4l-246 -838h-176l-302 1078h172l219 -881h4l247 881h168l247 -881h4l219 881h172z" />
    <glyph glyph-name="Ycircumflex" unicode="&#x176;" horiz-adv-x="1254" 
d="M698 1849l292 -299h-168l-194 201h-2l-194 -201h-168l292 299h142zM537 0v621l-512 822h205l394 -648h6l394 648h205l-512 -822v-621h-180z" />
    <glyph glyph-name="ycircumflex" unicode="&#x177;" horiz-adv-x="1026" 
d="M853 1250h-163l-173 197h-6l-173 -197h-163l277 300h124zM323.5 -204q44.5 39 79.5 139l21 64l-399 1079h185l302 -901h4l302 901h183l-422 -1144q-70 -188 -147.5 -256.5t-221.5 -68.5q-39 0 -76 7v147q30 -6 88 -6q57 0 101.5 39z" />
    <glyph glyph-name="Ydieresis" unicode="&#x178;" horiz-adv-x="1254" 
d="M824 1585q-23 0 -43.5 9t-35.5 24t-24 35.5t-9 43.5t9 43.5t24 35.5t35.5 24t43.5 9t43.5 -9t35.5 -24t24 -35.5t9 -43.5t-9 -43.5t-24 -35.5t-35.5 -24t-43.5 -9zM430 1585q-23 0 -43.5 9t-35.5 24t-24 35.5t-9 43.5t9 43.5t24 35.5t35.5 24t43.5 9t43.5 -9t35.5 -24
t24 -35.5t9 -43.5t-9 -43.5t-24 -35.5t-35.5 -24t-43.5 -9zM537 0v621l-512 822h205l394 -648h6l394 648h205l-512 -822v-621h-180z" />
    <glyph glyph-name="Zacute" unicode="&#x179;" horiz-adv-x="1263" 
d="M561 1550l231 299h198l-281 -299h-148zM921 1281h-795v162h1022v-128l-819 -1146v-7h836v-162h-1067v128l823 1146v7z" />
    <glyph glyph-name="zacute" unicode="&#x17a;" horiz-adv-x="990" 
d="M421 1250l211 300h198l-261 -300h-148zM696 934h-600v144h796v-129l-597 -802v-3h600v-144h-800v126l601 805v3z" />
    <glyph glyph-name="Zdotaccent" unicode="&#x17b;" horiz-adv-x="1263" 
d="M632 1585q-25 0 -47 9.5t-38.5 26t-26 38.5t-9.5 47t9.5 47t26 38.5t38.5 26t47 9.5t47 -9.5t38.5 -26t26 -38.5t9.5 -47t-9.5 -47t-26 -38.5t-38.5 -26t-47 -9.5zM921 1281h-795v162h1022v-128l-819 -1146v-7h836v-162h-1067v128l823 1146v7z" />
    <glyph glyph-name="zdotaccent" unicode="&#x17c;" horiz-adv-x="990" 
d="M407.5 1297.5q-36.5 36.5 -36.5 74.5q0 64 36.5 100.5t74.5 36.5q64 0 100.5 -36.5t36.5 -74.5t-10 -61t-36.5 -49.5t-77.5 -26.5t-87.5 36.5zM696 934h-600v144h796v-129l-597 -802v-3h600v-144h-800v126l601 805v3z" />
    <glyph glyph-name="Zcaron" unicode="&#x17d;" horiz-adv-x="1263" 
d="M269 1849h168l194 -201h2l194 201h168l-292 -299h-142zM921 1281h-795v162h1022v-128l-819 -1146v-7h836v-162h-1067v128l823 1146v7z" />
    <glyph glyph-name="zcaron" unicode="&#x17e;" horiz-adv-x="990" 
d="M433 1250l-277 300h163l173 -197h6l173 197h163l-277 -300h-124zM696 934h-600v144h796v-129l-597 -802v-3h600v-144h-800v126l601 805v3z" />
    <glyph glyph-name="florin" unicode="&#x192;" horiz-adv-x="1239" 
d="M1095 874v-144h-389l-56 -388q-26 -186 -123.5 -276t-271.5 -90q-122 0 -218 47v167q87 -55 200 -55q112 0 168.5 53t73.5 174l53 368h-336v144h357l34 237q53 356 404 356q126 0 212 -41v-157q-88 42 -197 42t-170 -50.5t-77 -160.5l-32 -226h368z" />
    <glyph glyph-name="Ohorn" unicode="&#x1a0;" horiz-adv-x="1533" 
d="M1414 721q0 -344 -179 -544.5t-486 -200.5t-486 200.5t-179 544t178.5 545t486.5 201.5q172 0 292 -69.5t155 -83.5t70 -14q107 0 107 173v156h159v-204q0 -121 -46 -189.5t-127 -68.5q-41 0 -59 11l-3 -3q117 -220 117 -454zM749 1301q-111 0 -199.5 -40.5t-151 -116
t-96 -183t-33.5 -240.5t33.5 -240t96 -182.5t151 -116t199.5 -40.5t199.5 40.5t151 116t96 182.5t33.5 240t-33.5 240.5t-96 183t-151 116t-199.5 40.5z" />
    <glyph glyph-name="ohorn" unicode="&#x1a1;" horiz-adv-x="1252" 
d="M1059 552q0 -138 -35 -239.5t-100 -173t-156.5 -110.5t-261.5 -39t-305.5 149t-135.5 401t135 400t362 148q110 0 175.5 -28t138 -72.5t123.5 -44.5q103 0 103 173v156h159v-204q0 -117 -68.5 -191t-178.5 -74h-4q49 -113 49 -251zM562 145q75 0 134.5 27t101 77.5
t63 123.5t21.5 166t-21.5 166t-63 124t-101 77.5t-134.5 26.5t-134.5 -27t-101 -77.5t-63 -123.5t-21.5 -166t22 -166t63 -123.5t100.5 -77.5t134.5 -27z" />
    <glyph glyph-name="Uhorn" unicode="&#x1af;" horiz-adv-x="1659" 
d="M1409 1151q-68 0 -123 44v-689q0 -241 -157.5 -385.5t-415.5 -144.5t-415.5 144.5t-157.5 385.5v937h180v-925q0 -171 106.5 -273.5t286.5 -102.5t286.5 102.5t106.5 273.5v925h180v-109q40 -43 104 -43t92 40t28 133v156h159v-204q0 -117 -68.5 -191t-191.5 -74z" />
    <glyph glyph-name="uhorn" unicode="&#x1b0;" horiz-adv-x="1427" 
d="M496 -10q-177 0 -280 106.5t-103 290.5v691h174v-661q0 -133 67 -202.5t197 -69.5t211 84t81 223v626h174v-100q38 -35 99 -35t89 40t28 133v156h159v-204q0 -117 -68.5 -191t-161.5 -74t-145 38v-841h-164v178h-4q-102 -188 -353 -188z" />
    <glyph glyph-name="u01C4" unicode="&#x1c4;" horiz-adv-x="2662" 
d="M1668 1849h168l194 -201h2l194 201h168l-292 -299h-142zM2320 1281h-795v162h1022v-128l-819 -1146v-7h836v-162h-1067v128l823 1146v7zM320 162h303q244 0 376.5 144.5t132.5 413.5q0 411 -193 486t-316 75h-303v-1119zM635 1443q320 0 500.5 -190t180.5 -531
q0 -342 -180 -532t-501 -190h-495v1443h495z" />
    <glyph glyph-name="u01C5" unicode="&#x1c5;" horiz-adv-x="2389" 
d="M1832 1250l-277 300h163l173 -197h6l173 197h163l-277 -300h-124zM2095 934h-600v144h796v-129l-597 -802v-3h600v-144h-800v126l601 805v3zM320 162h303q244 0 376.5 144.5t132.5 413.5q0 411 -193 486t-316 75h-303v-1119zM635 1443q320 0 500.5 -190t180.5 -531
q0 -342 -180 -532t-501 -190h-495v1443h495z" />
    <glyph glyph-name="u01C6" unicode="&#x1c6;" horiz-adv-x="2163" 
d="M1606 1250l-277 300h163l173 -197h6l173 197h163l-277 -300h-124zM1869 934h-600v144h796v-129l-597 -802v-3h600v-144h-800v126l601 805v3zM558 933q-141 0 -228 -107.5t-87 -286.5t86.5 -286.5t228.5 -107.5q141 0 227.5 109.5t86.5 284.5t-86 284.5t-228 109.5z
M527 -10q-204 0 -333 151.5t-129 397t127.5 397.5t330.5 152q116 0 205 -48t139 -137h4v603h174v-1506h-166v182h-3q-108 -192 -349 -192z" />
    <glyph glyph-name="u01C7" unicode="&#x1c7;" horiz-adv-x="2088" 
d="M1768 403v1040h180v-1041q0 -205 -112 -320.5t-302 -115.5t-304 104.5t-114 268.5h179q2 -91 65.5 -149t172.5 -58q110 0 172.5 69t62.5 202zM1016 0h-876v1443h180v-1281h696v-162z" />
    <glyph glyph-name="u01C8" unicode="&#x1c8;" horiz-adv-x="1504" 
d="M1289 1252q-23 0 -43 8.5t-35 23.5t-23.5 35t-8.5 43t8.5 43t23.5 35t35 23.5t43 8.5t43 -8.5t35 -23.5t23.5 -35t8.5 -43t-8.5 -43t-23.5 -35t-35 -23.5t-43 -8.5zM1376 -81q0 -164 -79.5 -240.5t-251.5 -76.5h-31v147h27q89 0 125 38t36 129v1162h174v-1159zM1016 0
h-876v1443h180v-1281h696v-162z" />
    <glyph glyph-name="u01C9" unicode="&#x1c9;" horiz-adv-x="860" 
d="M645 1252q-23 0 -43 8.5t-35 23.5t-23.5 35t-8.5 43t8.5 43t23.5 35t35 23.5t43 8.5t43 -8.5t35 -23.5t23.5 -35t8.5 -43t-8.5 -43t-23.5 -35t-35 -23.5t-43 -8.5zM732 -81q0 -164 -79.5 -240.5t-251.5 -76.5h-31v147h27q89 0 125 38t36 129v1162h174v-1159zM128 1506
h174v-1506h-174v1506z" />
    <glyph glyph-name="u01CA" unicode="&#x1ca;" horiz-adv-x="2446" 
d="M2126 403v1040h180v-1041q0 -205 -112 -320.5t-302 -115.5t-304 104.5t-114 268.5h179q2 -91 65.5 -149t172.5 -58q110 0 172.5 69t62.5 202zM140 0v1443h175l790 -1133h9v1133h178v-1443h-175l-790 1129h-9v-1129h-178z" />
    <glyph glyph-name="u01CB" unicode="&#x1cb;" horiz-adv-x="1862" 
d="M1647 1252q-23 0 -43 8.5t-35 23.5t-23.5 35t-8.5 43t8.5 43t23.5 35t35 23.5t43 8.5t43 -8.5t35 -23.5t23.5 -35t8.5 -43t-8.5 -43t-23.5 -35t-35 -23.5t-43 -8.5zM1734 -81q0 -164 -79.5 -240.5t-251.5 -76.5h-31v147h27q89 0 125 38t36 129v1162h174v-1159zM140 0
v1443h175l790 -1133h9v1133h178v-1443h-175l-790 1129h-9v-1129h-178z" />
    <glyph glyph-name="u01CC" unicode="&#x1cc;" horiz-adv-x="1565" 
d="M1350 1252q-23 0 -43 8.5t-35 23.5t-23.5 35t-8.5 43t8.5 43t23.5 35t35 23.5t43 8.5t43 -8.5t35 -23.5t23.5 -35t8.5 -43t-8.5 -43t-23.5 -35t-35 -23.5t-43 -8.5zM1437 -81q0 -164 -79.5 -240.5t-251.5 -76.5h-31v147h27q89 0 125 38t36 129v1162h174v-1159zM118 1078
h164v-175h4q103 185 352 185q178 0 281 -106.5t103 -290.5v-691h-174v661q0 133 -67 202.5t-197 69.5t-211 -84t-81 -223v-626h-174v1078z" />
    <glyph glyph-name="Acaron" unicode="&#x1cd;" horiz-adv-x="1292" 
d="M283 1849h168l194 -201h2l194 201h168l-292 -299h-142zM412 566h468l-231 658h-6zM933 413h-574l-145 -413h-189l532 1443h178l532 -1443h-189z" />
    <glyph glyph-name="acaron" unicode="&#x1ce;" horiz-adv-x="1062" 
d="M464 1250l-277 300h163l173 -197h6l173 197h163l-277 -300h-124zM420 -10q-151 0 -251 86.5t-100 228.5t103 221t301 91l302 18v90q0 101 -63.5 154.5t-196.5 53.5t-175.5 -64t-50.5 -102h-167q4 138 121.5 229.5t297.5 91.5t294 -94.5t114 -253.5v-740h-165v187h-4
q-71 -139 -180.5 -168t-179.5 -29zM775 410v87l-282 -18q-246 -16 -246 -173q0 -75 60.5 -120t144.5 -45q151 0 237 76.5t86 192.5z" />
    <glyph glyph-name="Icaron" unicode="&#x1cf;" horiz-adv-x="460" 
d="M-133 1849h168l194 -201h2l194 201h168l-292 -299h-142zM140 0v1443h180v-1443h-180z" />
    <glyph glyph-name="icaron" unicode="&#x1d0;" horiz-adv-x="430" 
d="M153 1250l-277 300h163l173 -197h6l173 197h163l-277 -300h-124zM128 1078h174v-1078h-174v1078z" />
    <glyph glyph-name="Ocaron" unicode="&#x1d1;" horiz-adv-x="1498" 
d="M386 1849h168l194 -201h2l194 201h168l-292 -299h-142zM749 1301q-111 0 -199.5 -40.5t-151 -116t-96 -183t-33.5 -240.5t33.5 -240t96 -182.5t151 -116t199.5 -40.5t199.5 40.5t151 116t96 182.5t33.5 240t-33.5 240.5t-96 183t-151 116t-199.5 40.5zM749 1467
q153 0 276.5 -52t209.5 -149t132.5 -235t46.5 -310t-46.5 -310t-132.5 -234.5t-209.5 -148.5t-276.5 -52t-276.5 52t-209.5 148.5t-132.5 234.5t-46.5 310t46.5 310t132.5 235t209.5 149t276.5 52z" />
    <glyph glyph-name="ocaron" unicode="&#x1d2;" horiz-adv-x="1124" 
d="M500 1250l-277 300h163l173 -197h6l173 197h163l-277 -300h-124zM562 145q75 0 134.5 27t101 77.5t63 123.5t21.5 166t-21.5 166t-63 124t-101 77.5t-134.5 26.5t-134.5 -27t-101 -77.5t-63 -123.5t-21.5 -166t22 -166t63 -123.5t100.5 -77.5t134.5 -27zM65 540
q0 252 135 400t362 148t362 -148t135 -400t-135.5 -401t-361.5 -149t-361.5 149t-135.5 401z" />
    <glyph glyph-name="Ucaron" unicode="&#x1d3;" horiz-adv-x="1426" 
d="M350 1849h168l194 -201h2l194 201h168l-292 -299h-142zM320 518q0 -169 105 -272.5t288.5 -103.5t288 104.5t104.5 271.5v925h180v-937q0 -236 -154.5 -383t-418.5 -147t-418.5 147t-154.5 383v937h180v-925z" />
    <glyph glyph-name="ucaron" unicode="&#x1d4;" horiz-adv-x="1135" 
d="M503 1250l-277 300h163l173 -197h6l173 197h163l-277 -300h-124zM496 -10q-177 0 -280 106.5t-103 290.5v691h174v-661q0 -134 67 -203t197 -69t211 84t81 223v626h174v-1078h-164v178h-4q-102 -188 -353 -188z" />
    <glyph glyph-name="Udieresismacron" unicode="&#x1d5;" horiz-adv-x="1426" 
d="M969 1761q29 -29 29 -71t-28.5 -70t-59.5 -28q-51 0 -80 29t-29 59t8 48.5t29.5 40t61.5 21.5t69 -29zM1030 2025v-106h-634v106h634zM595.5 1760q29.5 -30 29.5 -60q0 -50 -29 -79t-70 -29t-69.5 28.5t-28.5 59.5t7.5 49t29 39.5t61.5 21.5t69.5 -30zM320 518
q0 -169 105 -272.5t288.5 -103.5t288 104.5t104.5 271.5v925h180v-937q0 -236 -154.5 -383t-418.5 -147t-418.5 147t-154.5 383v937h180v-925z" />
    <glyph glyph-name="udieresismacron" unicode="&#x1d6;" horiz-adv-x="1135" 
d="M882 1658h-634v106h634v-106zM762 1261q-22 0 -41.5 8.5t-34 23t-23 34t-8.5 41.5t8.5 42t23 34t34 22.5t41.5 8.5t42 -8.5t34 -22.5t22.5 -34t8.5 -42t-8.5 -41.5t-22.5 -34t-34 -23t-42 -8.5zM368 1261q-22 0 -41.5 8.5t-34 23t-23 34t-8.5 41.5t8.5 42t23 34t34 22.5
t41.5 8.5t42 -8.5t34 -22.5t22.5 -34t8.5 -42t-8.5 -41.5t-22.5 -34t-34 -23t-42 -8.5zM496 -10q-177 0 -280 106.5t-103 290.5v691h174v-661q0 -134 67 -203t197 -69t211 84t81 223v626h174v-1078h-164v178h-4q-102 -188 -353 -188z" />
    <glyph glyph-name="Udieresisacute" unicode="&#x1d7;" horiz-adv-x="1426" 
d="M830 1621q-29 29 -29 59q0 50 29.5 80t59.5 30q50 0 79 -29t29 -71t-28.5 -70t-69.5 -28t-70 29zM516 1592q-31 0 -59.5 28.5t-28.5 59.5q0 52 29 81t59 29q50 0 79.5 -30t29.5 -60t-8 -48t-21.5 -31.5t-31 -21t-48.5 -7.5zM830 2053h187l-236 -204h-136zM320 518
q0 -169 105 -272.5t288.5 -103.5t288 104.5t104.5 271.5v925h180v-937q0 -236 -154.5 -383t-418.5 -147t-418.5 147t-154.5 383v937h180v-925z" />
    <glyph glyph-name="udieresisacute" unicode="&#x1d8;" horiz-adv-x="1135" 
d="M762 1261q-23 0 -43.5 9t-35.5 24t-24 35.5t-9 43.5t9 43.5t24 35.5t35.5 24t43.5 9t43.5 -9t35.5 -24t24 -35.5t9 -43.5t-9 -43.5t-24 -35.5t-35.5 -24t-43.5 -9zM368 1261q-23 0 -43.5 9t-35.5 24t-24 35.5t-9 43.5t9 43.5t24 35.5t35.5 24t43.5 9t43.5 -9t35.5 -24
t24 -35.5t9 -43.5t-9 -43.5t-24 -35.5t-35.5 -24t-43.5 -9zM651 1849h188l-199 -257h-150zM496 -10q-177 0 -280 106.5t-103 290.5v691h174v-661q0 -134 67 -203t197 -69t211 84t81 223v626h174v-1078h-164v178h-4q-102 -188 -353 -188z" />
    <glyph glyph-name="Udieresiscaron" unicode="&#x1d9;" horiz-adv-x="1426" 
d="M969 1761q29 -29 29 -71t-28.5 -70t-59.5 -28q-51 0 -80 29t-29 59t8 48.5t29.5 40t61.5 21.5t69 -29zM595.5 1760q29.5 -30 29.5 -60q0 -50 -29 -79t-70 -29t-69.5 28.5t-28.5 59.5t7.5 49t29 39.5t61.5 21.5t69.5 -30zM369 2053h183l154 -119h14l154 119h183l-267 -204
h-154zM320 518q0 -169 105 -272.5t288.5 -103.5t288 104.5t104.5 271.5v925h180v-937q0 -236 -154.5 -383t-418.5 -147t-418.5 147t-154.5 383v937h180v-925z" />
    <glyph glyph-name="udieresiscaron" unicode="&#x1da;" horiz-adv-x="1135" 
d="M480 1592l-261 257h161l182 -180h6l182 180h161l-261 -257h-170zM762 1261q-23 0 -43.5 9t-35.5 24t-24 35.5t-9 43.5t9 43.5t24 35.5t35.5 24t43.5 9t43.5 -9t35.5 -24t24 -35.5t9 -43.5t-9 -43.5t-24 -35.5t-35.5 -24t-43.5 -9zM368 1261q-23 0 -43.5 9t-35.5 24
t-24 35.5t-9 43.5t9 43.5t24 35.5t35.5 24t43.5 9t43.5 -9t35.5 -24t24 -35.5t9 -43.5t-9 -43.5t-24 -35.5t-35.5 -24t-43.5 -9zM496 -10q-177 0 -280 106.5t-103 290.5v691h174v-661q0 -134 67 -203t197 -69t211 84t81 223v626h174v-1078h-164v178h-4q-102 -188 -353 -188z
" />
    <glyph glyph-name="Udieresisgrave" unicode="&#x1db;" horiz-adv-x="1426" 
d="M830 1621q-29 29 -29 59q0 50 29.5 80t59.5 30q50 0 79 -29t29 -71t-28.5 -70t-69.5 -28t-70 29zM516 1592q-31 0 -59.5 28.5t-28.5 59.5q0 52 29 81t59 29q50 0 79.5 -30t29.5 -60t-8 -48t-21.5 -31.5t-31 -21t-48.5 -7.5zM645 1849l-236 204h187l185 -204h-136z
M320 518q0 -169 105 -272.5t288.5 -103.5t288 104.5t104.5 271.5v925h180v-937q0 -236 -154.5 -383t-418.5 -147t-418.5 147t-154.5 383v937h180v-925z" />
    <glyph glyph-name="udieresisgrave" unicode="&#x1dc;" horiz-adv-x="1135" 
d="M762 1261q-23 0 -43.5 9t-35.5 24t-24 35.5t-9 43.5t9 43.5t24 35.5t35.5 24t43.5 9t43.5 -9t35.5 -24t24 -35.5t9 -43.5t-9 -43.5t-24 -35.5t-35.5 -24t-43.5 -9zM368 1261q-23 0 -43.5 9t-35.5 24t-24 35.5t-9 43.5t9 43.5t24 35.5t35.5 24t43.5 9t43.5 -9t35.5 -24
t24 -35.5t9 -43.5t-9 -43.5t-24 -35.5t-35.5 -24t-43.5 -9zM490 1592l-199 257h188l161 -257h-150zM496 -10q-177 0 -280 106.5t-103 290.5v691h174v-661q0 -134 67 -203t197 -69t211 84t81 223v626h174v-1078h-164v178h-4q-102 -188 -353 -188z" />
    <glyph glyph-name="Adieresismacron" unicode="&#x1de;" horiz-adv-x="1292" 
d="M902 1761q29 -29 29 -71t-28.5 -70t-59.5 -28q-51 0 -80 29t-29 59t8 48.5t29.5 40t61.5 21.5t69 -29zM963 2025v-106h-634v106h634zM528.5 1760q29.5 -30 29.5 -60q0 -50 -29 -79t-70 -29t-69.5 28.5t-28.5 59.5t7.5 49t29 39.5t61.5 21.5t69.5 -30zM412 566h468
l-231 658h-6zM933 413h-574l-145 -413h-189l532 1443h178l532 -1443h-189z" />
    <glyph glyph-name="adieresismacron" unicode="&#x1df;" horiz-adv-x="1062" 
d="M843 1658h-634v106h634v-106zM723 1261q-22 0 -41.5 8.5t-34 23t-23 34t-8.5 41.5t8.5 42t23 34t34 22.5t41.5 8.5t42 -8.5t34 -22.5t22.5 -34t8.5 -42t-8.5 -41.5t-22.5 -34t-34 -23t-42 -8.5zM329 1261q-22 0 -41.5 8.5t-34 23t-23 34t-8.5 41.5t8.5 42t23 34t34 22.5
t41.5 8.5t42 -8.5t34 -22.5t22.5 -34t8.5 -42t-8.5 -41.5t-22.5 -34t-34 -23t-42 -8.5zM420 -10q-151 0 -251 86.5t-100 228.5t103 221t301 91l302 18v90q0 101 -63.5 154.5t-196.5 53.5t-175.5 -64t-50.5 -102h-167q4 138 121.5 229.5t297.5 91.5t294 -94.5t114 -253.5
v-740h-165v187h-4q-71 -139 -180.5 -168t-179.5 -29zM775 410v87l-282 -18q-246 -16 -246 -173q0 -75 60.5 -120t144.5 -45q151 0 237 76.5t86 192.5z" />
    <glyph glyph-name="Adotmacron" unicode="&#x1e0;" horiz-adv-x="1292" 
d="M963 1919h-634v106h634v-106zM646 1574q-24 0 -45.5 9t-37.5 25t-25 37.5t-9 45.5t9 44.5t25 36.5t37.5 25t45.5 9t45.5 -9t37.5 -25t25 -36.5t9 -44.5t-9 -45.5t-25 -37.5t-37.5 -25t-45.5 -9zM412 566h468l-231 658h-6zM933 413h-574l-145 -413h-189l532 1443h178
l532 -1443h-189z" />
    <glyph glyph-name="adotmacron" unicode="&#x1e1;" horiz-adv-x="1062" 
d="M843 1658h-634v106h634v-106zM526 1261q-50 0 -86 35.5t-36 73.5t10 60t26.5 38.5t38.5 26.5t59 10t73.5 -36.5t36.5 -74.5t-10 -59.5t-36 -47.5t-76 -26zM420 -10q-151 0 -251 86.5t-100 228.5t103 221t301 91l302 18v90q0 101 -63.5 154.5t-196.5 53.5t-175.5 -64
t-50.5 -102h-167q4 138 121.5 229.5t297.5 91.5t294 -94.5t114 -253.5v-740h-165v187h-4q-71 -139 -180.5 -168t-179.5 -29zM775 410v87l-282 -18q-246 -16 -246 -173q0 -75 60.5 -120t144.5 -45q151 0 237 76.5t86 192.5z" />
    <glyph glyph-name="AEmacron" unicode="&#x1e2;" horiz-adv-x="1973" 
d="M1716 1642h-634v106h634v-106zM962 459h-555l-217 -459h-185l687 1443h1144v-162h-694v-473h657v-160h-657v-486h694v-162h-874v459zM962 612v680h-160l-322 -680h482z" />
    <glyph glyph-name="aemacron" unicode="&#x1e3;" horiz-adv-x="1769" 
d="M1207 1320h-634v106h634v-106zM470 141q124 0 214 77.5t90 191.5v81l-285 -15q-118 -6 -180 -49.5t-62 -120.5q0 -117 82.5 -141t140.5 -24zM1248 935q-126 0 -209 -84t-91 -221h575q-6 218 -109.5 261.5t-165.5 43.5zM1704 559v-67h-756v-11q0 -155 86 -246.5t229 -91.5
q98 0 165 43.5t91 121.5h172q-24 -142 -143 -230t-271 -88q-293 0 -404 223h-10q-134 -223 -406 -223q-178 0 -283 85.5t-105 226.5t103.5 221.5t298.5 90.5l303 15v77q0 101 -70.5 164t-179.5 63t-172 -44.5t-70 -121.5h-171q8 140 119.5 230.5t302.5 90.5t262.5 -81
t91.5 -132h9q112 213 366 213q204 0 323 -143t119 -386z" />
    <glyph glyph-name="Gcaron" unicode="&#x1e6;" horiz-adv-x="1447" 
d="M382 1849h168l194 -201h2l194 201h168l-292 -299h-142zM1159 995q-95 306 -431 306q-94 0 -182.5 -39t-182.5 -151.5t-94 -382.5t127.5 -428t334.5 -158t326.5 113.5t119.5 294.5v26h-407v158h587v-137q0 -292 -161 -456.5t-457 -164.5t-475.5 204.5t-179.5 545.5
t179 541t482 200q233 0 398 -128.5t205 -343.5h-189z" />
    <glyph glyph-name="gcaron" unicode="&#x1e7;" horiz-adv-x="1163" 
d="M493 1250l-277 300h163l173 -197h6l173 197h163l-277 -300h-124zM576 -234q131 0 213 67.5t82 182.5v169h-4q-51 -88 -141.5 -136.5t-198.5 -48.5q-210 0 -336 149t-126 395t126 395t334 149q115 0 206 -48t145 -137h3v175h166v-1048q0 -194 -130 -304.5t-347 -110.5
q-195 0 -317 81.5t-140 215.5h181q31 -104 126.5 -125t157.5 -21zM554 155q71 0 129.5 28t100 79t64.5 122.5t23 158.5t-23 159t-64.5 123t-100 79.5t-129.5 28.5t-128 -28t-98 -79t-63 -123t-22 -160t22 -159.5t63 -122.5t98 -78.5t128 -27.5z" />
    <glyph glyph-name="Kcaron" unicode="&#x1e8;" horiz-adv-x="1260" 
d="M246 1849h168l194 -201h2l194 201h168l-292 -299h-142zM140 0v1443h180v-704h10l637 704h227l-593 -639l646 -804h-230l-541 676l-156 -172v-504h-180z" />
    <glyph glyph-name="kcaron" unicode="&#x1e9;" horiz-adv-x="1026" 
d="M-148 1912h168l194 -201h2l194 201h168l-292 -299h-142zM302 0h-174v1506h174v-910l483 482h212l-471 -466l485 -612h-202l-405 505l-102 -96v-409z" />
    <glyph glyph-name="Oogonek" unicode="&#x1ea;" horiz-adv-x="1497" 
d="M398 1145q-129 -156 -129 -425t129 -423.5t351 -154.5q223 0 351 155t128 424.5t-128 424.5t-350.5 155t-351.5 -156zM1020 -432q-114 0 -180 59t-66 153q0 128 103 212v5q-61 -21 -127 -21q-310 0 -488 199.5t-178 545.5t178.5 546t487.5 200t486 -200t177 -532
q0 -333 -113 -471.5t-186.5 -198t-128 -114t-54.5 -119.5t33.5 -97t83.5 -32t72 8v-127q-38 -16 -100 -16z" />
    <glyph glyph-name="oogonek" unicode="&#x1eb;" horiz-adv-x="1124" 
d="M562 145q75 0 134.5 27t101 77.5t63 123.5t21.5 166t-21.5 166t-63 124t-101 77.5t-134.5 26.5t-134.5 -27t-101 -77.5t-63 -123.5t-21.5 -166t22 -166t63 -123.5t100.5 -77.5t134.5 -27zM542 -209q0 100 93 198v4q-21 -3 -104 -3t-174.5 39t-191.5 149t-100 362t135 400
t362 148t362 -148.5t135 -384.5t-68 -330.5t-141 -163t-112 -128.5t-39 -115t32.5 -85.5t83.5 -30.5t84 9v-123q-59 -20 -119 -20q-110 0 -174 61.5t-64 161.5z" />
    <glyph glyph-name="Oogonekmacron" unicode="&#x1ec;" horiz-adv-x="1497" 
d="M398 1145q-129 -156 -129 -425t129 -423.5t351 -154.5q223 0 351 155t128 424.5t-128 424.5t-350.5 155t-351.5 -156zM1020 -432q-114 0 -180 59t-66 153q0 128 103 212v5q-61 -21 -127 -21q-310 0 -488 199.5t-178 545.5t178.5 546t487.5 200t486 -200t177 -532
q0 -333 -113 -471.5t-186.5 -198t-128 -114t-54.5 -119.5t33.5 -97t83.5 -32t72 8v-127q-38 -16 -100 -16zM1066 1642h-634v106h634v-106z" />
    <glyph glyph-name="oogonekmacron" unicode="&#x1ed;" horiz-adv-x="1124" 
d="M562 145q75 0 134.5 27t101 77.5t63 123.5t21.5 166t-21.5 166t-63 124t-101 77.5t-134.5 26.5t-134.5 -27t-101 -77.5t-63 -123.5t-21.5 -166t22 -166t63 -123.5t100.5 -77.5t134.5 -27zM542 -209q0 100 93 198v4q-21 -3 -104 -3t-174.5 39t-191.5 149t-100 362t135 400
t362 148t362 -148.5t135 -384.5t-68 -330.5t-141 -163t-112 -128.5t-39 -115t32.5 -85.5t83.5 -30.5t84 9v-123q-59 -20 -119 -20q-110 0 -174 61.5t-64 161.5zM879 1320h-634v106h634v-106z" />
    <glyph glyph-name="u01F1" unicode="&#x1f1;" horiz-adv-x="2662" 
d="M2320 1281h-795v162h1022v-128l-819 -1146v-7h836v-162h-1067v128l823 1146v7zM320 162h303q244 0 376.5 144.5t132.5 413.5q0 411 -193 486t-316 75h-303v-1119zM635 1443q320 0 500.5 -190t180.5 -531q0 -342 -180 -532t-501 -190h-495v1443h495z" />
    <glyph glyph-name="u01F2" unicode="&#x1f2;" horiz-adv-x="2389" 
d="M2095 934h-600v144h796v-129l-597 -802v-3h600v-144h-800v126l601 805v3zM320 162h303q244 0 376.5 144.5t132.5 413.5q0 411 -193 486t-316 75h-303v-1119zM635 1443q320 0 500.5 -190t180.5 -531q0 -342 -180 -532t-501 -190h-495v1443h495z" />
    <glyph glyph-name="u01F3" unicode="&#x1f3;" horiz-adv-x="2163" 
d="M1869 934h-600v144h796v-129l-597 -802v-3h600v-144h-800v126l601 805v3zM558 933q-141 0 -228 -107.5t-87 -286.5t86.5 -286.5t228.5 -107.5q141 0 227.5 109.5t86.5 284.5t-86 284.5t-228 109.5zM527 -10q-204 0 -333 151.5t-129 397t127.5 397.5t330.5 152
q116 0 205 -48t139 -137h4v603h174v-1506h-166v182h-3q-108 -192 -349 -192z" />
    <glyph glyph-name="Gacute" unicode="&#x1f4;" horiz-adv-x="1447" 
d="M674 1550l231 299h198l-281 -299h-148zM1159 995q-95 306 -431 306q-94 0 -182.5 -39t-182.5 -151.5t-94 -382.5t127.5 -428t334.5 -158t326.5 113.5t119.5 294.5v26h-407v158h587v-137q0 -292 -161 -456.5t-457 -164.5t-475.5 204.5t-179.5 545.5t179 541t482 200
q233 0 398 -128.5t205 -343.5h-189z" />
    <glyph glyph-name="gacute" unicode="&#x1f5;" horiz-adv-x="1163" 
d="M481 1250l211 300h198l-261 -300h-148zM576 -234q131 0 213 67.5t82 182.5v169h-4q-51 -88 -141.5 -136.5t-198.5 -48.5q-210 0 -336 149t-126 395t126 395t334 149q115 0 206 -48t145 -137h3v175h166v-1048q0 -194 -130 -304.5t-347 -110.5q-195 0 -317 81.5t-140 215.5
h181q31 -104 126.5 -125t157.5 -21zM554 155q71 0 129.5 28t100 79t64.5 122.5t23 158.5t-23 159t-64.5 123t-100 79.5t-129.5 28.5t-128 -28t-98 -79t-63 -123t-22 -160t22 -159.5t63 -122.5t98 -78.5t128 -27.5z" />
    <glyph glyph-name="Ngrave" unicode="&#x1f8;" horiz-adv-x="1432" 
d="M361 1849h198l231 -299h-148zM140 0v1443h175l790 -1133h9v1133h178v-1443h-175l-790 1129h-9v-1129h-178z" />
    <glyph glyph-name="ngrave" unicode="&#x1f9;" horiz-adv-x="1135" 
d="M487 1250l-261 300h198l211 -300h-148zM118 1078h164v-175h4q103 185 352 185q178 0 281 -106.5t103 -290.5v-691h-174v661q0 133 -67 202.5t-197 69.5t-211 -84t-81 -223v-626h-174v1078z" />
    <glyph glyph-name="Aringacute" unicode="&#x1fa;" horiz-adv-x="1292" 
d="M887 2095l-178 -185h-117l120 185h175zM646 1558q24 0 45.5 9t37.5 25t25 37.5t9 45.5t-9 45.5t-25 37.5t-37.5 25t-45.5 9t-45.5 -9t-37.5 -25t-25 -37.5t-9 -45.5t9 -45.5t25 -37.5t37.5 -25t45.5 -9zM646 1476q-41 0 -77 16t-63 43t-43 63t-16 77t16 77t43 63t63 43
t77 16t77 -16t63 -43t43 -63t16 -77t-16 -77t-43 -63t-63 -43t-77 -16zM412 566h468l-231 658h-6zM933 413h-574l-145 -413h-189l532 1443h178l532 -1443h-189z" />
    <glyph glyph-name="aringacute" unicode="&#x1fb;" horiz-adv-x="1062" 
d="M582 1849h158l-159 -197h-120zM410 1383q0 -24 9 -45t25 -37t37 -25t45 -9t45 9t37 25t25 37t9 45t-9 45t-25 37t-37 25t-45 9t-45 -9t-37 -25t-25 -37t-9 -45zM526 1184q-41 0 -77 16t-63 43t-43 63t-16 77t16 77t43 63t63 43t77 16t77 -16t63 -43t43 -63t16 -77
t-16 -77t-43 -63t-63 -43t-77 -16zM420 -10q-151 0 -251 86.5t-100 228.5t103 221t301 91l302 18v90q0 101 -63.5 154.5t-196.5 53.5t-175.5 -64t-50.5 -102h-167q4 138 121.5 229.5t297.5 91.5t294 -94.5t114 -253.5v-740h-165v187h-4q-71 -139 -180.5 -168t-179.5 -29z
M775 410v87l-282 -18q-246 -16 -246 -173q0 -75 60.5 -120t144.5 -45q151 0 237 76.5t86 192.5z" />
    <glyph glyph-name="AEacute" unicode="&#x1fc;" horiz-adv-x="1973" 
d="M1328 1550l231 299h198l-281 -299h-148zM962 459h-555l-217 -459h-185l687 1443h1144v-162h-694v-473h657v-160h-657v-486h694v-162h-874v459zM962 612v680h-160l-322 -680h482z" />
    <glyph glyph-name="aeacute" unicode="&#x1fd;" horiz-adv-x="1769" 
d="M816 1250l211 300h198l-261 -300h-148zM470 141q124 0 214 77.5t90 191.5v81l-285 -15q-118 -6 -180 -49.5t-62 -120.5q0 -117 82.5 -141t140.5 -24zM1248 935q-126 0 -209 -84t-91 -221h575q-6 218 -109.5 261.5t-165.5 43.5zM1704 559v-67h-756v-11q0 -155 86 -246.5
t229 -91.5q98 0 165 43.5t91 121.5h172q-24 -142 -143 -230t-271 -88q-293 0 -404 223h-10q-134 -223 -406 -223q-178 0 -283 85.5t-105 226.5t103.5 221.5t298.5 90.5l303 15v77q0 101 -70.5 164t-179.5 63t-172 -44.5t-70 -121.5h-171q8 140 119.5 230.5t302.5 90.5
t262.5 -81t91.5 -132h9q112 213 366 213q204 0 323 -143t119 -386z" />
    <glyph glyph-name="Oslashacute" unicode="&#x1fe;" horiz-adv-x="1498" 
d="M1250 1247q164 -199 164 -534t-179 -536t-486 -201q-227 0 -387 113l-104 -136l-100 76l110 142q-184 203 -184 548t178.5 546.5t486.5 201.5q251 0 415 -134l120 155l98 -69zM749 1301q-221 0 -350.5 -156.5t-129.5 -413.5t113 -412l673 872q-122 110 -306 110z
M1099.5 298.5q129.5 156.5 129.5 403.5t-94 394l-665 -866q117 -88 279 -88q221 0 350.5 156.5zM853 1550h-148l231 299h198z" />
    <glyph glyph-name="oslashacute" unicode="&#x1ff;" horiz-adv-x="1124" 
d="M916 948q143 -149 143 -405q0 -255 -135.5 -404t-361.5 -149q-141 0 -253 62l-61 -89l-104 69l66 96q-145 149 -145 406t135 405.5t362 148.5q147 0 260 -66l66 96l100 -64zM574 933q-161 0 -246.5 -103.5t-85.5 -276.5t67 -280l422 615q-71 45 -157 45zM552 145
q159 0 244.5 103.5t85.5 277.5t-65 276l-417 -616q68 -41 152 -41zM655 1250h-148l211 300h198z" />
    <glyph glyph-name="Adblgrave" unicode="&#x200;" horiz-adv-x="1292" 
d="M141 1849h188l231 -299h-138zM451 1849h188l231 -299h-138zM412 566h468l-231 658h-6zM933 413h-574l-145 -413h-189l532 1443h178l532 -1443h-189z" />
    <glyph glyph-name="adblgrave" unicode="&#x201;" horiz-adv-x="1062" 
d="M616 1250l-255 300h195l196 -300h-136zM300 1250l-255 300h195l196 -300h-136zM420 -10q-151 0 -251 86.5t-100 228.5t103 221t301 91l302 18v90q0 101 -63.5 154.5t-196.5 53.5t-175.5 -64t-50.5 -102h-167q4 138 121.5 229.5t297.5 91.5t294 -94.5t114 -253.5v-740
h-165v187h-4q-71 -139 -180.5 -168t-179.5 -29zM775 410v87l-282 -18q-246 -16 -246 -173q0 -75 60.5 -120t144.5 -45q151 0 237 76.5t86 192.5z" />
    <glyph glyph-name="Ainvertedbreve" unicode="&#x202;" horiz-adv-x="1292" 
d="M336 1550q0 133 86.5 216t223.5 83t223.5 -83t86.5 -216h-119q0 83 -55 139.5t-136 56.5t-136 -56.5t-55 -139.5h-119zM412 566h468l-231 658h-6zM933 413h-574l-145 -413h-189l532 1443h178l532 -1443h-189z" />
    <glyph glyph-name="ainvertedbreve" unicode="&#x203;" horiz-adv-x="1062" 
d="M204 1250q0 138 89.5 224t232.5 86t232.5 -86t89.5 -224h-123q0 85 -57 144t-142 59t-142 -59t-57 -144h-123zM420 -10q-151 0 -251 86.5t-100 228.5t103 221t301 91l302 18v90q0 101 -63.5 154.5t-196.5 53.5t-175.5 -64t-50.5 -102h-167q4 138 121.5 229.5t297.5 91.5
t294 -94.5t114 -253.5v-740h-165v187h-4q-71 -139 -180.5 -168t-179.5 -29zM775 410v87l-282 -18q-246 -16 -246 -173q0 -75 60.5 -120t144.5 -45q151 0 237 76.5t86 192.5z" />
    <glyph glyph-name="Edblgrave" unicode="&#x204;" horiz-adv-x="1131" 
d="M82 1849h188l231 -299h-138zM392 1849h188l231 -299h-138zM1034 0h-894v1443h894v-162h-714v-463h677v-160h-677v-496h714v-162z" />
    <glyph glyph-name="edblgrave" unicode="&#x205;" horiz-adv-x="1084" 
d="M641 1250l-255 300h195l196 -300h-136zM325 1250l-255 300h195l196 -300h-136zM197.5 936.5q132.5 151.5 350.5 151.5t344.5 -142t126.5 -387v-68h-774v-10q0 -155 87.5 -246.5t237.5 -91.5t201 63.5t63 101.5h172q-22 -138 -148 -228t-313 -90q-100 0 -191 38t-190 147
t-99 359.5t132.5 402zM336.5 850q-83.5 -85 -91.5 -220h593q-4 138 -83.5 221.5t-206.5 83.5q-128 0 -211.5 -85z" />
    <glyph glyph-name="Einvertedbreve" unicode="&#x206;" horiz-adv-x="1131" 
d="M277 1550q0 133 86.5 216t223.5 83t223.5 -83t86.5 -216h-119q0 83 -55 139.5t-136 56.5t-136 -56.5t-55 -139.5h-119zM1034 0h-894v1443h894v-162h-714v-463h677v-160h-677v-496h714v-162z" />
    <glyph glyph-name="einvertedbreve" unicode="&#x207;" horiz-adv-x="1084" 
d="M229 1250q0 138 89.5 224t232.5 86t232.5 -86t89.5 -224h-123q0 85 -57 144t-142 59t-142 -59t-57 -144h-123zM197.5 936.5q132.5 151.5 350.5 151.5t344.5 -142t126.5 -387v-68h-774v-10q0 -155 87.5 -246.5t237.5 -91.5t201 63.5t63 101.5h172q-22 -138 -148 -228
t-313 -90q-100 0 -191 38t-190 147t-99 359.5t132.5 402zM336.5 850q-83.5 -85 -91.5 -220h593q-4 138 -83.5 221.5t-206.5 83.5q-128 0 -211.5 -85z" />
    <glyph glyph-name="Idblgrave" unicode="&#x208;" horiz-adv-x="460" 
d="M-275 1849h188l231 -299h-138zM35 1849h188l231 -299h-138zM140 0v1443h180v-1443h-180z" />
    <glyph glyph-name="idblgrave" unicode="&#x209;" horiz-adv-x="430" 
d="M305 1250l-255 300h195l196 -300h-136zM-11 1250l-255 300h195l196 -300h-136zM128 1078h174v-1078h-174v1078z" />
    <glyph glyph-name="Iinvertedbreve" unicode="&#x20a;" horiz-adv-x="460" 
d="M-80 1550q0 133 86.5 216t223.5 83t223.5 -83t86.5 -216h-119q0 83 -55 139.5t-136 56.5t-136 -56.5t-55 -139.5h-119zM140 0v1443h180v-1443h-180z" />
    <glyph glyph-name="iinvertedbreve" unicode="&#x20b;" horiz-adv-x="430" 
d="M-107 1250q0 138 89.5 224t232.5 86t232.5 -86t89.5 -224h-123q0 85 -57 144t-142 59t-142 -59t-57 -144h-123zM128 1078h174v-1078h-174v1078z" />
    <glyph glyph-name="Odblgrave" unicode="&#x20c;" horiz-adv-x="1498" 
d="M244 1849h188l231 -299h-138zM554 1849h188l231 -299h-138zM749 1301q-111 0 -199.5 -40.5t-151 -116t-96 -183t-33.5 -240.5t33.5 -240t96 -182.5t151 -116t199.5 -40.5t199.5 40.5t151 116t96 182.5t33.5 240t-33.5 240.5t-96 183t-151 116t-199.5 40.5zM749 1467
q153 0 276.5 -52t209.5 -149t132.5 -235t46.5 -310t-46.5 -310t-132.5 -234.5t-209.5 -148.5t-276.5 -52t-276.5 52t-209.5 148.5t-132.5 234.5t-46.5 310t46.5 310t132.5 235t209.5 149t276.5 52z" />
    <glyph glyph-name="odblgrave" unicode="&#x20d;" horiz-adv-x="1124" 
d="M652 1250l-255 300h195l196 -300h-136zM336 1250l-255 300h195l196 -300h-136zM562 145q75 0 134.5 27t101 77.5t63 123.5t21.5 166t-21.5 166t-63 124t-101 77.5t-134.5 26.5t-134.5 -27t-101 -77.5t-63 -123.5t-21.5 -166t22 -166t63 -123.5t100.5 -77.5t134.5 -27z
M65 540q0 252 135 400t362 148t362 -148t135 -400t-135.5 -401t-361.5 -149t-361.5 149t-135.5 401z" />
    <glyph glyph-name="Oinvertedbreve" unicode="&#x20e;" horiz-adv-x="1498" 
d="M439 1550q0 133 86.5 216t223.5 83t223.5 -83t86.5 -216h-119q0 83 -55 139.5t-136 56.5t-136 -56.5t-55 -139.5h-119zM749 1301q-111 0 -199.5 -40.5t-151 -116t-96 -183t-33.5 -240.5t33.5 -240t96 -182.5t151 -116t199.5 -40.5t199.5 40.5t151 116t96 182.5t33.5 240
t-33.5 240.5t-96 183t-151 116t-199.5 40.5zM749 1467q153 0 276.5 -52t209.5 -149t132.5 -235t46.5 -310t-46.5 -310t-132.5 -234.5t-209.5 -148.5t-276.5 -52t-276.5 52t-209.5 148.5t-132.5 234.5t-46.5 310t46.5 310t132.5 235t209.5 149t276.5 52z" />
    <glyph glyph-name="oinvertedbreve" unicode="&#x20f;" horiz-adv-x="1124" 
d="M240 1250q0 138 89.5 224t232.5 86t232.5 -86t89.5 -224h-123q0 85 -57 144t-142 59t-142 -59t-57 -144h-123zM562 145q75 0 134.5 27t101 77.5t63 123.5t21.5 166t-21.5 166t-63 124t-101 77.5t-134.5 26.5t-134.5 -27t-101 -77.5t-63 -123.5t-21.5 -166t22 -166
t63 -123.5t100.5 -77.5t134.5 -27zM65 540q0 252 135 400t362 148t362 -148t135 -400t-135.5 -401t-361.5 -149t-361.5 149t-135.5 401z" />
    <glyph glyph-name="Rdblgrave" unicode="&#x210;" horiz-adv-x="1237" 
d="M30 1849h188l231 -299h-138zM340 1849h188l231 -299h-138zM320 0h-180v1443h551q209 0 334.5 -118t125.5 -312q0 -229 -111 -311t-179 -103l334 -599h-211l-309 571h-355v-571zM320 730h355q140 0 215 71.5t75 205.5q0 197 -114 236.5t-184 39.5h-347v-553z" />
    <glyph glyph-name="rdblgrave" unicode="&#x211;" horiz-adv-x="649" 
d="M456 1250l-255 300h195l196 -300h-136zM140 1250l-255 300h195l196 -300h-136zM292 667v-667h-174v1078h164v-175h4q37 131 125.5 158t132.5 27t70 -7v-172q-26 12 -85 12q-109 0 -173 -69.5t-64 -184.5z" />
    <glyph glyph-name="Rinvertedbreve" unicode="&#x212;" horiz-adv-x="1237" 
d="M225 1550q0 133 86.5 216t223.5 83t223.5 -83t86.5 -216h-119q0 83 -55 139.5t-136 56.5t-136 -56.5t-55 -139.5h-119zM320 0h-180v1443h551q209 0 334.5 -118t125.5 -312q0 -229 -111 -311t-179 -103l334 -599h-211l-309 571h-355v-571zM320 730h355q140 0 215 71.5
t75 205.5q0 197 -114 236.5t-184 39.5h-347v-553z" />
    <glyph glyph-name="rinvertedbreve" unicode="&#x213;" horiz-adv-x="649" 
d="M44 1250q0 138 89.5 224t232.5 86t232.5 -86t89.5 -224h-123q0 85 -57 144t-142 59t-142 -59t-57 -144h-123zM292 667v-667h-174v1078h164v-175h4q37 131 125.5 158t132.5 27t70 -7v-172q-26 12 -85 12q-109 0 -173 -69.5t-64 -184.5z" />
    <glyph glyph-name="Udblgrave" unicode="&#x214;" horiz-adv-x="1426" 
d="M208 1849h188l231 -299h-138zM518 1849h188l231 -299h-138zM320 518q0 -169 105 -272.5t288.5 -103.5t288 104.5t104.5 271.5v925h180v-937q0 -236 -154.5 -383t-418.5 -147t-418.5 147t-154.5 383v937h180v-925z" />
    <glyph glyph-name="udblgrave" unicode="&#x215;" horiz-adv-x="1135" 
d="M655 1250l-255 300h195l196 -300h-136zM339 1250l-255 300h195l196 -300h-136zM496 -10q-177 0 -280 106.5t-103 290.5v691h174v-661q0 -134 67 -203t197 -69t211 84t81 223v626h174v-1078h-164v178h-4q-102 -188 -353 -188z" />
    <glyph glyph-name="Uinvertedbreve" unicode="&#x216;" horiz-adv-x="1426" 
d="M403 1550q0 133 86.5 216t223.5 83t223.5 -83t86.5 -216h-119q0 83 -55 139.5t-136 56.5t-136 -56.5t-55 -139.5h-119zM320 518q0 -169 105 -272.5t288.5 -103.5t288 104.5t104.5 271.5v925h180v-937q0 -236 -154.5 -383t-418.5 -147t-418.5 147t-154.5 383v937h180v-925
z" />
    <glyph glyph-name="uinvertedbreve" unicode="&#x217;" horiz-adv-x="1135" 
d="M243 1250q0 138 89.5 224t232.5 86t232.5 -86t89.5 -224h-123q0 85 -57 144t-142 59t-142 -59t-57 -144h-123zM496 -10q-177 0 -280 106.5t-103 290.5v691h174v-661q0 -134 67 -203t197 -69t211 84t81 223v626h174v-1078h-164v178h-4q-102 -188 -353 -188z" />
    <glyph glyph-name="Scommaaccent" unicode="&#x218;" horiz-adv-x="1216" 
d="M465 -541l91 369h153l-118 -369h-126zM960 375q0 99 -67 158t-212 97l-185 48q-295 74 -339.5 190.5t-44.5 198.5t37.5 157t142.5 159t325 84t361 -115t147 -297h-180q-18 177 -138.5 213.5t-225.5 36.5t-193.5 -66.5t-88.5 -159.5q0 -94 65.5 -147t210.5 -90l151 -40
q329 -82 374.5 -201t45.5 -207t-37.5 -167.5t-146 -165t-347.5 -85.5t-385.5 115.5t-158.5 305.5h181q12 -116 114 -187.5t255 -71.5q148 0 243.5 69t95.5 168z" />
    <glyph glyph-name="scommaaccent" unicode="&#x219;" horiz-adv-x="984" 
d="M346 -541l91 369h153l-118 -369h-126zM499 134q171 0 205 61t34 107t-38 80t-130 58l-189 49q-281 73 -281 288q0 136 112 223t282 87t280.5 -87.5t116.5 -220.5h-167q-8 76 -70 120t-136 44q-124 0 -185.5 -43.5t-61.5 -105.5q0 -63 44 -100.5t138 -60.5l164 -41
q164 -42 230 -106t66 -192t-119 -216t-300 -88t-296.5 87t-127.5 226h175q29 -169 254 -169z" />
    <glyph glyph-name="Tcommaaccent" unicode="&#x21a;" horiz-adv-x="1210" 
d="M464 -541l91 369h153l-118 -369h-126zM515 0v1281h-465v162h1110v-162h-465v-1281h-180z" />
    <glyph glyph-name="tcommaaccent" unicode="&#x21b;" horiz-adv-x="634" 
d="M226 -541l91 369h153l-118 -369h-126zM448 -8q-147 0 -210 66.5t-63 221.5v654h-150v144h150v243h174v-243h210v-144h-210v-647q0 -75 32.5 -109.5t101.5 -34.5q8 0 35 1t40 4v-147q-36 -9 -110 -9z" />
    <glyph glyph-name="Hcaron" unicode="&#x21e;" horiz-adv-x="1432" 
d="M353 1849h168l194 -201h2l194 201h168l-292 -299h-142zM1112 0v657h-792v-657h-180v1443h180v-624h792v624h180v-1443h-180z" />
    <glyph glyph-name="hcaron" unicode="&#x21f;" horiz-adv-x="1166" 
d="M-147 1912h168l194 -201h2l194 201h168l-292 -299h-142zM128 1506h174v-603h4q102 185 352 185q177 0 286 -110.5t109 -289.5v-688h-174v657q0 197 -104.5 236.5t-170.5 39.5q-134 0 -218 -86t-84 -227v-620h-174v1506z" />
    <glyph glyph-name="Adotaccent" unicode="&#x226;" horiz-adv-x="1292" 
d="M646 1585q-25 0 -47 9.5t-38.5 26t-26 38.5t-9.5 47t9.5 47t26 38.5t38.5 26t47 9.5t47 -9.5t38.5 -26t26 -38.5t9.5 -47t-9.5 -47t-26 -38.5t-38.5 -26t-47 -9.5zM412 566h468l-231 658h-6zM933 413h-574l-145 -413h-189l532 1443h178l532 -1443h-189z" />
    <glyph glyph-name="adotaccent" unicode="&#x227;" horiz-adv-x="1062" 
d="M438.5 1297.5q-36.5 36.5 -36.5 74.5q0 64 36.5 100.5t74.5 36.5q64 0 100.5 -36.5t36.5 -74.5t-10 -61t-36.5 -49.5t-77.5 -26.5t-87.5 36.5zM420 -10q-151 0 -251 86.5t-100 228.5t103 221t301 91l302 18v90q0 101 -63.5 154.5t-196.5 53.5t-175.5 -64t-50.5 -102h-167
q4 138 121.5 229.5t297.5 91.5t294 -94.5t114 -253.5v-740h-165v187h-4q-71 -139 -180.5 -168t-179.5 -29zM775 410v87l-282 -18q-246 -16 -246 -173q0 -75 60.5 -120t144.5 -45q151 0 237 76.5t86 192.5z" />
    <glyph glyph-name="Ecedilla" unicode="&#x228;" horiz-adv-x="1131" 
d="M568 -369q120 0 120 73q0 35 -35 50.5t-115 15.5h-55v74l60 156h-403v1443h894v-162h-714v-463h677v-160h-677v-496h714v-162h-379l-52 -142q209 0 209 -150q0 -76 -62 -126.5t-151 -51.5t-153 18v98q35 -15 122 -15z" />
    <glyph glyph-name="ecedilla" unicode="&#x229;" horiz-adv-x="1084" 
d="M540 -369q120 0 120 73q0 35 -35 50.5t-115 15.5h-55v74l57 148q-207 16 -327 161t-120 389t132.5 395t350.5 151t344.5 -142t126.5 -387v-68h-774v-10q0 -155 87.5 -246.5t237.5 -91.5t201 63.5t63 101.5h172q-20 -123 -125 -210.5t-256 -103.5l-50 -136q209 0 209 -150
q0 -76 -62 -126.5t-151 -51.5t-153 18v98q35 -15 122 -15zM336.5 850q-83.5 -85 -91.5 -220h593q-4 138 -83.5 221.5t-206.5 83.5q-128 0 -211.5 -85z" />
    <glyph glyph-name="Odieresismacron" unicode="&#x22a;" horiz-adv-x="1498" 
d="M1005 1761q29 -29 29 -71t-28.5 -70t-59.5 -28q-51 0 -80 29t-29 59t8 48.5t29.5 40t61.5 21.5t69 -29zM1066 2025v-106h-634v106h634zM631.5 1760q29.5 -30 29.5 -60q0 -50 -29 -79t-70 -29t-69.5 28.5t-28.5 59.5t7.5 49t29 39.5t61.5 21.5t69.5 -30zM749 1301
q-111 0 -199.5 -40.5t-151 -116t-96 -183t-33.5 -240.5t33.5 -240t96 -182.5t151 -116t199.5 -40.5t199.5 40.5t151 116t96 182.5t33.5 240t-33.5 240.5t-96 183t-151 116t-199.5 40.5zM749 1467q153 0 276.5 -52t209.5 -149t132.5 -235t46.5 -310t-46.5 -310t-132.5 -234.5
t-209.5 -148.5t-276.5 -52t-276.5 52t-209.5 148.5t-132.5 234.5t-46.5 310t46.5 310t132.5 235t209.5 149t276.5 52z" />
    <glyph glyph-name="odieresismacron" unicode="&#x22b;" horiz-adv-x="1124" 
d="M879 1658h-634v106h634v-106zM759 1261q-22 0 -41.5 8.5t-34 23t-23 34t-8.5 41.5t8.5 42t23 34t34 22.5t41.5 8.5t42 -8.5t34 -22.5t22.5 -34t8.5 -42t-8.5 -41.5t-22.5 -34t-34 -23t-42 -8.5zM365 1261q-22 0 -41.5 8.5t-34 23t-23 34t-8.5 41.5t8.5 42t23 34t34 22.5
t41.5 8.5t42 -8.5t34 -22.5t22.5 -34t8.5 -42t-8.5 -41.5t-22.5 -34t-34 -23t-42 -8.5zM562 145q75 0 134.5 27t101 77.5t63 123.5t21.5 166t-21.5 166t-63 124t-101 77.5t-134.5 26.5t-134.5 -27t-101 -77.5t-63 -123.5t-21.5 -166t22 -166t63 -123.5t100.5 -77.5
t134.5 -27zM65 540q0 252 135 400t362 148t362 -148t135 -400t-135.5 -401t-361.5 -149t-361.5 149t-135.5 401z" />
    <glyph glyph-name="Otildemacron" unicode="&#x22c;" horiz-adv-x="1498" 
d="M1066 1919h-634v106h634v-106zM624 1687q-69 0 -69 -137h-114q0 118 46.5 184t130.5 66t152 -76t103 -76q62 0 62 138h114q0 -178 -68 -214.5t-104 -36.5t-61.5 11.5t-46.5 28t-39 36.5t-47 48t-59 28zM749 1301q-111 0 -199.5 -40.5t-151 -116t-96 -183t-33.5 -240.5
t33.5 -240t96 -182.5t151 -116t199.5 -40.5t199.5 40.5t151 116t96 182.5t33.5 240t-33.5 240.5t-96 183t-151 116t-199.5 40.5zM749 1467q153 0 276.5 -52t209.5 -149t132.5 -235t46.5 -310t-46.5 -310t-132.5 -234.5t-209.5 -148.5t-276.5 -52t-276.5 52t-209.5 148.5
t-132.5 234.5t-46.5 310t46.5 310t132.5 235t209.5 149t276.5 52z" />
    <glyph glyph-name="otildemacron" unicode="&#x22d;" horiz-adv-x="1124" 
d="M879 1658h-634v106h634v-106zM445 1398q-69 0 -69 -137h-114q0 118 46.5 184t130.5 66t152 -76t103 -76q62 0 62 138h114q0 -178 -68 -214.5t-104 -36.5t-61.5 11.5t-46.5 28t-39 36.5t-47 48t-59 28zM562 145q75 0 134.5 27t101 77.5t63 123.5t21.5 166t-21.5 166
t-63 124t-101 77.5t-134.5 26.5t-134.5 -27t-101 -77.5t-63 -123.5t-21.5 -166t22 -166t63 -123.5t100.5 -77.5t134.5 -27zM65 540q0 252 135 400t362 148t362 -148t135 -400t-135.5 -401t-361.5 -149t-361.5 149t-135.5 401z" />
    <glyph glyph-name="Odotaccent" unicode="&#x22e;" horiz-adv-x="1498" 
d="M749 1585q-25 0 -47 9.5t-38.5 26t-26 38.5t-9.5 47t9.5 47t26 38.5t38.5 26t47 9.5t47 -9.5t38.5 -26t26 -38.5t9.5 -47t-9.5 -47t-26 -38.5t-38.5 -26t-47 -9.5zM749 1301q-111 0 -199.5 -40.5t-151 -116t-96 -183t-33.5 -240.5t33.5 -240t96 -182.5t151 -116
t199.5 -40.5t199.5 40.5t151 116t96 182.5t33.5 240t-33.5 240.5t-96 183t-151 116t-199.5 40.5zM749 1467q153 0 276.5 -52t209.5 -149t132.5 -235t46.5 -310t-46.5 -310t-132.5 -234.5t-209.5 -148.5t-276.5 -52t-276.5 52t-209.5 148.5t-132.5 234.5t-46.5 310t46.5 310
t132.5 235t209.5 149t276.5 52z" />
    <glyph glyph-name="odotaccent" unicode="&#x22f;" horiz-adv-x="1124" 
d="M474.5 1297.5q-36.5 36.5 -36.5 74.5q0 64 36.5 100.5t74.5 36.5q64 0 100.5 -36.5t36.5 -74.5t-10 -61t-36.5 -49.5t-77.5 -26.5t-87.5 36.5zM562 145q75 0 134.5 27t101 77.5t63 123.5t21.5 166t-21.5 166t-63 124t-101 77.5t-134.5 26.5t-134.5 -27t-101 -77.5
t-63 -123.5t-21.5 -166t22 -166t63 -123.5t100.5 -77.5t134.5 -27zM65 540q0 252 135 400t362 148t362 -148t135 -400t-135.5 -401t-361.5 -149t-361.5 149t-135.5 401z" />
    <glyph glyph-name="Odotaccentmacron" unicode="&#x230;" horiz-adv-x="1498" 
d="M1066 1919h-634v106h634v-106zM749 1574q-24 0 -45.5 9t-37.5 25t-25 37.5t-9 45.5t9 44.5t25 36.5t37.5 25t45.5 9t45.5 -9t37.5 -25t25 -36.5t9 -44.5t-9 -45.5t-25 -37.5t-37.5 -25t-45.5 -9zM749 1301q-111 0 -199.5 -40.5t-151 -116t-96 -183t-33.5 -240.5
t33.5 -240t96 -182.5t151 -116t199.5 -40.5t199.5 40.5t151 116t96 182.5t33.5 240t-33.5 240.5t-96 183t-151 116t-199.5 40.5zM749 1467q153 0 276.5 -52t209.5 -149t132.5 -235t46.5 -310t-46.5 -310t-132.5 -234.5t-209.5 -148.5t-276.5 -52t-276.5 52t-209.5 148.5
t-132.5 234.5t-46.5 310t46.5 310t132.5 235t209.5 149t276.5 52z" />
    <glyph glyph-name="odotaccentmacron" unicode="&#x231;" horiz-adv-x="1124" 
d="M879 1658h-634v106h634v-106zM562 1261q-50 0 -86 35.5t-36 73.5t10 60t26.5 38.5t38.5 26.5t59 10t73.5 -36.5t36.5 -74.5t-10 -59.5t-36 -47.5t-76 -26zM562 145q75 0 134.5 27t101 77.5t63 123.5t21.5 166t-21.5 166t-63 124t-101 77.5t-134.5 26.5t-134.5 -27
t-101 -77.5t-63 -123.5t-21.5 -166t22 -166t63 -123.5t100.5 -77.5t134.5 -27zM65 540q0 252 135 400t362 148t362 -148t135 -400t-135.5 -401t-361.5 -149t-361.5 149t-135.5 401z" />
    <glyph glyph-name="Ymacron" unicode="&#x232;" horiz-adv-x="1254" 
d="M944 1642h-634v106h634v-106zM537 0v621l-512 822h205l394 -648h6l394 648h205l-512 -822v-621h-180z" />
    <glyph glyph-name="ymacron" unicode="&#x233;" horiz-adv-x="1026" 
d="M831 1320h-634v106h634v-106zM323.5 -204q44.5 39 79.5 139l21 64l-399 1079h185l302 -901h4l302 901h183l-422 -1144q-70 -188 -147.5 -256.5t-221.5 -68.5q-39 0 -76 7v147q30 -6 88 -6q57 0 101.5 39z" />
    <glyph glyph-name="dotlessj" unicode="&#x237;" horiz-adv-x="428" 
d="M300 -81q0 -165 -79 -241t-251 -76h-30v147h26q129 0 145.5 60.5t16.5 106.5v1162h172v-1159z" />
    <glyph glyph-name="circumflex" unicode="&#x2c6;" horiz-adv-x="1006" 
d="M842 1250h-163l-173 197h-6l-173 -197h-163l277 300h124z" />
    <glyph glyph-name="caron" unicode="&#x2c7;" horiz-adv-x="1006" 
d="M441 1250l-277 300h163l173 -197h6l173 197h163l-277 -300h-124z" />
    <glyph glyph-name="breve" unicode="&#x2d8;" horiz-adv-x="1000" 
d="M301 1550q0 -85 57 -144t142 -59t142 59t57 144h123q0 -138 -89.5 -224t-232.5 -86t-232.5 86t-89.5 224h123z" />
    <glyph glyph-name="dotaccent" unicode="&#x2d9;" horiz-adv-x="898" 
d="M361.5 1297.5q-36.5 36.5 -36.5 74.5q0 64 36.5 100.5t74.5 36.5q64 0 100.5 -36.5t36.5 -74.5t-10 -61t-36.5 -49.5t-77.5 -26.5t-87.5 36.5z" />
    <glyph glyph-name="ring" unicode="&#x2da;" horiz-adv-x="1048" 
d="M524 1269q24 0 45 9t37 25t25 37t9 45t-9 45t-25 37t-37 25t-45 9t-45 -9t-37 -25t-25 -37t-9 -45t9 -45t25 -37t37 -25t45 -9zM524 1186q-41 0 -77 16t-63 43t-43 63t-16 77t16 77t43 63t63 43t77 16t77 -16t63 -43t43 -63t16 -77t-16 -77t-43 -63t-63 -43t-77 -16z" />
    <glyph glyph-name="ogonek" unicode="&#x2db;" horiz-adv-x="1000" 
d="M591 -335q46 0 78 9v-123q-51 -16 -109 -16q-106 0 -163.5 50.5t-57.5 135.5q0 153 171 279h112q-139 -120 -139 -230q0 -48 31 -76.5t77 -28.5z" />
    <glyph glyph-name="tilde" unicode="&#x2dc;" horiz-adv-x="1006" 
d="M382 1410q-69 0 -69 -137h-114q0 118 46.5 184t130.5 66t152 -76t103 -76q62 0 62 138h114q0 -178 -68 -214.5t-104 -36.5t-61.5 11.5t-46.5 28t-39 36.5t-47 48t-59 28z" />
    <glyph glyph-name="hungarumlaut" unicode="&#x2dd;" horiz-adv-x="1000" 
d="M350 1550h195l-255 -300h-136zM666 1550h195l-255 -300h-136z" />
    <glyph glyph-name="gravecmb" unicode="&#x300;" 
d="M-83 1250l-261 300h198l211 -300h-148z" />
    <glyph glyph-name="acutecmb" unicode="&#x301;" 
d="M-74 1250l211 300h198l-261 -300h-148z" />
    <glyph glyph-name="circumflexcmb" unicode="&#x302;" 
d="M339 1250h-163l-173 197h-6l-173 -197h-163l277 300h124z" />
    <glyph glyph-name="tildecmb" unicode="&#x303;" 
d="M-117 1410q-69 0 -69 -137h-114q0 118 46.5 184t130.5 66t152 -76t103 -76q62 0 62 138h114q0 -178 -68 -214.5t-104 -36.5t-61.5 11.5t-46.5 28t-39 36.5t-47 48t-59 28z" />
    <glyph glyph-name="macroncmb" unicode="&#x304;" 
d="M317 1320h-634v106h634v-106z" />
    <glyph glyph-name="brevecmb" unicode="&#x306;" 
d="M-200 1550q0 -85 57 -144t142 -59t142 59t57 144h123q0 -138 -89.5 -224t-232.5 -86t-232.5 86t-89.5 224h123z" />
    <glyph glyph-name="dotaccentcmb" unicode="&#x307;" 
d="M-87.5 1297.5q-36.5 36.5 -36.5 74.5q0 64 36.5 100.5t74.5 36.5q64 0 100.5 -36.5t36.5 -74.5t-10 -61t-36.5 -49.5t-77.5 -26.5t-87.5 36.5z" />
    <glyph glyph-name="dieresiscmb" unicode="&#x308;" 
d="M197 1261q-23 0 -43.5 9t-35.5 24t-24 35.5t-9 43.5t9 43.5t24 35.5t35.5 24t43.5 9t43.5 -9t35.5 -24t24 -35.5t9 -43.5t-9 -43.5t-24 -35.5t-35.5 -24t-43.5 -9zM-197 1261q-23 0 -43.5 9t-35.5 24t-24 35.5t-9 43.5t9 43.5t24 35.5t35.5 24t43.5 9t43.5 -9t35.5 -24
t24 -35.5t9 -43.5t-9 -43.5t-24 -35.5t-35.5 -24t-43.5 -9z" />
    <glyph glyph-name="hookabovecmb" unicode="&#x309;" 
d="M24 1560q81 0 132 -47.5t51 -136.5t-62.5 -131.5t-99.5 -55.5l-61 84q92 31 92 105q0 32 -25.5 54t-67.5 22t-98 -24v105q58 25 139 25z" />
    <glyph glyph-name="ringcmb" unicode="&#x30a;" 
d="M0 1267q24 0 45 9t37 25t25 37t9 45t-9 45t-25 37t-37 25t-45 9t-45 -9t-37 -25t-25 -37t-9 -45t9 -45t25 -37t37 -25t45 -9zM0 1184q-41 0 -77 16t-63 43t-43 63t-16 77t16 77t43 63t63 43t77 16t77 -16t63 -43t43 -63t16 -77t-16 -77t-43 -63t-63 -43t-77 -16z" />
    <glyph glyph-name="hungarumlautcmb" unicode="&#x30b;" 
d="M-30 1550h195l-255 -300h-136zM286 1550h195l-255 -300h-136z" />
    <glyph glyph-name="caroncmb" unicode="&#x30c;" 
d="M-62 1250l-277 300h163l173 -197h6l173 197h163l-277 -300h-124z" />
    <glyph glyph-name="dblgravecmb" unicode="&#x30f;" 
d="M90 1250l-255 300h195l196 -300h-136zM-226 1250l-255 300h195l196 -300h-136z" />
    <glyph glyph-name="invertedbrevecmb" unicode="&#x311;" 
d="M-322 1250q0 138 89.5 224t232.5 86t232.5 -86t89.5 -224h-123q0 85 -57 144t-142 59t-142 -59t-57 -144h-123z" />
    <glyph glyph-name="horncmb" unicode="&#x31b;" 
d="M104 1068q64 0 92 40t28 133v156h159v-204q0 -117 -68.5 -191t-191.5 -74q-68 0 -123 44v139q40 -43 104 -43z" />
    <glyph glyph-name="dotbelowcmb" unicode="&#x323;" 
d="M0 -392q-25 0 -47 9.5t-38.5 26t-26 38.5t-9.5 47t9.5 47t26 38.5t38.5 26t47 9.5t47 -9.5t38.5 -26t26 -38.5t9.5 -47t-9.5 -47t-26 -38.5t-38.5 -26t-47 -9.5z" />
    <glyph glyph-name="dieresisbelowcmb" unicode="&#x324;" 
d="M197 -384q-23 0 -43.5 9t-35.5 24t-24 35.5t-9 43.5t9 43.5t24 35.5t35.5 24t43.5 9t43.5 -9t35.5 -24t24 -35.5t9 -43.5t-9 -43.5t-24 -35.5t-35.5 -24t-43.5 -9zM-197 -384q-23 0 -43.5 9t-35.5 24t-24 35.5t-9 43.5t9 43.5t24 35.5t35.5 24t43.5 9t43.5 -9t35.5 -24
t24 -35.5t9 -43.5t-9 -43.5t-24 -35.5t-35.5 -24t-43.5 -9z" />
    <glyph glyph-name="ringbelowcmb" unicode="&#x325;" 
d="M0 -475q24 0 45 9t37 25t25 37t9 45t-9 45t-25 37t-37 25t-45 9t-45 -9t-37 -25t-25 -37t-9 -45t9 -45t25 -37t37 -25t45 -9zM0 -558q-41 0 -77 16t-63 43t-43 63t-16 77t16 77t43 63t63 43t77 16t77 -16t63 -43t43 -63t16 -77t-16 -77t-43 -63t-63 -43t-77 -16z" />
    <glyph glyph-name="commabelowcmb" unicode="&#x326;" 
d="M-141 -541l91 369h153l-118 -369h-126z" />
    <glyph glyph-name="cedillacmb" unicode="&#x327;" 
d="M-19 -369q120 0 120 73q0 35 -35 50.5t-115 15.5h-55v74l63 164l109 -8l-52 -142q209 0 209 -150q0 -76 -62 -126.5t-151 -51.5t-153 18v98q35 -15 122 -15z" />
    <glyph glyph-name="ogonekcmb" unicode="&#x328;" 
d="M37 -335q46 0 78 9v-123q-51 -16 -109 -16q-106 0 -163.5 50.5t-57.5 135.5q0 153 171 279h112q-139 -120 -139 -230q0 -48 31 -76.5t77 -28.5z" />
    <glyph glyph-name="circumflexbelowcmb" unicode="&#x32d;" 
d="M71 -166l292 -299h-168l-194 201h-2l-194 -201h-168l292 299h142z" />
    <glyph glyph-name="brevebelowcmb" unicode="&#x32e;" 
d="M-191 -196q0 -83 55 -139.5t136 -56.5t136 56.5t55 139.5h119q0 -133 -86.5 -216t-223.5 -83t-223.5 83t-86.5 216h119z" />
    <glyph glyph-name="tildebelowcmb" unicode="&#x330;" 
d="M-121 -263q-69 0 -69 -137h-114q0 118 46.5 184t130.5 66t152 -76t103 -76q62 0 62 138h114q0 -178 -68 -214.5t-104 -36.5t-61.5 11.5t-46.5 28t-39 36.5t-47 48t-59 28z" />
    <glyph glyph-name="macronbelowcmb" unicode="&#x331;" 
d="M317 -326h-634v106h634v-106z" />
    <glyph glyph-name="greekquestionmark" unicode="&#x37e;" horiz-adv-x="520" 
d="M62 -257l98 459h187l-150 -459h-135zM260 726q-24 0 -45 9t-36 24t-24 36t-9 56.5t32 69t82 33.5q49 0 81.5 -33t32.5 -69t-8.5 -57t-24 -36t-36.5 -24t-45 -9z" />
    <glyph glyph-name="tonosgreek" unicode="&#x384;" horiz-adv-x="895" 
d="M377 1560h221l-155 -310h-144z" />
    <glyph glyph-name="dieresistonosgreek" unicode="&#x385;" horiz-adv-x="1210" 
d="M499 1250l31 310h211l-108 -310h-134zM885 1261q-23 0 -43.5 9t-35.5 24t-24 35.5t-9 43.5t9 43.5t24 35.5t35.5 24t43.5 9t43.5 -9t35.5 -24t24 -35.5t9 -43.5t-9 -43.5t-24 -35.5t-35.5 -24t-43.5 -9zM325 1261q-23 0 -43.5 9t-35.5 24t-24 35.5t-9 43.5t9 43.5
t24 35.5t35.5 24t43.5 9t43.5 -9t35.5 -24t24 -35.5t9 -43.5t-9 -43.5t-24 -35.5t-35.5 -24t-43.5 -9z" />
    <glyph glyph-name="Alphatonosgreek" unicode="&#x386;" horiz-adv-x="1292" 
d="M104 1133l78 310h221l-155 -310h-144zM412 566h468l-231 658h-6zM933 413h-574l-145 -413h-189l532 1443h178l532 -1443h-189z" />
    <glyph glyph-name="anoteleia" unicode="&#x387;" horiz-adv-x="520" 
d="M260 860q-24 0 -45 9t-36 24t-24 36t-9 56.5t32 69t82 33.5q49 0 81.5 -33t32.5 -69t-8.5 -57t-24 -36t-36.5 -24t-45 -9z" />
    <glyph glyph-name="Epsilontonosgreek" unicode="&#x388;" horiz-adv-x="1472" 
d="M60 1133l78 310h221l-155 -310h-144zM1375 0h-894v1443h894v-162h-714v-463h677v-160h-677v-496h714v-162z" />
    <glyph glyph-name="Etatonosgreek" unicode="&#x389;" horiz-adv-x="1773" 
d="M60 1133l78 310h221l-155 -310h-144zM1453 0v657h-792v-657h-180v1443h180v-624h792v624h180v-1443h-180z" />
    <glyph glyph-name="Iotatonosgreek" unicode="&#x38a;" horiz-adv-x="801" 
d="M60 1133l78 310h221l-155 -310h-144zM481 0v1443h180v-1443h-180z" />
    <glyph glyph-name="Omicrontonosgreek" unicode="&#x38c;" horiz-adv-x="1679" 
d="M36 1133l78 310h221l-155 -310h-144zM930 1301q-111 0 -199.5 -40.5t-151 -116t-96 -183t-33.5 -240.5t33.5 -240t96 -182.5t151 -116t199.5 -40.5t199.5 40.5t151 116t96 182.5t33.5 240t-33.5 240.5t-96 183t-151 116t-199.5 40.5zM930 1467q153 0 276.5 -52
t209.5 -149t132.5 -235t46.5 -310t-46.5 -310t-132.5 -234.5t-209.5 -148.5t-276.5 -52t-276.5 52t-209.5 148.5t-132.5 234.5t-46.5 310t46.5 310t132.5 235t209.5 149t276.5 52z" />
    <glyph glyph-name="Upsilontonosgreek" unicode="&#x38e;" horiz-adv-x="1625" 
d="M40 1133l78 310h221l-155 -310h-144zM908 0v621l-512 822h205l394 -648h6l394 648h205l-512 -822v-621h-180z" />
    <glyph glyph-name="Omegatonosgreek" unicode="&#x38f;" horiz-adv-x="1714" 
d="M36 1133l78 310h221l-155 -310h-144zM600 169q-311 215 -311 653q0 124 47.5 247t134.5 211.5t208.5 137.5t343 49t404 -186t182.5 -486q0 -301 -118.5 -438t-192.5 -188v-7h311v-162h-526v193q261 174 301 338.5t40 271.5t-32.5 201t-94 160t-149.5 101.5t-254 35.5
t-293 -136.5t-127 -371.5q0 -286 127 -414t214 -186v-193h-526v162h311v7z" />
    <glyph glyph-name="iotadieresistonosgreek" unicode="&#x390;" horiz-adv-x="578" 
d="M131 1250l31 310h211l-108 -310h-134zM517 1261q-23 0 -43.5 9t-35.5 24t-24 35.5t-9 43.5t9 43.5t24 35.5t35.5 24t43.5 9t43.5 -9t35.5 -24t24 -35.5t9 -43.5t-9 -43.5t-24 -35.5t-35.5 -24t-43.5 -9zM-43 1261q-23 0 -43.5 9t-35.5 24t-24 35.5t-9 43.5t9 43.5
t24 35.5t35.5 24t43.5 9t43.5 -9t35.5 -24t24 -35.5t9 -43.5t-9 -43.5t-24 -35.5t-35.5 -24t-43.5 -9zM285 330q0 -187 142 -187q66 0 101 8l10 -149q-44 -10 -122 -10q-161 0 -232 69.5t-71 226.5v790h172v-748z" />
    <glyph glyph-name="Alphagreek" unicode="&#x391;" horiz-adv-x="1292" 
d="M412 566h468l-231 658h-6zM933 413h-574l-145 -413h-189l532 1443h178l532 -1443h-189z" />
    <glyph glyph-name="Betagreek" unicode="&#x392;" horiz-adv-x="1256" 
d="M676 159q331 0 331 253.5t-348 253.5h-339v-507h356zM320 821h288q161 0 245 61.5t84 174.5t-70.5 170t-202.5 57h-344v-463zM140 0v1443h565q185 0 299.5 -99t114.5 -261q0 -113 -72.5 -205t-176.5 -110v-8q145 -18 233.5 -114.5t88.5 -240.5q0 -192 -129.5 -298.5
t-359.5 -106.5h-563z" />
    <glyph glyph-name="Gammagreek" unicode="&#x393;" horiz-adv-x="1061" 
d="M140 0v1443h856v-162h-676v-1281h-180z" />
    <glyph glyph-name="Deltagreek" unicode="&#x394;" horiz-adv-x="1298" 
d="M256 162h786v7l-390 1065h-6l-390 -1065v-7zM55 0v127l505 1316h178l505 -1316v-127h-1188z" />
    <glyph glyph-name="Epsilongreek" unicode="&#x395;" horiz-adv-x="1131" 
d="M1034 0h-894v1443h894v-162h-714v-463h677v-160h-677v-496h714v-162z" />
    <glyph glyph-name="Zetagreek" unicode="&#x396;" horiz-adv-x="1263" 
d="M921 1281h-795v162h1022v-128l-819 -1146v-7h836v-162h-1067v128l823 1146v7z" />
    <glyph glyph-name="Etagreek" unicode="&#x397;" horiz-adv-x="1432" 
d="M1112 0v657h-792v-657h-180v1443h180v-624h792v624h180v-1443h-180z" />
    <glyph glyph-name="Thetagreek" unicode="&#x398;" horiz-adv-x="1508" 
d="M754 1301q-226 0 -355.5 -156.5t-129.5 -423t129.5 -423t355.5 -156.5t355.5 156t129.5 423.5t-129.5 423.5t-355.5 156zM754 1467q312 0 491 -200.5t179 -545.5t-179 -545t-490 -200t-491 199.5t-180 544.5t179 546t491 201zM452 638v162h605v-162h-605z" />
    <glyph glyph-name="Iotagreek" unicode="&#x399;" horiz-adv-x="460" 
d="M140 0v1443h180v-1443h-180z" />
    <glyph glyph-name="Kappagreek" unicode="&#x39a;" horiz-adv-x="1260" 
d="M140 0v1443h180v-704h10l637 704h227l-593 -639l646 -804h-230l-541 676l-156 -172v-504h-180z" />
    <glyph glyph-name="Lambdagreek" unicode="&#x39b;" horiz-adv-x="1252" 
d="M629 1214h-6l-409 -1214h-189l512 1443h178l512 -1443h-189z" />
    <glyph glyph-name="Mugreek" unicode="&#x39c;" horiz-adv-x="1702" 
d="M1562 0h-168v1112h-7l-460 -1102h-152l-460 1102h-7v-1112h-168v1443h209l498 -1204h8l498 1204h209v-1443z" />
    <glyph glyph-name="Nugreek" unicode="&#x39d;" horiz-adv-x="1432" 
d="M140 0v1443h175l790 -1133h9v1133h178v-1443h-175l-790 1129h-9v-1129h-178z" />
    <glyph glyph-name="Xigreek" unicode="&#x39e;" horiz-adv-x="1253" 
d="M1156 164v-164h-1059v164h1059zM184 654v162h885v-162h-885zM1156 1443v-164h-1059v164h1059z" />
    <glyph glyph-name="Omicrongreek" unicode="&#x39f;" horiz-adv-x="1498" 
d="M749 1301q-111 0 -199.5 -40.5t-151 -116t-96 -183t-33.5 -240.5t33.5 -240t96 -182.5t151 -116t199.5 -40.5t199.5 40.5t151 116t96 182.5t33.5 240t-33.5 240.5t-96 183t-151 116t-199.5 40.5zM749 1467q153 0 276.5 -52t209.5 -149t132.5 -235t46.5 -310t-46.5 -310
t-132.5 -234.5t-209.5 -148.5t-276.5 -52t-276.5 52t-209.5 148.5t-132.5 234.5t-46.5 310t46.5 310t132.5 235t209.5 149t276.5 52z" />
    <glyph glyph-name="Pigreek" unicode="&#x3a0;" horiz-adv-x="1412" 
d="M1092 0v1281h-772v-1281h-180v1443h1132v-1443h-180z" />
    <glyph glyph-name="Rhogreek" unicode="&#x3a1;" horiz-adv-x="1213" 
d="M320 675h318q235 0 279.5 116.5t44.5 188.5q0 144 -84 223.5t-240 79.5h-318v-608zM685 1443q202 0 332 -128.5t130 -334.5q0 -205 -130 -335t-334 -130h-363v-515h-180v1443h545z" />
    <glyph glyph-name="Sigmagreek" unicode="&#x3a3;" horiz-adv-x="1233" 
d="M316 162h819v-162h-1037v128l419 597l-402 576v142h992v-162h-769v-7l372 -533v-7l-394 -565v-7z" />
    <glyph glyph-name="Taugreek" unicode="&#x3a4;" horiz-adv-x="1210" 
d="M515 0v1281h-465v162h1110v-162h-465v-1281h-180z" />
    <glyph glyph-name="Upsilongreek" unicode="&#x3a5;" horiz-adv-x="1254" 
d="M537 0v621l-512 822h205l394 -648h6l394 648h205l-512 -822v-621h-180z" />
    <glyph glyph-name="Phigreek" unicode="&#x3a6;" horiz-adv-x="1608" 
d="M714 -58v143q-300 14 -475 185t-175 448t175 448t475 185v146h180v-146q300 -14 475 -185t175 -448t-175 -448t-475 -185v-143h-180zM372 379.5q124 -125.5 342 -133.5v944q-218 -8 -342 -133.5t-124 -338.5t124 -338.5zM1236 1056.5q-124 125.5 -342 133.5v-944
q218 8 342 133.5t124 338.5t-124 338.5z" />
    <glyph glyph-name="Chigreek" unicode="&#x3a7;" horiz-adv-x="1300" 
d="M536 723v7l-485 713h217l385 -580h7l390 580h205l-498 -722v-6l487 -715h-216l-383 575h-7l-389 -575h-204z" />
    <glyph glyph-name="Psigreek" unicode="&#x3a8;" horiz-adv-x="1538" 
d="M679 0v339q-260 0 -419.5 154t-159.5 405v545h180v-539q0 -189 103 -291.5t296 -107.5v938h180v-938q193 5 296 107.5t103 291.5v539h180v-545q0 -252 -159 -405.5t-420 -153.5v-339h-180z" />
    <glyph glyph-name="Omegagreek" unicode="&#x3a9;" horiz-adv-x="1530" 
d="M416 169q-311 215 -311 653q0 124 47.5 247t134.5 211.5t208.5 137.5t343 49t404 -186t182.5 -486q0 -301 -118.5 -438t-192.5 -188v-7h311v-162h-526v193q261 174 301 338.5t40 271.5t-32.5 201t-94 160t-149.5 101.5t-254 35.5t-293 -136.5t-127 -371.5
q0 -286 127 -414t214 -186v-193h-526v162h311v7z" />
    <glyph glyph-name="Iotadieresisgreek" unicode="&#x3aa;" horiz-adv-x="460" 
d="M427 1585q-23 0 -43.5 9t-35.5 24t-24 35.5t-9 43.5t9 43.5t24 35.5t35.5 24t43.5 9t43.5 -9t35.5 -24t24 -35.5t9 -43.5t-9 -43.5t-24 -35.5t-35.5 -24t-43.5 -9zM33 1585q-23 0 -43.5 9t-35.5 24t-24 35.5t-9 43.5t9 43.5t24 35.5t35.5 24t43.5 9t43.5 -9t35.5 -24
t24 -35.5t9 -43.5t-9 -43.5t-24 -35.5t-35.5 -24t-43.5 -9zM140 0v1443h180v-1443h-180z" />
    <glyph glyph-name="Upsilondieresisgreek" unicode="&#x3ab;" horiz-adv-x="1254" 
d="M824 1585q-23 0 -43.5 9t-35.5 24t-24 35.5t-9 43.5t9 43.5t24 35.5t35.5 24t43.5 9t43.5 -9t35.5 -24t24 -35.5t9 -43.5t-9 -43.5t-24 -35.5t-35.5 -24t-43.5 -9zM430 1585q-23 0 -43.5 9t-35.5 24t-24 35.5t-9 43.5t9 43.5t24 35.5t35.5 24t43.5 9t43.5 -9t35.5 -24
t24 -35.5t9 -43.5t-9 -43.5t-24 -35.5t-35.5 -24t-43.5 -9zM537 0v621l-512 822h205l394 -648h6l394 648h205l-512 -822v-621h-180z" />
    <glyph glyph-name="alphatonosgreek" unicode="&#x3ac;" horiz-adv-x="1229" 
d="M555 1560h221l-155 -310h-144zM1025 284q1 -134 83 -134q40 0 66 8l10 -149q-43 -10 -94 -10q-210 0 -239 177h-4q-68 -128 -172.5 -156.5t-180.5 -28.5t-160 40t-143.5 112t-92.5 173t-33 285.5t126.5 336t328.5 151.5q108 0 197 -49t139 -136h3v175h166v-795zM851 538
q0 176 -87.5 286t-222.5 110t-216.5 -107.5t-81.5 -288.5t77.5 -286.5t213.5 -105.5q140 0 228.5 108t88.5 284z" />
    <glyph glyph-name="epsilontonosgreek" unicode="&#x3ad;" horiz-adv-x="1071" 
d="M547 1560h221l-155 -310h-144zM263 308q-1 -163 267 -163t307 191h174q-24 -159 -156 -252.5t-336 -93.5t-319 83t-115 220q0 91 50.5 153.5t144.5 89.5v4q-85 30 -130.5 91t-45.5 138q0 146 120 232.5t314 86.5q317 0 384 -135t75 -216h-174q-19 104 -81 150t-197 46
q-134 0 -204 -42t-70 -116t67 -115.5t182 -41.5h154v-149h-154q-121 0 -189 -43t-68 -118z" />
    <glyph glyph-name="etatonosgreek" unicode="&#x3ae;" horiz-adv-x="1247" 
d="M547 1560h221l-155 -310h-144zM240 794q0 135 -91 135q-41 0 -68 -8v149q55 10 102 10q169 0 212 -137q2 -9 4.5 -19t4.5 -21h4q105 185 342 185q180 0 282 -106t102 -294v-1048h-174v1004q0 289 -259 289q-126 0 -206.5 -84.5t-80.5 -220.5v-628h-174v794z" />
    <glyph glyph-name="iotatonosgreek" unicode="&#x3af;" horiz-adv-x="578" 
d="M209 1560h221l-155 -310h-144zM285 330q0 -187 142 -187q66 0 101 8l10 -149q-44 -10 -122 -10q-161 0 -232 69.5t-71 226.5v790h172v-748z" />
    <glyph glyph-name="upsilondieresistonosgreek" unicode="&#x3b0;" horiz-adv-x="1107" 
d="M419 1250l31 310h211l-108 -310h-134zM805 1261q-23 0 -43.5 9t-35.5 24t-24 35.5t-9 43.5t9 43.5t24 35.5t35.5 24t43.5 9t43.5 -9t35.5 -24t24 -35.5t9 -43.5t-9 -43.5t-24 -35.5t-35.5 -24t-43.5 -9zM245 1261q-23 0 -43.5 9t-35.5 24t-24 35.5t-9 43.5t9 43.5
t24 35.5t35.5 24t43.5 9t43.5 -9t35.5 -24t24 -35.5t9 -43.5t-9 -43.5t-24 -35.5t-35.5 -24t-43.5 -9zM918 1078q94 -226 94 -543q0 -99 -32 -207.5t-92 -183.5t-147 -114.5t-193 -39.5q-211 0 -323 114t-112 323v651h172v-642q0 -146 62.5 -217.5t192.5 -71.5
q220 0 257 154.5t37 234.5q0 297 -89 542h173z" />
    <glyph glyph-name="alphagreek" unicode="&#x3b1;" horiz-adv-x="1229" 
d="M1025 283q1 -134 83 -134q40 0 66 8l10 -149q-43 -10 -94 -10q-210 0 -239 177h-4q-68 -128 -172.5 -156.5t-180.5 -28.5t-160 40t-143.5 112t-92.5 173t-33 285.5t126.5 336t328.5 151.5q108 0 197 -49t139 -136h3v175h166v-795zM851 537q0 176 -87.5 286t-222.5 110
t-216.5 -107.5t-81.5 -288.5t77.5 -286.5t213.5 -105.5q140 0 228.5 108t88.5 284z" />
    <glyph glyph-name="betagreek" unicode="&#x3b2;" horiz-adv-x="1181" 
d="M1116 436q0 -196 -125 -321t-320 -125t-273 70.5t-102 114.5h-4v-535h-174v1388q0 235 121 361.5t333 126.5q211 0 327.5 -99t116.5 -273q0 -110 -58 -192t-166 -124v-2q324 -76 324 -390zM290 1010v-472q0 -281 135.5 -337t211.5 -56q145 0 223 79.5t78 216.5
q0 138 -95 217.5t-281 79.5h-84v149h87q137 0 207.5 62.5t70.5 174.5t-70.5 174.5t-186.5 62.5q-296 0 -296 -351z" />
    <glyph glyph-name="gammagreek" unicode="&#x3b3;" horiz-adv-x="1095" 
d="M1000 894q0 -219 -94.5 -425.5t-307.5 -496.5v-322h-172v328l-376 1100h184l296 -934h4q157 222 210.5 351t73.5 223t20 182t-10 178h163q9 -74 9 -184z" />
    <glyph glyph-name="deltagreek" unicode="&#x3b4;" horiz-adv-x="1114" 
d="M872 508q0 174 -87 267.5t-233 93.5t-228 -103.5t-82 -266.5t85 -260.5t228 -97.5t230 96.5t87 270.5zM595 1365q-190 0 -190 -112q0 -47 44 -84.5t163 -97.5q233 -117 335 -245.5t102 -315.5q0 -237 -135.5 -378.5t-355.5 -141.5t-356.5 140t-136.5 358t113.5 349
t295.5 147v2q-241 107 -241 266q0 125 101 194.5t284 69.5q184 0 328 -73l-10 -153q-184 75 -341 75z" />
    <glyph glyph-name="epsilongreek" unicode="&#x3b5;" horiz-adv-x="1071" 
d="M263 308q-1 -163 267 -163t307 191h174q-24 -159 -156 -252.5t-336 -93.5t-319 83t-115 220q0 91 50.5 153.5t144.5 89.5v4q-85 30 -130.5 91t-45.5 138q0 146 120 232.5t314 86.5q317 0 384 -135t75 -216h-174q-19 104 -81 150t-197 46q-134 0 -204 -42t-70 -116
t67 -115.5t182 -41.5h154v-149h-154q-121 0 -189 -43t-68 -118z" />
    <glyph glyph-name="zetagreek" unicode="&#x3b6;" horiz-adv-x="884" 
d="M680 -330q51 95 51 170q0 76 -44.5 115t-172.5 81q-249 80 -349 198t-100 328q0 329 210.5 517.5t336.5 267.5v5h-460v154h721v-153q-311 -180 -470.5 -371.5t-159.5 -411.5q0 -154 71 -235.5t256 -140.5q186 -60 257.5 -132t71.5 -185t-73 -237z" />
    <glyph glyph-name="etagreek" unicode="&#x3b7;" horiz-adv-x="1247" 
d="M240 794q0 135 -91 135q-41 0 -68 -8v149q55 10 102 10q169 0 212 -137q2 -9 4.5 -19t4.5 -21h4q105 185 342 185q180 0 282 -106t102 -294v-1048h-174v1004q0 289 -259 289q-126 0 -206.5 -84.5t-80.5 -220.5v-628h-174v794z" />
    <glyph glyph-name="thetagreek" unicode="&#x3b8;" horiz-adv-x="1190" 
d="M595 1361q-300 0 -322 -517h644q-22 517 -322 517zM595 145q236 0 277.5 202.5t45.5 342.5h-646q7 -280 86 -412.5t237 -132.5zM223 188q-128 198 -128 568q0 561 190.5 660.5t310.5 99.5t213.5 -50t157 -147t96 -239.5t32.5 -326.5t-33 -326.5t-129 -289.5t-339 -147
t-371 198z" />
    <glyph glyph-name="iotagreek" unicode="&#x3b9;" horiz-adv-x="578" 
d="M285 330q0 -187 142 -187q66 0 101 8l10 -149q-44 -10 -122 -10q-161 0 -232 69.5t-71 226.5v790h172v-748z" />
    <glyph glyph-name="kappagreek" unicode="&#x3ba;" horiz-adv-x="1109" 
d="M855 900q-42 -29 -112 -112l-115 -136l431 -652h-195l-342 531l-232 -253v-278h-172v1078h172v-578h2l342 400q90 106 149.5 143t128.5 37t109 -10v-149q-40 8 -82 8t-84 -29z" />
    <glyph glyph-name="lambdagreek" unicode="&#x3bb;" horiz-adv-x="1118" 
d="M1006 -2q-106 0 -163 47t-103 181l-202 585h-2l-318 -811h-178l422 1018l-54 147q-48 129 -77 157.5t-55.5 35.5t-60.5 7t-66 -9v149q55 11 106 11q115 0 181 -62.5t131 -244.5l333 -949q24 -65 52 -88t69 -23q40 0 67 8l10 -149q-40 -10 -92 -10z" />
    <glyph glyph-name="mugreek" unicode="&#x3bc;" horiz-adv-x="1226" 
d="M1012 282q0 -133 86 -133q41 0 63 8l10 -149q-37 -10 -113 -10q-167 0 -207 155q-2 8 -3.5 17t-3.5 19h-2q-73 -141 -165.5 -170t-136.5 -29q-85 0 -150.5 37t-95.5 100h-2v-487h-174v1438h174v-656q0 -135 64 -205t193 -70t209 83t80 222v626h174v-796z" />
    <glyph glyph-name="nugreek" unicode="&#x3bd;" horiz-adv-x="1075" 
d="M980 899q0 -224 -81.5 -430.5t-279.5 -468.5h-200l-369 1078h184l296 -934h4q217 307 247 487.5t30 268.5t-10 178h170q9 -73 9 -179z" />
    <glyph glyph-name="xigreek" unicode="&#x3be;" horiz-adv-x="924" 
d="M680 -330q51 93 51 170t-49.5 119t-181.5 83q-244 76 -339.5 173t-95.5 233q0 197 115 261.5t190 80.5v2q-122 42 -182 109.5t-60 178.5q0 204 235 269v3h-231v154h741v-137l-103 -11q-367 -39 -422.5 -129t-55.5 -152q0 -107 91.5 -151.5t281.5 -44.5h135v-154h-138
q-420 0 -420 -257q0 -93 72.5 -155t211 -106.5t201 -76.5t117.5 -86.5t55 -167.5q0 -114 -73 -238z" />
    <glyph glyph-name="omicrongreek" unicode="&#x3bf;" horiz-adv-x="1114" 
d="M593.5 145q111.5 0 194.5 103t83 289t-83.5 291t-230.5 105t-230.5 -105t-83.5 -289q0 -285 119.5 -339.5t231 -54.5zM199.5 140q-134.5 150 -134.5 401q0 250 133 398.5t359 148.5t359 -148.5t133 -398.5t-135 -400.5t-357.5 -150.5t-357 150z" />
    <glyph glyph-name="pigreek" unicode="&#x3c0;" horiz-adv-x="1345" 
d="M1045 275q-1 -126 83 -126q36 0 66 8l10 -149q-40 -10 -94 -10q-120 0 -176 61t-56 199v671h-454v-929h-167v929h-192v149h1195v-149h-215v-654z" />
    <glyph glyph-name="rhogreek" unicode="&#x3c1;" horiz-adv-x="1133" 
d="M90 533q0 253 131.5 404t352.5 151t357.5 -148t136.5 -396t-124.5 -401t-337.5 -153q-173 0 -245.5 71.5t-94.5 113.5h-4v-535h-172v893zM804.5 254q85.5 109 85.5 293t-85 285t-230.5 101t-228.5 -104.5t-83 -285.5t82.5 -289.5t227.5 -108.5q146 0 231.5 109z" />
    <glyph glyph-name="sigmafinalgreek" unicode="&#x3c2;" horiz-adv-x="1042" 
d="M680 -330q51 95 51 170q0 76 -44.5 115t-172.5 81q-250 80 -349.5 199t-99.5 343q0 223 128.5 366.5t337.5 143.5q406 0 462 -360h-174q-42 206 -268 206q-144 0 -226 -100t-82 -259q0 -160 71.5 -240.5t256.5 -140.5t256.5 -132t71.5 -185t-73 -237z" />
    <glyph glyph-name="sigmagreek" unicode="&#x3c3;" horiz-adv-x="1256" 
d="M785 249.5q86 103.5 86 284.5t-79.5 285t-224.5 104t-234.5 -106t-89.5 -285t84 -282.5t228 -103.5t230 103.5zM866 925q173 -121 173 -419q0 -92 -35 -192.5t-99 -172t-152.5 -111t-198.5 -39.5q-220 0 -354.5 150t-134.5 396t145.5 393.5t389.5 147.5h591v-149h-325v-4
z" />
    <glyph glyph-name="taugreek" unicode="&#x3c4;" horiz-adv-x="1033" 
d="M720 -8q-169 0 -243 68t-74 227v642h-343v149h918v-149h-403v-599q0 -101 41.5 -144t120.5 -43t111 8l10 -149q-58 -10 -138 -10z" />
    <glyph glyph-name="upsilongreek" unicode="&#x3c5;" horiz-adv-x="1107" 
d="M918 1078q94 -226 94 -543q0 -99 -32 -207.5t-92 -183.5t-147 -114.5t-193 -39.5q-211 0 -323 114t-112 323v651h172v-642q0 -146 62.5 -217.5t192.5 -71.5q220 0 257 154.5t37 234.5q0 297 -89 542h173z" />
    <glyph glyph-name="phigreek" unicode="&#x3c6;" horiz-adv-x="1434" 
d="M341.5 258.5q107.5 -107.5 292.5 -121.5v804q-189 -8 -294.5 -116.5t-105.5 -283.5t107.5 -282.5zM1094.5 824.5q-105.5 108.5 -294.5 116.5v-804q185 14 292.5 121.5t107.5 282.5t-105.5 283.5zM213 932q153 151 421 155v301h166v-301q268 -4 421 -155t153 -392
t-155.5 -389t-418.5 -160v-351h-166v351q-263 12 -418.5 160t-155.5 389t153 392z" />
    <glyph glyph-name="chigreek" unicode="&#x3c7;" horiz-adv-x="1139" 
d="M155 1080q93 0 147.5 -40.5t113.5 -159.5l183 -371h2l297 569h183l-405 -729l220 -440q36 -71 65.5 -95.5t72.5 -24.5t65 8l10 -149q-35 -10 -85 -10q-104 0 -156 35.5t-107 148.5l-189 377h-2l-294 -559h-183l403 719l-227 458q-34 67 -66 89.5t-77 22.5t-71 -8v149
q56 10 100 10z" />
    <glyph glyph-name="psigreek" unicode="&#x3c8;" horiz-adv-x="1414" 
d="M1217 1078q102 -204 102 -534q0 -102 -36.5 -212t-142.5 -226t-359 -116v-350h-167v350q-236 2 -368.5 117t-132.5 320v651h172v-630q0 -147 84 -224t245 -77v1241h167v-1241q360 4 360 403q0 179 -21.5 287.5t-80.5 240.5h178z" />
    <glyph glyph-name="omegagreek" unicode="&#x3c9;" horiz-adv-x="1545" 
d="M466 -10q-181 0 -276 132.5t-95 374.5t61 385t96 196h188q-167 -265 -167 -570q0 -185 51 -273t151 -88t155.5 77t55.5 207v338h172v-338q0 -200 79.5 -242t126.5 -42q106 0 157 88t51 273q0 305 -167 570h188q108 -164 132.5 -331t24.5 -241q0 -252 -95.5 -384
t-276.5 -132q-217 0 -303 236h-6q-86 -236 -303 -236z" />
    <glyph glyph-name="iotadieresisgreek" unicode="&#x3ca;" horiz-adv-x="578" 
d="M411 1261q-23 0 -43.5 9t-35.5 24t-24 35.5t-9 43.5t9 43.5t24 35.5t35.5 24t43.5 9t43.5 -9t35.5 -24t24 -35.5t9 -43.5t-9 -43.5t-24 -35.5t-35.5 -24t-43.5 -9zM17 1261q-23 0 -43.5 9t-35.5 24t-24 35.5t-9 43.5t9 43.5t24 35.5t35.5 24t43.5 9t43.5 -9t35.5 -24
t24 -35.5t9 -43.5t-9 -43.5t-24 -35.5t-35.5 -24t-43.5 -9zM285 330q0 -187 142 -187q66 0 101 8l10 -149q-44 -10 -122 -10q-161 0 -232 69.5t-71 226.5v790h172v-748z" />
    <glyph glyph-name="upsilondieresisgreek" unicode="&#x3cb;" horiz-adv-x="1107" 
d="M729 1261q-23 0 -43.5 9t-35.5 24t-24 35.5t-9 43.5t9 43.5t24 35.5t35.5 24t43.5 9t43.5 -9t35.5 -24t24 -35.5t9 -43.5t-9 -43.5t-24 -35.5t-35.5 -24t-43.5 -9zM335 1261q-23 0 -43.5 9t-35.5 24t-24 35.5t-9 43.5t9 43.5t24 35.5t35.5 24t43.5 9t43.5 -9t35.5 -24
t24 -35.5t9 -43.5t-9 -43.5t-24 -35.5t-35.5 -24t-43.5 -9zM918 1078q94 -226 94 -543q0 -99 -32 -207.5t-92 -183.5t-147 -114.5t-193 -39.5q-211 0 -323 114t-112 323v651h172v-642q0 -146 62.5 -217.5t192.5 -71.5q220 0 257 154.5t37 234.5q0 297 -89 542h173z" />
    <glyph glyph-name="omicrontonosgreek" unicode="&#x3cc;" horiz-adv-x="1114" 
d="M570 1560h221l-155 -310h-144zM593.5 145q111.5 0 194.5 103t83 289t-83.5 291t-230.5 105t-230.5 -105t-83.5 -289q0 -285 119.5 -339.5t231 -54.5zM199.5 140q-134.5 150 -134.5 401q0 250 133 398.5t359 148.5t359 -148.5t133 -398.5t-135 -400.5t-357.5 -150.5
t-357 150z" />
    <glyph glyph-name="upsilontonosgreek" unicode="&#x3cd;" horiz-adv-x="1107" 
d="M520 1560h221l-155 -310h-144zM918 1078q94 -226 94 -543q0 -99 -32 -207.5t-92 -183.5t-147 -114.5t-193 -39.5q-211 0 -323 114t-112 323v651h172v-642q0 -146 62.5 -217.5t192.5 -71.5q220 0 257 154.5t37 234.5q0 297 -89 542h173z" />
    <glyph glyph-name="omegatonosgreek" unicode="&#x3ce;" horiz-adv-x="1545" 
d="M781 1560h221l-155 -310h-144zM466 -10q-181 0 -276 132.5t-95 374.5t61 385t96 196h188q-167 -265 -167 -570q0 -185 51 -273t151 -88t155.5 77t55.5 207v338h172v-338q0 -200 79.5 -242t126.5 -42q106 0 157 88t51 273q0 305 -167 570h188q108 -164 132.5 -331
t24.5 -241q0 -252 -95.5 -384t-276.5 -132q-217 0 -303 236h-6q-86 -236 -303 -236z" />
    <glyph glyph-name="Iocyrillic" unicode="&#x401;" horiz-adv-x="1151" 
d="M794 1585q-23 0 -43.5 9t-35.5 24t-24 35.5t-9 43.5t9 43.5t24 35.5t35.5 24t43.5 9t43.5 -9t35.5 -24t24 -35.5t9 -43.5t-9 -43.5t-24 -35.5t-35.5 -24t-43.5 -9zM400 1585q-23 0 -43.5 9t-35.5 24t-24 35.5t-9 43.5t9 43.5t24 35.5t35.5 24t43.5 9t43.5 -9t35.5 -24
t24 -35.5t9 -43.5t-9 -43.5t-24 -35.5t-35.5 -24t-43.5 -9zM1044 0h-894v1443h894v-162h-714v-463h677v-160h-677v-496h714v-162z" />
    <glyph glyph-name="Djecyrillic" unicode="&#x402;" horiz-adv-x="1677" 
d="M713 761q134 146 357 146t355 -128t132 -336t-120 -333.5t-322 -125.5q-90 0 -130 18v161q43 -16 116 -16q134 0 205 78t71 216t-85 221t-212 83t-229.5 -59.5t-145.5 -150.5v-535h-180v1281h-465v162h1110v-162h-465v-520h8z" />
    <glyph glyph-name="Gjecyrillic" unicode="&#x403;" horiz-adv-x="1071" 
d="M512 1550l231 299h198l-281 -299h-148zM150 0v1443h856v-164h-675v-1279h-181z" />
    <glyph glyph-name="Ecyrillic" unicode="&#x404;" horiz-adv-x="1421" 
d="M224 230q-130 149 -130 490t177 544t473 203q229 0 392 -125.5t203 -333.5h-184q-40 135 -151.5 214t-259.5 79q-191 0 -317.5 -130.5t-142.5 -351.5h640v-162h-643q8 -234 135 -374.5t329 -140.5q155 0 261 67.5t149 192.5h184q-112 -426 -611 -426q-133 0 -253.5 52.5
t-250.5 201.5z" />
    <glyph glyph-name="Dzecyrillic" unicode="&#x405;" horiz-adv-x="1235" 
d="M969 375q0 99 -67 158t-212 97l-185 48q-295 74 -339.5 190.5t-44.5 198.5t37.5 157t142.5 159t325 84t361 -115t147 -297h-180q-18 177 -138.5 213.5t-225.5 36.5t-193.5 -66.5t-88.5 -159.5q0 -94 65.5 -147t210.5 -90l151 -40q329 -82 374.5 -201t45.5 -207
t-37.5 -167.5t-146 -165t-347.5 -85.5t-385.5 115.5t-158.5 305.5h181q12 -116 114 -187.5t255 -71.5q148 0 243.5 69t95.5 168z" />
    <glyph glyph-name="Icyrillic" unicode="&#x406;" horiz-adv-x="480" 
d="M150 0v1443h180v-1443h-180z" />
    <glyph glyph-name="Yicyrillic" unicode="&#x407;" horiz-adv-x="480" 
d="M437 1585q-23 0 -43.5 9t-35.5 24t-24 35.5t-9 43.5t9 43.5t24 35.5t35.5 24t43.5 9t43.5 -9t35.5 -24t24 -35.5t9 -43.5t-9 -43.5t-24 -35.5t-35.5 -24t-43.5 -9zM43 1585q-23 0 -43.5 9t-35.5 24t-24 35.5t-9 43.5t9 43.5t24 35.5t35.5 24t43.5 9t43.5 -9t35.5 -24
t24 -35.5t9 -43.5t-9 -43.5t-24 -35.5t-35.5 -24t-43.5 -9zM150 0v1443h180v-1443h-180z" />
    <glyph glyph-name="Jecyrillic" unicode="&#x408;" horiz-adv-x="1034" 
d="M704 403v1040h180v-1041q0 -205 -112 -320.5t-302 -115.5t-304 104.5t-114 268.5h179q2 -91 65.5 -149t172.5 -58q110 0 172.5 69t62.5 202z" />
    <glyph glyph-name="Ljecyrillic" unicode="&#x409;" horiz-adv-x="2153" 
d="M1549 162q156 0 240 76t84 216t-84.5 216t-239.5 76h-308v-584h308zM120 156q46 0 85 29.5t70.5 99t42.5 262.5l52 896h871v-535h353q203 0 333.5 -127t130.5 -328t-129.5 -327t-332.5 -126h-535v1281h-527l-46 -741q-17 -273 -101 -411t-267 -138q-42 0 -70 10v161
q24 -6 70 -6z" />
    <glyph glyph-name="Njecyrillic" unicode="&#x40a;" horiz-adv-x="2154" 
d="M330 0h-180v1443h180v-624h752v624h180v-624h353q204 0 334 -112t130 -293t-129.5 -297.5t-332.5 -116.5h-535v657h-752v-657zM1570 162q156 0 240 66.5t84 185.5t-84.5 181t-239.5 62h-308v-495h308z" />
    <glyph glyph-name="Tshecyrillic" unicode="&#x40b;" horiz-adv-x="1697" 
d="M713 763q134 144 359 144t355 -136t130 -364v-407h-180v395q0 165 -83 257.5t-236 92.5q-111 0 -210.5 -59.5t-142.5 -150.5v-535h-180v1281h-465v162h1110v-162h-465v-518h8z" />
    <glyph glyph-name="Kjecyrillic" unicode="&#x40c;" horiz-adv-x="1267" 
d="M330 701v-701h-180v1443h180v-665h8l620 665h226l-656 -690l723 -753h-247l-666 701h-8zM680 1550h-148l231 299h198z" />
    <glyph glyph-name="Ushortcyrillic" unicode="&#x40e;" horiz-adv-x="1220" 
d="M435 1850q0 -84 52.5 -142t134.5 -58t134.5 58t52.5 142h123q0 -133 -86.5 -216t-223.5 -83t-223.5 83t-86.5 216h123zM308 157q138 0 220 151l-493 1135h192l391 -935h8l382 935h187l-442 -1030q-101 -238 -201 -330.5t-248 -92.5q-66 0 -92 13v162q32 -8 96 -8z" />
    <glyph glyph-name="Dzhecyrillic" unicode="&#x40f;" horiz-adv-x="1431" 
d="M150 0v1443h180v-1281h771v1281h180v-1443h-482v-285h-167v285h-482z" />
    <glyph glyph-name="Acyrillic" unicode="&#x410;" horiz-adv-x="1312" 
d="M422 566h468l-231 658h-6zM943 413h-574l-145 -413h-189l532 1443h178l532 -1443h-189z" />
    <glyph glyph-name="Becyrillic" unicode="&#x411;" horiz-adv-x="1257" 
d="M628 162q156 0 240 70t84 202t-84.5 202t-239.5 70h-298v-544h298zM1007 120.5q-130 -120.5 -332 -120.5h-525v1443h843v-162h-663v-413h343q204 0 334 -122t130 -313.5t-130 -312z" />
    <glyph glyph-name="Vecyrillic" unicode="&#x412;" horiz-adv-x="1276" 
d="M686 159q331 0 331 253.5t-348 253.5h-339v-507h356zM330 821h288q161 0 245 61.5t84 174.5t-70.5 170t-202.5 57h-344v-463zM150 0v1443h565q185 0 299.5 -99t114.5 -261q0 -113 -72.5 -205t-176.5 -110v-8q145 -18 233.5 -114.5t88.5 -240.5q0 -192 -129.5 -298.5
t-359.5 -106.5h-563z" />
    <glyph glyph-name="Gecyrillic" unicode="&#x413;" horiz-adv-x="1071" 
d="M150 0v1443h856v-164h-675v-1279h-181z" />
    <glyph glyph-name="Decyrillic" unicode="&#x414;" horiz-adv-x="1480" 
d="M197 -285h-167v447h107q110 59 130.5 180.5t24.5 192.5l55 908h893v-1281h180v-447h-167v285h-1056v-285zM360 162h700v1119h-552l-47 -750q-13 -198 -43.5 -263.5t-57.5 -97.5v-8z" />
    <glyph glyph-name="Iecyrillic" unicode="&#x415;" horiz-adv-x="1151" 
d="M1044 0h-894v1443h894v-162h-714v-463h677v-160h-677v-496h714v-162z" />
    <glyph glyph-name="Zhecyrillic" unicode="&#x416;" horiz-adv-x="1967" 
d="M1071 701v-701h-180v701h-8l-631 -701h-232l675 750l-618 693h228l578 -665h8v665h180v-665h8l580 665h223l-616 -691l681 -752h-242l-626 701h-8z" />
    <glyph glyph-name="Zecyrillic" unicode="&#x417;" horiz-adv-x="1186" 
d="M391 817h195q132 0 216 72.5t84 184.5t-77 177.5t-210 65.5q-204 0 -254 -93.5t-56 -150.5h-175q14 188 145.5 296t340.5 108t339 -109t130 -277q0 -121 -74.5 -213t-193.5 -122v-8q143 -18 226.5 -115t83.5 -244q0 -178 -147 -300.5t-368 -122.5t-366 113t-155 297h174
q12 -113 107.5 -181.5t242.5 -68.5t237 74.5t90 193.5q0 189 -127 226t-205 37h-203v160z" />
    <glyph glyph-name="Iicyrillic" unicode="&#x418;" horiz-adv-x="1452" 
d="M1124 1148h-16l-780 -1148h-178v1443h178v-1152h16l780 1152h178v-1443h-178v1148z" />
    <glyph glyph-name="Iishortcyrillic" unicode="&#x419;" horiz-adv-x="1452" 
d="M538 1850q0 -84 52.5 -142t134.5 -58t134.5 58t52.5 142h123q0 -133 -86.5 -216t-223.5 -83t-223.5 83t-86.5 216h123zM1124 1148h-16l-780 -1148h-178v1443h178v-1152h16l780 1152h178v-1443h-178v1148z" />
    <glyph glyph-name="Kacyrillic" unicode="&#x41a;" horiz-adv-x="1278" 
d="M330 701v-701h-180v1443h180v-665h8l620 665h226l-656 -690l723 -753h-247l-666 701h-8z" />
    <glyph glyph-name="Elcyrillic" unicode="&#x41b;" horiz-adv-x="1391" 
d="M114 156q93 0 142.5 91t61.5 300l52 896h871v-1443h-180v1281h-527l-46 -741q-18 -289 -106 -419t-262 -130q-42 0 -70 10v161q24 -6 64 -6z" />
    <glyph glyph-name="Emcyrillic" unicode="&#x41c;" horiz-adv-x="1722" 
d="M1572 0h-168v1112h-7l-460 -1102h-152l-460 1102h-7v-1112h-168v1443h209l498 -1204h8l498 1204h209v-1443z" />
    <glyph glyph-name="Encyrillic" unicode="&#x41d;" horiz-adv-x="1452" 
d="M1122 0v657h-792v-657h-180v1443h180v-624h792v624h180v-1443h-180z" />
    <glyph glyph-name="Ocyrillic" unicode="&#x41e;" horiz-adv-x="1518" 
d="M759 1301q-111 0 -199.5 -40.5t-151 -116t-96 -183t-33.5 -240.5t33.5 -240t96 -182.5t151 -116t199.5 -40.5t199.5 40.5t151 116t96 182.5t33.5 240t-33.5 240.5t-96 183t-151 116t-199.5 40.5zM759 1467q153 0 276.5 -52t209.5 -149t132.5 -235t46.5 -310t-46.5 -310
t-132.5 -234.5t-209.5 -148.5t-276.5 -52t-276.5 52t-209.5 148.5t-132.5 234.5t-46.5 310t46.5 310t132.5 235t209.5 149t276.5 52z" />
    <glyph glyph-name="Pecyrillic" unicode="&#x41f;" horiz-adv-x="1431" 
d="M1103 0v1279h-772v-1279h-181v1443h1131v-1443h-178z" />
    <glyph glyph-name="Ercyrillic" unicode="&#x420;" horiz-adv-x="1232" 
d="M330 675h318q235 0 279.5 116.5t44.5 188.5q0 144 -84 223.5t-240 79.5h-318v-608zM695 1443q202 0 332 -128.5t130 -334.5q0 -205 -130 -335t-334 -130h-363v-515h-180v1443h545z" />
    <glyph glyph-name="Escyrillic" unicode="&#x421;" horiz-adv-x="1421" 
d="M224 230q-130 149 -130 490t177 544t473 203q229 0 392 -125.5t203 -333.5h-184q-40 135 -151.5 214t-238.5 79q-234 0 -360 -158.5t-126 -422.5t126.5 -421t339.5 -157q155 0 261 67.5t149 192.5h184q-112 -426 -611 -426q-133 0 -253.5 52.5t-250.5 201.5z" />
    <glyph glyph-name="Tecyrillic" unicode="&#x422;" horiz-adv-x="1230" 
d="M525 0v1281h-465v162h1110v-162h-465v-1281h-180z" />
    <glyph glyph-name="Ucyrillic" unicode="&#x423;" horiz-adv-x="1220" 
d="M308 157q138 0 220 151l-493 1135h192l391 -935h8l382 935h187l-442 -1030q-101 -238 -201 -330.5t-248 -92.5q-66 0 -92 13v162q32 -8 96 -8z" />
    <glyph glyph-name="Efcyrillic" unicode="&#x424;" horiz-adv-x="1623" 
d="M258 1153.5q173 160.5 465 168.5v141h178v-141q292 -6 464.5 -167t172.5 -428t-173 -427.5t-464 -168.5v-151h-178v151q-293 6 -465.5 167t-172.5 428t173 427.5zM1233.5 1038q-122.5 117 -332.5 123v-869q211 8 333 124.5t122 310.5t-122.5 311zM389.5 415
q122.5 -117 333.5 -123v869q-211 -8 -333.5 -124.5t-122.5 -310.5t122.5 -311z" />
    <glyph glyph-name="Xacyrillic" unicode="&#x425;" horiz-adv-x="1320" 
d="M546 723v7l-485 713h217l385 -580h7l390 580h205l-498 -722v-6l487 -715h-216l-383 575h-7l-389 -575h-204z" />
    <glyph glyph-name="Tsecyrillic" unicode="&#x426;" horiz-adv-x="1522" 
d="M1295 -285v285h-1145v1443h180v-1281h772v1281h180v-1281h180v-447h-167z" />
    <glyph glyph-name="Checyrillic" unicode="&#x427;" horiz-adv-x="1367" 
d="M1029 684q-144 -148 -379 -148t-380 146t-145 384v377h180v-365q0 -173 94 -274.5t253 -101.5q201 0 281.5 83.5t103.5 132.5v525h180v-1443h-180v684h-8z" />
    <glyph glyph-name="Shacyrillic" unicode="&#x428;" horiz-adv-x="1884" 
d="M150 1443h180v-1281h522v1281h180v-1281h522v1281h180v-1443h-1584v1443z" />
    <glyph glyph-name="Shchacyrillic" unicode="&#x429;" horiz-adv-x="1974" 
d="M1747 -285v285h-1597v1443h180v-1281h522v1281h180v-1281h522v1281h180v-1281h180v-447h-167z" />
    <glyph glyph-name="Hardsigncyrillic" unicode="&#x42a;" horiz-adv-x="1502" 
d="M918 162q156 0 240 76t84 216t-84.5 216t-239.5 76h-308v-584h308zM430 0v1281h-330v162h510v-535h353q203 0 333.5 -127t130.5 -328t-129.5 -327t-332.5 -126h-535z" />
    <glyph glyph-name="Yericyrillic" unicode="&#x42b;" horiz-adv-x="1670" 
d="M1340 0v1443h180v-1443h-180zM638 162q156 0 240 76t84 216t-84.5 216t-239.5 76h-308v-584h308zM150 1443h180v-535h353q204 0 334 -128t130 -327t-129 -326t-333 -127h-535v1443z" />
    <glyph glyph-name="Softsigncyrillic" unicode="&#x42c;" horiz-adv-x="1222" 
d="M638 162q156 0 240 76t84 216t-84.5 216t-239.5 76h-308v-584h308zM150 1443h180v-535h353q204 0 334 -128t130 -327t-129 -326t-333 -127h-535v1443z" />
    <glyph glyph-name="Ereversedcyrillic" unicode="&#x42d;" horiz-adv-x="1421" 
d="M698 -24q-251 0 -406.5 110t-209.5 316h184q64 -188 201 -224t225 -36t171 36t175 138.5t102 340.5h-643v162h640q-16 220 -139.5 351t-315.5 131q-148 0 -263.5 -80.5t-152.5 -212.5h-184q40 207 204.5 333t395.5 126q297 0 471 -202t174 -544q0 -341 -128.5 -490.5
t-248 -202t-252.5 -52.5z" />
    <glyph glyph-name="IUcyrillic" unicode="&#x42e;" horiz-adv-x="1991" 
d="M779 723q0 -271 124.5 -431t342.5 -160q217 0 341.5 160t124.5 431t-124.5 429.5t-340 158.5t-342 -158.5t-126.5 -429.5zM330 657v-657h-180v1443h180v-624h268q24 305 197 481.5t463 176.5t464.5 -203.5t174.5 -551.5t-174 -552t-473 -204q-293 0 -465.5 185
t-188.5 506h-266z" />
    <glyph glyph-name="IAcyrillic" unicode="&#x42f;" horiz-adv-x="1287" 
d="M259.5 1319.5q129.5 123.5 332.5 123.5h545v-1443h-180v555h-290l-398 -555h-214l414 577q-155 36 -247 150t-92 292q0 177 129.5 300.5zM957 1281h-318q-156 0 -240 -72.5t-84 -208.5t84.5 -209.5t239.5 -73.5h318v564z" />
    <glyph glyph-name="acyrillic" unicode="&#x430;" horiz-adv-x="1076" 
d="M430 -10q-151 0 -251 86.5t-100 228.5t103 221t301 91l302 18v90q0 101 -63.5 154.5t-196.5 53.5t-175.5 -64t-50.5 -102h-167q4 138 121.5 229.5t297.5 91.5t294 -94.5t114 -253.5v-740h-165v187h-4q-71 -139 -180.5 -168t-179.5 -29zM785 410v87l-282 -18
q-246 -16 -246 -173q0 -75 60.5 -120t144.5 -45q151 0 237 76.5t86 192.5z" />
    <glyph glyph-name="becyrillic" unicode="&#x431;" horiz-adv-x="1164" 
d="M587 136q236 0 280 149t44 241t-21.5 161.5t-63 117t-102 72.5t-176 25t-200.5 -97t-85 -281q0 -183 84.5 -285.5t239.5 -102.5zM613 1056q218 0 347 -142.5t129 -390.5t-134.5 -395t-375.5 -147t-367.5 164t-126.5 487q0 455 131 656t444 213l77 3q184 10 281 58v-153
q-59 -55 -273 -64l-78 -3q-219 -10 -308.5 -115t-125.5 -364h8q109 193 372 193z" />
    <glyph glyph-name="vecyrillic" unicode="&#x432;" horiz-adv-x="1041" 
d="M128 1078h462q229 0 276 -106t47 -158q0 -94 -51 -161t-125 -83v-8q101 -14 162.5 -83t61.5 -155q0 -157 -99 -240.5t-270 -83.5h-464v1078zM588 144q202 0 202 171t-235 171h-255v-342h288zM300 934v-304h240q203 0 203 154q0 73 -45 111.5t-130 38.5h-268z" />
    <glyph glyph-name="gecyrillic" unicode="&#x433;" horiz-adv-x="888" 
d="M300 934v-934h-172v1078h690v-144h-518z" />
    <glyph glyph-name="decyrillic" unicode="&#x434;" horiz-adv-x="1222" 
d="M20 -285v429h90q108 69 128 333l42 601h735v-934h172v-429h-162v285h-843v-285h-162zM843 934h-409l-34 -461q-18 -228 -89 -321v-8h532v790z" />
    <glyph glyph-name="iecyrillic" unicode="&#x435;" horiz-adv-x="1104" 
d="M207.5 936.5q132.5 151.5 350.5 151.5t344.5 -142t126.5 -387v-68h-774v-10q0 -155 87.5 -246.5t237.5 -91.5t201 63.5t63 101.5h172q-22 -138 -148 -228t-313 -90q-100 0 -191 38t-190 147t-99 359.5t132.5 402zM346.5 850q-83.5 -85 -91.5 -220h593q-4 138 -83.5 221.5
t-206.5 83.5q-128 0 -211.5 -85z" />
    <glyph glyph-name="zhecyrillic" unicode="&#x436;" horiz-adv-x="1566" 
d="M867 521v-521h-172v521h-8l-441 -521h-221l489 565l-478 513h215l436 -479h8v479h172v-479h8l436 479h214l-476 -510l492 -568h-225l-441 521h-8z" />
    <glyph glyph-name="zecyrillic" unicode="&#x437;" horiz-adv-x="981" 
d="M190.5 62q-116.5 80 -130.5 214h177q16 -71 80 -110t145 -39q138 0 203 49.5t65 137.5q0 174 -247 174h-163v144h163q211 0 211 161q0 110 -77 134t-127 24q-100 0 -163 -39.5t-73 -103.5h-170q18 134 126.5 211.5t281.5 77.5t272.5 -79t99.5 -210t-69.5 -178.5
t-110.5 -56.5v-8q108 -23 162.5 -88t54.5 -149t-30 -146.5t-115.5 -131t-266.5 -68.5q-182 0 -298.5 80z" />
    <glyph glyph-name="iicyrillic" unicode="&#x438;" horiz-adv-x="1163" 
d="M128 0v1078h172v-809h8l555 809h172v-1078h-172v809h-8l-555 -809h-172z" />
    <glyph glyph-name="iishortcyrillic" unicode="&#x439;" horiz-adv-x="1163" 
d="M391 1550q0 -89 53.5 -148t140.5 -59t140.5 59t53.5 148h128q0 -138 -89.5 -224t-232.5 -86t-232.5 86t-89.5 224h128zM128 0v1078h172v-809h8l555 809h172v-1078h-172v809h-8l-555 -809h-172z" />
    <glyph glyph-name="kacyrillic" unicode="&#x43a;" horiz-adv-x="1029" 
d="M300 521v-521h-172v1078h172v-479h8l466 479h216l-507 -511l521 -567h-225l-471 521h-8z" />
    <glyph glyph-name="elcyrillic" unicode="&#x43b;" horiz-adv-x="1121" 
d="M91 152q133 0 155 325l42 601h705v-1078h-172v934h-377l-34 -461q-17 -239 -87.5 -360.5t-229.5 -121.5q-38 0 -63 11v158q28 -8 61 -8z" />
    <glyph glyph-name="emcyrillic" unicode="&#x43c;" horiz-adv-x="1455" 
d="M128 0v1078h209l390 -847h8l391 847h201v-1078h-173v767h-8l-352 -737h-134l-352 737h-8v-767h-172z" />
    <glyph glyph-name="encyrillic" unicode="&#x43d;" horiz-adv-x="1148" 
d="M848 488h-548v-488h-172v1078h172v-446h548v446h172v-1078h-172v488z" />
    <glyph glyph-name="ocyrillic" unicode="&#x43e;" horiz-adv-x="1144" 
d="M572 145q75 0 134.5 27t101 77.5t63 123.5t21.5 166t-21.5 166t-63 124t-101 77.5t-134.5 26.5t-134.5 -27t-101 -77.5t-63 -123.5t-21.5 -166t22 -166t63 -123.5t100.5 -77.5t134.5 -27zM75 540q0 252 135 400t362 148t362 -148t135 -400t-135.5 -401t-361.5 -149
t-361.5 149t-135.5 401z" />
    <glyph glyph-name="pecyrillic" unicode="&#x43f;" horiz-adv-x="1138" 
d="M838 934h-538v-934h-172v1078h882v-1078h-172v934z" />
    <glyph glyph-name="ercyrillic" unicode="&#x440;" horiz-adv-x="1183" 
d="M930 539q0 179 -86.5 286.5t-227.5 107.5t-228 -108.5t-87 -285.5t86.5 -285.5t226.5 -108.5q142 0 229 107.5t87 286.5zM670 1088q80 0 164.5 -39.5t145.5 -111.5t94.5 -173.5t33.5 -286t-126.5 -336t-331.5 -151.5q-115 0 -204 48t-140 137h-4v-535h-174v1438h165v-175
h4q106 185 373 185z" />
    <glyph glyph-name="escyrillic" unicode="&#x441;" horiz-adv-x="1078" 
d="M569 -10q-224 0 -359 148.5t-135 398.5t135 400.5t357 150.5q185 0 304.5 -98.5t144.5 -241.5h-173q-37 130 -127.5 157.5t-154.5 27.5q-135 0 -222 -108t-87 -288t87 -286t231 -106q222 0 275 182h173q-28 -152 -149.5 -244.5t-299.5 -92.5z" />
    <glyph glyph-name="tecyrillic" unicode="&#x442;" horiz-adv-x="952" 
d="M912 934h-350v-934h-172v934h-350v144h872v-144z" />
    <glyph glyph-name="ucyrillic" unicode="&#x443;" horiz-adv-x="1046" 
d="M333.5 -204q44.5 39 79.5 139l21 64l-399 1079h185l302 -901h4l302 901h183l-422 -1144q-70 -188 -147.5 -256.5t-221.5 -68.5q-39 0 -76 7v147q30 -6 88 -6q57 0 101.5 39z" />
    <glyph glyph-name="efcyrillic" unicode="&#x444;" horiz-adv-x="1429" 
d="M227 937q152 150 404 154v352h168v-352q251 -4 403 -154.5t152 -398.5q0 -247 -151 -397t-404 -154v-347h-168v347q-251 4 -403.5 154.5t-152.5 398t152 397.5zM1076 829.5q-103 108.5 -277 112.5v-806q175 4 277.5 112t102.5 290.5t-103 291zM353 248.5
q103 -108.5 278 -112.5v806q-176 -4 -278.5 -112t-102.5 -290.5t103 -291z" />
    <glyph glyph-name="hacyrillic" unicode="&#x445;" horiz-adv-x="1011" 
d="M502 413l-263 -413h-194l369 539l-363 539h194l263 -407h4l260 407h194l-365 -532l360 -546h-194l-261 413h-4z" />
    <glyph glyph-name="tsecyrillic" unicode="&#x446;" horiz-adv-x="1207" 
d="M1010 -285v285h-882v1078h172v-934h528v934h172v-934h172v-429h-162z" />
    <glyph glyph-name="checyrillic" unicode="&#x447;" horiz-adv-x="1070" 
d="M100 770v308h172v-308q0 -107 55 -170t158 -63q188 0 285 136v405h172v-1078h-172v491h-8q-123 -107 -294 -107t-269.5 106t-98.5 280z" />
    <glyph glyph-name="shacyrillic" unicode="&#x448;" horiz-adv-x="1588" 
d="M128 1078h172v-934h408v934h172v-934h408v934h172v-1078h-1332v1078z" />
    <glyph glyph-name="shchacyrillic" unicode="&#x449;" horiz-adv-x="1667" 
d="M1470 -285v285h-1342v1078h172v-934h408v934h172v-934h408v934h172v-934h172v-429h-162z" />
    <glyph glyph-name="hardsigncyrillic" unicode="&#x44a;" horiz-adv-x="1180" 
d="M502 588v-444h203q105 0 169 60t64 162q0 101 -63.5 161.5t-169.5 60.5h-203zM330 0v934h-290v144h462v-346h203q186 0 295.5 -99.5t109.5 -266.5t-109.5 -266.5t-295.5 -99.5h-375z" />
    <glyph glyph-name="yericyrillic" unicode="&#x44b;" horiz-adv-x="1344" 
d="M128 1078h172v-346h203q186 0 295.5 -99.5t109.5 -266.5t-109.5 -266.5t-295.5 -99.5h-375v1078zM300 588v-444h203q105 0 169 60t64 162q0 101 -63.5 161.5t-169.5 60.5h-203zM1044 1078h172v-1078h-172v1078z" />
    <glyph glyph-name="softsigncyrillic" unicode="&#x44c;" horiz-adv-x="978" 
d="M128 1078h172v-346h203q186 0 295.5 -99.5t109.5 -266.5t-109.5 -266.5t-295.5 -99.5h-375v1078zM300 588v-444h203q105 0 169 60t64 162q0 101 -63.5 161.5t-169.5 60.5h-203z" />
    <glyph glyph-name="ereversedcyrillic" unicode="&#x44d;" horiz-adv-x="1078" 
d="M330 488v144h489q-18 139 -102.5 220t-206.5 81q-165 0 -214.5 -73t-60.5 -112h-173q26 144 146 242t303 98q222 0 357 -150.5t135 -400.5t-135 -398.5t-359 -148.5q-177 0 -298.5 91.5t-150.5 244.5h173q53 -181 275 -181q132 0 219 91t97 252h-494z" />
    <glyph glyph-name="iucyrillic" unicode="&#x44e;" horiz-adv-x="1544" 
d="M982 136q74 0 131.5 27t97 79t60 126.5t20.5 170.5t-20.5 171t-60 126.5t-97 78.5t-131.5 27t-131.5 -27t-97 -78.5t-60 -126.5t-20.5 -171t20.5 -170.5t60 -126.5t97 -79t131.5 -27zM639 115.5q-129 134.5 -143 372.5h-196v-488h-172v1078h172v-446h200
q24 220 150.5 342.5t341.5 122.5t346 -149.5t131 -408.5t-130.5 -408.5t-350.5 -149.5t-349 134.5z" />
    <glyph glyph-name="iacyrillic" unicode="&#x44f;" horiz-adv-x="1020" 
d="M351 418q-244 68 -244 316q0 70 28.5 136.5t109.5 137t267 70.5h380v-1078h-172v386h-195l-275 -386h-200zM720 530v404h-208q-107 0 -170 -55t-63 -147t64 -147t169 -55h208z" />
    <glyph glyph-name="iocyrillic" unicode="&#x451;" horiz-adv-x="1104" 
d="M758 1261q-23 0 -43.5 9t-35.5 24t-24 35.5t-9 43.5t9 43.5t24 35.5t35.5 24t43.5 9t43.5 -9t35.5 -24t24 -35.5t9 -43.5t-9 -43.5t-24 -35.5t-35.5 -24t-43.5 -9zM364 1261q-23 0 -43.5 9t-35.5 24t-24 35.5t-9 43.5t9 43.5t24 35.5t35.5 24t43.5 9t43.5 -9t35.5 -24
t24 -35.5t9 -43.5t-9 -43.5t-24 -35.5t-35.5 -24t-43.5 -9zM207.5 936.5q132.5 151.5 350.5 151.5t344.5 -142t126.5 -387v-68h-774v-10q0 -155 87.5 -246.5t237.5 -91.5t201 63.5t63 101.5h172q-22 -138 -148 -228t-313 -90q-100 0 -191 38t-190 147t-99 359.5t132.5 402z
M346.5 850q-83.5 -85 -91.5 -220h593q-4 138 -83.5 221.5t-206.5 83.5q-128 0 -211.5 -85z" />
    <glyph glyph-name="djecyrillic" unicode="&#x452;" horiz-adv-x="1204" 
d="M1081 -84q0 -165 -81.5 -239.5t-251.5 -74.5h-30v147h26q132 0 147.5 61t15.5 106v741q0 197 -104.5 236.5t-170.5 39.5q-134 0 -218 -86t-84 -227v-620h-174v1247h-122v124h122v185h174v-185h260v-124h-260v-344h4q102 185 352 185q177 0 286 -110.5t109 -289.5v-772z
" />
    <glyph glyph-name="gjecyrillic" unicode="&#x453;" horiz-adv-x="897" 
d="M378 1250l211 300h198l-261 -300h-148zM300 934v-934h-172v1078h690v-144h-518z" />
    <glyph glyph-name="ecyrillic" unicode="&#x454;" horiz-adv-x="1078" 
d="M569 -10q-224 0 -359 148.5t-135 398.5t135 400.5t357 150.5q183 0 303 -98t146 -242h-173q-37 130 -127.5 157.5t-149.5 27.5q-120 0 -204.5 -81t-102.5 -220h489v-144h-494q8 -159 96 -251t220 -92q222 0 275 181h173q-29 -153 -150.5 -244.5t-298.5 -91.5z" />
    <glyph glyph-name="dzecyrillic" unicode="&#x455;" horiz-adv-x="1003" 
d="M509 134q171 0 205 61t34 107t-38 80t-130 58l-189 49q-281 73 -281 288q0 136 112 223t282 87t280.5 -87.5t116.5 -220.5h-167q-8 76 -70 120t-136 44q-124 0 -185.5 -43.5t-61.5 -105.5q0 -63 44 -100.5t138 -60.5l164 -41q164 -42 230 -106t66 -192t-119 -216
t-300 -88t-296.5 87t-127.5 226h175q29 -169 254 -169z" />
    <glyph glyph-name="icyrillic" unicode="&#x456;" horiz-adv-x="450" 
d="M225 1252q-23 0 -43 8.5t-35 23.5t-23.5 35t-8.5 43t8.5 43t23.5 35t35 23.5t43 8.5t43 -8.5t35 -23.5t23.5 -35t8.5 -43t-8.5 -43t-23.5 -35t-35 -23.5t-43 -8.5zM138 1078h174v-1078h-174v1078z" />
    <glyph glyph-name="yicyrillic" unicode="&#x457;" horiz-adv-x="450" 
d="M422 1261q-23 0 -43.5 9t-35.5 24t-24 35.5t-9 43.5t9 43.5t24 35.5t35.5 24t43.5 9t43.5 -9t35.5 -24t24 -35.5t9 -43.5t-9 -43.5t-24 -35.5t-35.5 -24t-43.5 -9zM28 1261q-23 0 -43.5 9t-35.5 24t-24 35.5t-9 43.5t9 43.5t24 35.5t35.5 24t43.5 9t43.5 -9t35.5 -24
t24 -35.5t9 -43.5t-9 -43.5t-24 -35.5t-35.5 -24t-43.5 -9zM138 1078h174v-1078h-174v1078z" />
    <glyph glyph-name="jecyrillic" unicode="&#x458;" horiz-adv-x="463" 
d="M225 1252q-23 0 -43 8.5t-35 23.5t-23.5 35t-8.5 43t8.5 43t23.5 35t35 23.5t43 8.5t43 -8.5t35 -23.5t23.5 -35t8.5 -43t-8.5 -43t-23.5 -35t-35 -23.5t-43 -8.5zM312 -81q0 -164 -79.5 -240.5t-251.5 -76.5h-31v147h27q89 0 125 38t36 129v1162h174v-1159z" />
    <glyph glyph-name="ljecyrillic" unicode="&#x459;" horiz-adv-x="1671" 
d="M993 588v-444h203q105 0 169 60t64 162q0 101 -63.5 161.5t-169.5 60.5h-203zM91 152q133 0 155 325l42 601h705v-346h203q186 0 295.5 -99.5t109.5 -266.5t-109.5 -266.5t-295.5 -99.5h-375v934h-377l-34 -461q-17 -239 -87.5 -360.5t-229.5 -121.5q-38 0 -63 11v158
q28 -8 61 -8z" />
    <glyph glyph-name="njecyrillic" unicode="&#x45a;" horiz-adv-x="1678" 
d="M828 518h-528v-518h-172v1078h172v-416h528v416h172v-416h213q181 0 288 -89.5t107 -241.5t-107 -241.5t-288 -89.5h-385v518zM1000 518v-374h213q100 0 161.5 51t61.5 136t-60.5 136t-162.5 51h-213z" />
    <glyph glyph-name="tshecyrillic" unicode="&#x45b;" horiz-adv-x="1204" 
d="M686 1088q177 0 286 -110.5t109 -289.5v-688h-174v657q0 197 -104.5 236.5t-170.5 39.5q-134 0 -218 -86t-84 -227v-620h-174v1247h-122v124h122v185h174v-185h260v-124h-260v-344h4q102 185 352 185z" />
    <glyph glyph-name="kjecyrillic" unicode="&#x45c;" horiz-adv-x="1029" 
d="M300 521v-521h-172v1078h172v-479h8l466 479h216l-507 -511l521 -567h-225l-471 521h-8zM586 1250h-148l211 300h198z" />
    <glyph glyph-name="ushortcyrillic" unicode="&#x45e;" horiz-adv-x="1046" 
d="M329 1550q0 -89 53.5 -148t140.5 -59t140.5 59t53.5 148h128q0 -138 -89.5 -224t-232.5 -86t-232.5 86t-89.5 224h128zM333.5 -204q44.5 39 79.5 139l21 64l-399 1079h185l302 -901h4l302 901h183l-422 -1144q-70 -188 -147.5 -256.5t-221.5 -68.5q-39 0 -76 7v147
q30 -6 88 -6q57 0 101.5 39z" />
    <glyph glyph-name="dzhecyrillic" unicode="&#x45f;" horiz-adv-x="1138" 
d="M650 0v-285h-162v285h-360v1078h172v-934h538v934h172v-1078h-360z" />
    <glyph glyph-name="Geupturncyrillic" unicode="&#x490;" horiz-adv-x="1071" 
d="M331 0h-181v1443h689v285h167v-449h-675v-1279z" />
    <glyph glyph-name="geupturncyrillic" unicode="&#x491;" horiz-adv-x="888" 
d="M300 934v-934h-172v1078h528v285h162v-429h-518z" />
    <glyph glyph-name="baht" unicode="&#xe3f;" horiz-adv-x="1239" 
d="M985.5 106.5q-129.5 -106.5 -359.5 -106.5h-6v-137h-134v137h-362v1443h362v157h134v-157q196 -2 309 -98t113 -262q0 -111 -72.5 -202t-176.5 -109v-16q147 -18 234.5 -113t87.5 -262q0 -168 -129.5 -274.5zM860 1052q0 102 -62.5 161t-177.5 69v-456q240 29 240 226z
M304 821h182v463h-182v-463zM486 159v507h-182v-507h182zM930 414q0 237 -310 251v-506q310 10 310 255z" />
    <glyph glyph-name="Aringbelow" unicode="&#x1e00;" horiz-adv-x="1292" 
d="M646 -475q24 0 45 9t37 25t25 37t9 45t-9 45t-25 37t-37 25t-45 9t-45 -9t-37 -25t-25 -37t-9 -45t9 -45t25 -37t37 -25t45 -9zM646 -558q-41 0 -77 16t-63 43t-43 63t-16 77t16 77t43 63t63 43t77 16t77 -16t63 -43t43 -63t16 -77t-16 -77t-43 -63t-63 -43t-77 -16z
M412 566h468l-231 658h-6zM933 413h-574l-145 -413h-189l532 1443h178l532 -1443h-189z" />
    <glyph glyph-name="aringbelow" unicode="&#x1e01;" horiz-adv-x="1062" 
d="M512 -475q24 0 45 9t37 25t25 37t9 45t-9 45t-25 37t-37 25t-45 9t-45 -9t-37 -25t-25 -37t-9 -45t9 -45t25 -37t37 -25t45 -9zM512 -558q-41 0 -77 16t-63 43t-43 63t-16 77t16 77t43 63t63 43t77 16t77 -16t63 -43t43 -63t16 -77t-16 -77t-43 -63t-63 -43t-77 -16z
M420 -10q-151 0 -251 86.5t-100 228.5t103 221t301 91l302 18v90q0 101 -63.5 154.5t-196.5 53.5t-175.5 -64t-50.5 -102h-167q4 138 121.5 229.5t297.5 91.5t294 -94.5t114 -253.5v-740h-165v187h-4q-71 -139 -180.5 -168t-179.5 -29zM775 410v87l-282 -18
q-246 -16 -246 -173q0 -75 60.5 -120t144.5 -45q151 0 237 76.5t86 192.5z" />
    <glyph glyph-name="Bdotaccent" unicode="&#x1e02;" horiz-adv-x="1256" 
d="M561 1585q-25 0 -47 9.5t-38.5 26t-26 38.5t-9.5 47t9.5 47t26 38.5t38.5 26t47 9.5t47 -9.5t38.5 -26t26 -38.5t9.5 -47t-9.5 -47t-26 -38.5t-38.5 -26t-47 -9.5zM676 159q331 0 331 253.5t-348 253.5h-339v-507h356zM320 821h288q161 0 245 61.5t84 174.5t-70.5 170
t-202.5 57h-344v-463zM140 0v1443h565q185 0 299.5 -99t114.5 -261q0 -113 -72.5 -205t-176.5 -110v-8q145 -18 233.5 -114.5t88.5 -240.5q0 -192 -129.5 -298.5t-359.5 -106.5h-563z" />
    <glyph glyph-name="bdotaccent" unicode="&#x1e03;" horiz-adv-x="1173" 
d="M215 1648q-25 0 -47 9.5t-38.5 26t-26 38.5t-9.5 47t9.5 47t26 38.5t38.5 26t47 9.5t47 -9.5t38.5 -26t26 -38.5t9.5 -47t-9.5 -47t-26 -38.5t-38.5 -26t-47 -9.5zM301 538q0 -175 87 -284t228.5 -109t227.5 107t86 286t-86 287t-227 108t-228.5 -110t-87.5 -285z
M293 182v-182h-165v1506h174v-603h4q51 89 141.5 137t198.5 48q211 0 336.5 -151t125.5 -398t-126.5 -398t-333.5 -151q-243 0 -351 192h-4z" />
    <glyph glyph-name="Bdotbelow" unicode="&#x1e04;" horiz-adv-x="1256" 
d="M561 -392q-25 0 -47 9.5t-38.5 26t-26 38.5t-9.5 47t9.5 47t26 38.5t38.5 26t47 9.5t47 -9.5t38.5 -26t26 -38.5t9.5 -47t-9.5 -47t-26 -38.5t-38.5 -26t-47 -9.5zM676 159q331 0 331 253.5t-348 253.5h-339v-507h356zM320 821h288q161 0 245 61.5t84 174.5t-70.5 170
t-202.5 57h-344v-463zM140 0v1443h565q185 0 299.5 -99t114.5 -261q0 -113 -72.5 -205t-176.5 -110v-8q145 -18 233.5 -114.5t88.5 -240.5q0 -192 -129.5 -298.5t-359.5 -106.5h-563z" />
    <glyph glyph-name="bdotbelow" unicode="&#x1e05;" horiz-adv-x="1173" 
d="M618 -392q-25 0 -47 9.5t-38.5 26t-26 38.5t-9.5 47t9.5 47t26 38.5t38.5 26t47 9.5t47 -9.5t38.5 -26t26 -38.5t9.5 -47t-9.5 -47t-26 -38.5t-38.5 -26t-47 -9.5zM301 538q0 -175 87 -284t228.5 -109t227.5 107t86 286t-86 287t-227 108t-228.5 -110t-87.5 -285z
M293 182v-182h-165v1506h174v-603h4q51 89 141.5 137t198.5 48q211 0 336.5 -151t125.5 -398t-126.5 -398t-333.5 -151q-243 0 -351 192h-4z" />
    <glyph glyph-name="Blinebelow" unicode="&#x1e06;" horiz-adv-x="1256" 
d="M878 -326h-634v106h634v-106zM676 159q331 0 331 253.5t-348 253.5h-339v-507h356zM320 821h288q161 0 245 61.5t84 174.5t-70.5 170t-202.5 57h-344v-463zM140 0v1443h565q185 0 299.5 -99t114.5 -261q0 -113 -72.5 -205t-176.5 -110v-8q145 -18 233.5 -114.5
t88.5 -240.5q0 -192 -129.5 -298.5t-359.5 -106.5h-563z" />
    <glyph glyph-name="blinebelow" unicode="&#x1e07;" horiz-adv-x="1173" 
d="M935 -326h-634v106h634v-106zM301 538q0 -175 87 -284t228.5 -109t227.5 107t86 286t-86 287t-227 108t-228.5 -110t-87.5 -285zM293 182v-182h-165v1506h174v-603h4q51 89 141.5 137t198.5 48q211 0 336.5 -151t125.5 -398t-126.5 -398t-333.5 -151q-243 0 -351 192h-4z
" />
    <glyph glyph-name="Ccedillaacute" unicode="&#x1e08;" horiz-adv-x="1405" 
d="M715 -369q120 0 120 73q0 35 -35 50.5t-115 15.5h-55v74l51 134q-276 18 -436.5 217t-160.5 533t177 536.5t473 202.5q234 0 399.5 -131t199.5 -348h-182q-34 141 -148.5 227t-268.5 86q-213 0 -339 -158.5t-126 -422.5t126.5 -421t353.5 -157t304.5 106t97.5 172h182
q-47 -201 -185 -314.5t-354 -127.5l-44 -120q209 0 209 -150q0 -76 -62 -126.5t-151 -51.5t-153 18v98q35 -15 122 -15zM811 1552h-148l231 299h198z" />
    <glyph glyph-name="ccedillaacute" unicode="&#x1e09;" horiz-adv-x="1060" 
d="M540 -369q120 0 120 73q0 35 -35 50.5t-115 15.5h-55v74l57 148q-205 16 -326 162t-121 389t135 394t341 151t328.5 -105.5t139.5 -255.5h-171q-26 142 -122.5 174t-162.5 32q-137 0 -224 -108t-87 -288t87 -286t216 -106q248 0 295 200h171q-31 -222 -169 -282t-217 -69
l-50 -136q209 0 209 -150q0 -76 -62 -126.5t-151 -51.5t-153 18v98q35 -15 122 -15zM631 1250h-148l211 300h198z" />
    <glyph glyph-name="Ddotaccent" unicode="&#x1e0a;" horiz-adv-x="1399" 
d="M550 1585q-25 0 -47 9.5t-38.5 26t-26 38.5t-9.5 47t9.5 47t26 38.5t38.5 26t47 9.5t47 -9.5t38.5 -26t26 -38.5t9.5 -47t-9.5 -47t-26 -38.5t-38.5 -26t-47 -9.5zM320 162h303q244 0 376.5 144.5t132.5 413.5q0 411 -193 486t-316 75h-303v-1119zM635 1443
q320 0 500.5 -190t180.5 -531q0 -342 -180 -532t-501 -190h-495v1443h495z" />
    <glyph glyph-name="ddotaccent" unicode="&#x1e0b;" horiz-adv-x="1173" 
d="M958 1648q-25 0 -47 9.5t-38.5 26t-26 38.5t-9.5 47t9.5 47t26 38.5t38.5 26t47 9.5t47 -9.5t38.5 -26t26 -38.5t9.5 -47t-9.5 -47t-26 -38.5t-38.5 -26t-47 -9.5zM558 933q-141 0 -228 -107.5t-87 -286.5t86.5 -286.5t228.5 -107.5q141 0 227.5 109.5t86.5 284.5
t-86 284.5t-228 109.5zM527 -10q-204 0 -333 151.5t-129 397t127.5 397.5t330.5 152q116 0 205 -48t139 -137h4v603h174v-1506h-166v182h-3q-108 -192 -349 -192z" />
    <glyph glyph-name="Ddotbelow" unicode="&#x1e0c;" horiz-adv-x="1399" 
d="M550 -392q-25 0 -47 9.5t-38.5 26t-26 38.5t-9.5 47t9.5 47t26 38.5t38.5 26t47 9.5t47 -9.5t38.5 -26t26 -38.5t9.5 -47t-9.5 -47t-26 -38.5t-38.5 -26t-47 -9.5zM320 162h303q244 0 376.5 144.5t132.5 413.5q0 411 -193 486t-316 75h-303v-1119zM635 1443
q320 0 500.5 -190t180.5 -531q0 -342 -180 -532t-501 -190h-495v1443h495z" />
    <glyph glyph-name="ddotbelow" unicode="&#x1e0d;" horiz-adv-x="1173" 
d="M527 -392q-25 0 -47 9.5t-38.5 26t-26 38.5t-9.5 47t9.5 47t26 38.5t38.5 26t47 9.5t47 -9.5t38.5 -26t26 -38.5t9.5 -47t-9.5 -47t-26 -38.5t-38.5 -26t-47 -9.5zM558 933q-141 0 -228 -107.5t-87 -286.5t86.5 -286.5t228.5 -107.5q141 0 227.5 109.5t86.5 284.5
t-86 284.5t-228 109.5zM527 -10q-204 0 -333 151.5t-129 397t127.5 397.5t330.5 152q116 0 205 -48t139 -137h4v603h174v-1506h-166v182h-3q-108 -192 -349 -192z" />
    <glyph glyph-name="Dlinebelow" unicode="&#x1e0e;" horiz-adv-x="1399" 
d="M867 -326h-634v106h634v-106zM320 162h303q244 0 376.5 144.5t132.5 413.5q0 411 -193 486t-316 75h-303v-1119zM635 1443q320 0 500.5 -190t180.5 -531q0 -342 -180 -532t-501 -190h-495v1443h495z" />
    <glyph glyph-name="dlinebelow" unicode="&#x1e0f;" horiz-adv-x="1173" 
d="M844 -326h-634v106h634v-106zM558 933q-141 0 -228 -107.5t-87 -286.5t86.5 -286.5t228.5 -107.5q141 0 227.5 109.5t86.5 284.5t-86 284.5t-228 109.5zM527 -10q-204 0 -333 151.5t-129 397t127.5 397.5t330.5 152q116 0 205 -48t139 -137h4v603h174v-1506h-166v182h-3
q-108 -192 -349 -192z" />
    <glyph glyph-name="Dcommaaccent" unicode="&#x1e10;" horiz-adv-x="1399" 
d="M409 -541l91 369h153l-118 -369h-126zM320 162h303q244 0 376.5 144.5t132.5 413.5q0 411 -193 486t-316 75h-303v-1119zM635 1443q320 0 500.5 -190t180.5 -531q0 -342 -180 -532t-501 -190h-495v1443h495z" />
    <glyph glyph-name="dcommaaccent" unicode="&#x1e11;" horiz-adv-x="1173" 
d="M386 -541l91 369h153l-118 -369h-126zM558 933q-141 0 -228 -107.5t-87 -286.5t86.5 -286.5t228.5 -107.5q141 0 227.5 109.5t86.5 284.5t-86 284.5t-228 109.5zM527 -10q-204 0 -333 151.5t-129 397t127.5 397.5t330.5 152q116 0 205 -48t139 -137h4v603h174v-1506h-166
v182h-3q-108 -192 -349 -192z" />
    <glyph glyph-name="Dcircumflexbelow" unicode="&#x1e12;" horiz-adv-x="1399" 
d="M621 -166l292 -299h-168l-194 201h-2l-194 -201h-168l292 299h142zM320 162h303q244 0 376.5 144.5t132.5 413.5q0 411 -193 486t-316 75h-303v-1119zM635 1443q320 0 500.5 -190t180.5 -531q0 -342 -180 -532t-501 -190h-495v1443h495z" />
    <glyph glyph-name="dcircumflexbelow" unicode="&#x1e13;" horiz-adv-x="1173" 
d="M598 -166l292 -299h-168l-194 201h-2l-194 -201h-168l292 299h142zM558 933q-141 0 -228 -107.5t-87 -286.5t86.5 -286.5t228.5 -107.5q141 0 227.5 109.5t86.5 284.5t-86 284.5t-228 109.5zM527 -10q-204 0 -333 151.5t-129 397t127.5 397.5t330.5 152q116 0 205 -48
t139 -137h4v603h174v-1506h-166v182h-3q-108 -192 -349 -192z" />
    <glyph glyph-name="Emacrongrave" unicode="&#x1e14;" horiz-adv-x="1131" 
d="M519 1849l-236 204h187l185 -204h-136zM270 1748h634v-106h-634v106zM1034 0h-894v1443h894v-162h-714v-463h677v-160h-677v-496h714v-162z" />
    <glyph glyph-name="emacrongrave" unicode="&#x1e15;" horiz-adv-x="1084" 
d="M868 1320h-634v106h634v-106zM476 1592l-199 257h188l161 -257h-150zM197.5 936.5q132.5 151.5 350.5 151.5t344.5 -142t126.5 -387v-68h-774v-10q0 -155 87.5 -246.5t237.5 -91.5t201 63.5t63 101.5h172q-22 -138 -148 -228t-313 -90q-100 0 -191 38t-190 147t-99 359.5
t132.5 402zM336.5 850q-83.5 -85 -91.5 -220h593q-4 138 -83.5 221.5t-206.5 83.5q-128 0 -211.5 -85z" />
    <glyph glyph-name="Emacronacute" unicode="&#x1e16;" horiz-adv-x="1131" 
d="M704 2053h187l-236 -204h-136zM270 1642v106h634v-106h-634zM1034 0h-894v1443h894v-162h-714v-463h677v-160h-677v-496h714v-162z" />
    <glyph glyph-name="emacronacute" unicode="&#x1e17;" horiz-adv-x="1084" 
d="M868 1320h-634v106h634v-106zM637 1849h188l-199 -257h-150zM197.5 936.5q132.5 151.5 350.5 151.5t344.5 -142t126.5 -387v-68h-774v-10q0 -155 87.5 -246.5t237.5 -91.5t201 63.5t63 101.5h172q-22 -138 -148 -228t-313 -90q-100 0 -191 38t-190 147t-99 359.5
t132.5 402zM336.5 850q-83.5 -85 -91.5 -220h593q-4 138 -83.5 221.5t-206.5 83.5q-128 0 -211.5 -85z" />
    <glyph glyph-name="Ecircumflexbelow" unicode="&#x1e18;" horiz-adv-x="1131" 
d="M658 -166l292 -299h-168l-194 201h-2l-194 -201h-168l292 299h142zM1034 0h-894v1443h894v-162h-714v-463h677v-160h-677v-496h714v-162z" />
    <glyph glyph-name="ecircumflexbelow" unicode="&#x1e19;" horiz-adv-x="1084" 
d="M630 -166l292 -299h-168l-194 201h-2l-194 -201h-168l292 299h142zM197.5 936.5q132.5 151.5 350.5 151.5t344.5 -142t126.5 -387v-68h-774v-10q0 -155 87.5 -246.5t237.5 -91.5t201 63.5t63 101.5h172q-22 -138 -148 -228t-313 -90q-100 0 -191 38t-190 147t-99 359.5
t132.5 402zM336.5 850q-83.5 -85 -91.5 -220h593q-4 138 -83.5 221.5t-206.5 83.5q-128 0 -211.5 -85z" />
    <glyph glyph-name="Etildebelow" unicode="&#x1e1a;" horiz-adv-x="1131" 
d="M466 -263q-69 0 -69 -137h-114q0 118 46.5 184t130.5 66t152 -76t103 -76q62 0 62 138h114q0 -178 -68 -214.5t-104 -36.5t-61.5 11.5t-46.5 28t-39 36.5t-47 48t-59 28zM1034 0h-894v1443h894v-162h-714v-463h677v-160h-677v-496h714v-162z" />
    <glyph glyph-name="etildebelow" unicode="&#x1e1b;" horiz-adv-x="1084" 
d="M369 -400h-114q0 118 46.5 184t130.5 66t152 -76t103 -76q62 0 62 138h114q0 -178 -68 -214.5t-104 -36.5t-61.5 11.5t-46.5 28t-39 36.5t-47 48t-59 28q-69 0 -69 -137zM197.5 936.5q132.5 151.5 350.5 151.5t344.5 -142t126.5 -387v-68h-774v-10q0 -155 87.5 -246.5
t237.5 -91.5t201 63.5t63 101.5h172q-22 -138 -148 -228t-313 -90q-100 0 -191 38t-190 147t-99 359.5t132.5 402zM336.5 850q-83.5 -85 -91.5 -220h593q-4 138 -83.5 221.5t-206.5 83.5q-128 0 -211.5 -85z" />
    <glyph glyph-name="Ecedillabreve" unicode="&#x1e1c;" horiz-adv-x="1131" 
d="M568 -369q120 0 120 73q0 35 -35 50.5t-115 15.5h-55v74l60 156h-403v1443h894v-162h-714v-463h677v-160h-677v-496h714v-162h-379l-52 -142q209 0 209 -150q0 -76 -62 -126.5t-151 -51.5t-153 18v98q35 -15 122 -15zM897 1849q0 -133 -86.5 -216t-223.5 -83t-223.5 83
t-86.5 216h119q0 -83 55 -139.5t136 -56.5t136 56.5t55 139.5h119z" />
    <glyph glyph-name="ecedillabreve" unicode="&#x1e1d;" horiz-adv-x="1084" 
d="M540 -369q120 0 120 73q0 35 -35 50.5t-115 15.5h-55v74l57 148q-207 16 -327 161t-120 389t132.5 395t350.5 151t344.5 -142t126.5 -387v-68h-774v-10q0 -155 87.5 -246.5t237.5 -91.5t201 63.5t63 101.5h172q-20 -123 -125 -210.5t-256 -103.5l-50 -136q209 0 209 -150
q0 -76 -62 -126.5t-151 -51.5t-153 18v98q35 -15 122 -15zM336.5 850q-83.5 -85 -91.5 -220h593q-4 138 -83.5 221.5t-206.5 83.5q-128 0 -211.5 -85zM872 1550q0 -138 -89.5 -224t-232.5 -86t-232.5 86t-89.5 224h123q0 -85 57 -144t142 -59t142 59t57 144h123z" />
    <glyph glyph-name="Fdotaccent" unicode="&#x1e1e;" horiz-adv-x="1081" 
d="M578 1585q-25 0 -47 9.5t-38.5 26t-26 38.5t-9.5 47t9.5 47t26 38.5t38.5 26t47 9.5t47 -9.5t38.5 -26t26 -38.5t9.5 -47t-9.5 -47t-26 -38.5t-38.5 -26t-47 -9.5zM140 0v1443h876v-162h-696v-496h639v-160h-639v-625h-180z" />
    <glyph glyph-name="fdotaccent" unicode="&#x1e1f;" horiz-adv-x="629" 
d="M367 1605q-25 0 -47 9.5t-38.5 26t-26 38.5t-9.5 47t9.5 47t26 38.5t38.5 26t47 9.5t47 -9.5t38.5 -26t26 -38.5t9.5 -47t-9.5 -47t-26 -38.5t-38.5 -26t-47 -9.5zM467 1321q-117 0 -118 -143v-100h210v-144h-210v-934h-174v934h-150v144h150v100q0 149 68.5 218.5
t218.5 69.5q52 0 97 -9v-144q-35 8 -92 8z" />
    <glyph glyph-name="Gmacron" unicode="&#x1e20;" horiz-adv-x="1447" 
d="M1062 1642h-634v106h634v-106zM1159 995q-95 306 -431 306q-94 0 -182.5 -39t-182.5 -151.5t-94 -382.5t127.5 -428t334.5 -158t326.5 113.5t119.5 294.5v26h-407v158h587v-137q0 -292 -161 -456.5t-457 -164.5t-475.5 204.5t-179.5 545.5t179 541t482 200
q233 0 398 -128.5t205 -343.5h-189z" />
    </font>
</defs>
</svg>
